<?xml version="1.0" encoding="UTF-8" standalone="no"?>
<svg
   xmlns:dc="http://purl.org/dc/elements/1.1/"
   xmlns:cc="http://creativecommons.org/ns#"
   xmlns:rdf="http://www.w3.org/1999/02/22-rdf-syntax-ns#"
   xmlns:svg="http://www.w3.org/2000/svg"
   xmlns="http://www.w3.org/2000/svg"
   xmlns:sodipodi="http://sodipodi.sourceforge.net/DTD/sodipodi-0.dtd"
   xmlns:inkscape="http://www.inkscape.org/namespaces/inkscape"
   width="750"
   height="500"
   id="svg2"
   version="1.1"
   inkscape:version="0.48.1 "
   sodipodi:docname="Spain new republic flag.svg">
  <metadata
     id="metadata1264">
    <rdf:RDF>
      <cc:Work
         rdf:about="">
        <dc:format>image/svg+xml</dc:format>
        <dc:type
           rdf:resource="http://purl.org/dc/dcmitype/StillImage" />
        <dc:title></dc:title>
      </cc:Work>
    </rdf:RDF>
  </metadata>
  <defs
     id="defs1262" />
  <sodipodi:namedview
     pagecolor="#ffffff"
     bordercolor="#666666"
     borderopacity="1"
     objecttolerance="10"
     gridtolerance="10"
     guidetolerance="10"
     inkscape:pageopacity="0"
     inkscape:pageshadow="2"
     inkscape:window-width="1440"
     inkscape:window-height="838"
     id="namedview1260"
     showgrid="false"
     inkscape:zoom="0.522"
     inkscape:cx="653.55335"
     inkscape:cy="267.25266"
     inkscape:window-x="-8"
     inkscape:window-y="-8"
     inkscape:window-maximized="1"
     inkscape:current-layer="svg2"
     fit-margin-top="0"
     fit-margin-left="0"
     fit-margin-right="0"
     fit-margin-bottom="0" />
  <rect
     width="750"
     height="500"
     id="rect4"
     x="0"
     y="0"
     style="fill:#c60b1e" />
  <rect
     y="125"
     width="750"
     height="250"
     id="rect6"
     x="0"
     style="fill:#ffc400" />
  <path
     d="m 164.58,197.4325 h 22.29 v -5.84 h -22.29 v 5.84 z"
     id="path178"
     inkscape:connector-curvature="0"
     style="fill:#c8b100" />
  <path
     d="m 164.58,197.4325 h 22.29 v -5.84 h -22.29 v 5.84 z"
     id="path180"
     inkscape:connector-curvature="0"
     style="fill:none;stroke:#000000;stroke-width:0.38999999" />
  <path
     d="m 166.92,201.3225 c 0.14,-0.06 0.24,-0.07 0.41,-0.07 h 16.69 c 0.17,0 0.32,0.03 0.46,0.08 -0.58,-0.19 -0.99,-0.71 -0.99,-1.32 0,-0.61 0.45,-1.14 1.03,-1.33 -0.14,0.04 -0.33,0.08 -0.49,0.08 h -16.7 c -0.17,0 -0.33,-0.01 -0.47,-0.06 l 0.09,0.02 c 0.6,0.18 0.94,0.71 0.94,1.29 0,0.56 -0.38,1.13 -0.97,1.31"
     id="path182"
     inkscape:connector-curvature="0"
     style="fill:#c8b100" />
  <path
     d="m 166.92,201.3225 c 0.14,-0.06 0.24,-0.07 0.41,-0.07 h 16.69 c 0.17,0 0.32,0.03 0.46,0.08 -0.58,-0.19 -0.99,-0.71 -0.99,-1.32 0,-0.61 0.45,-1.14 1.03,-1.33 -0.14,0.04 -0.33,0.08 -0.49,0.08 h -16.7 c -0.17,0 -0.33,-0.01 -0.47,-0.06 l 0.09,0.02 c 0.6,0.18 0.94,0.71 0.94,1.29 0,0.56 -0.38,1.13 -0.97,1.31 z"
     id="path184"
     inkscape:connector-curvature="0"
     style="fill:none;stroke:#000000;stroke-width:0.38999999;stroke-linejoin:round" />
  <path
     d="m 167.33,201.2525 h 16.69 c 0.57,0 1.02,0.35 1.02,0.78 0,0.44 -0.45,0.79 -1.02,0.79 h -16.69 c -0.56,0 -1.02,-0.35 -1.02,-0.79 0,-0.43 0.46,-0.78 1.02,-0.78"
     id="path186"
     inkscape:connector-curvature="0"
     style="fill:#c8b100" />
  <path
     d="m 167.33,201.2525 h 16.69 c 0.57,0 1.02,0.35 1.02,0.78 0,0.44 -0.45,0.79 -1.02,0.79 h -16.69 c -0.56,0 -1.02,-0.35 -1.02,-0.79 0,-0.43 0.46,-0.78 1.02,-0.78 z"
     id="path188"
     inkscape:connector-curvature="0"
     style="fill:none;stroke:#000000;stroke-width:0.38999999" />
  <path
     d="m 167.33,197.4325 h 16.7 c 0.57,0 1.03,0.3 1.03,0.66 0,0.37 -0.46,0.67 -1.03,0.67 h -16.7 c -0.56,0 -1.02,-0.3 -1.02,-0.67 0,-0.36 0.46,-0.66 1.02,-0.66"
     id="path190"
     inkscape:connector-curvature="0"
     style="fill:#c8b100" />
  <path
     d="m 167.33,197.4325 h 16.7 c 0.57,0 1.03,0.3 1.03,0.66 0,0.37 -0.46,0.67 -1.03,0.67 h -16.7 c -0.56,0 -1.02,-0.3 -1.02,-0.67 0,-0.36 0.46,-0.66 1.02,-0.66 z"
     id="path192"
     inkscape:connector-curvature="0"
     style="fill:none;stroke:#000000;stroke-width:0.38999999" />
  <path
     d="m 191.28,295.7425 c -1.54,0 -2.91,-0.33 -3.93,-0.87 -1,-0.51 -2.36,-0.82 -3.86,-0.82 -1.51,0 -2.9,0.32 -3.91,0.83 -1.01,0.53 -2.4,0.86 -3.92,0.86 -1.54,0 -2.92,-0.36 -3.93,-0.9 -1,-0.49 -2.33,-0.79 -3.79,-0.79 -1.52,0 -2.86,0.29 -3.86,0.81 -1.02,0.54 -2.42,0.88 -3.95,0.88 v 2.41 c 1.53,0 2.93,-0.35 3.95,-0.88 1,-0.52 2.34,-0.82 3.86,-0.82 1.45,0 2.79,0.31 3.79,0.8 1.01,0.53 2.39,0.9 3.93,0.9 1.52,0 2.91,-0.33 3.92,-0.86 1.01,-0.52 2.4,-0.84 3.91,-0.84 1.5,0 2.86,0.32 3.86,0.83 1.02,0.54 2.37,0.87 3.91,0.87 l 0.02,-2.41"
     id="path194"
     inkscape:connector-curvature="0"
     style="fill:#005bbf" />
  <path
     d="m 191.28,295.7425 c -1.54,0 -2.91,-0.33 -3.93,-0.87 -1,-0.51 -2.36,-0.82 -3.86,-0.82 -1.51,0 -2.9,0.32 -3.91,0.83 -1.01,0.53 -2.4,0.86 -3.92,0.86 -1.54,0 -2.92,-0.36 -3.93,-0.9 -1,-0.49 -2.33,-0.79 -3.79,-0.79 -1.52,0 -2.86,0.29 -3.86,0.81 -1.02,0.54 -2.42,0.88 -3.95,0.88 v 2.41 c 1.53,0 2.93,-0.35 3.95,-0.88 1,-0.52 2.34,-0.82 3.86,-0.82 1.45,0 2.79,0.31 3.79,0.8 1.01,0.53 2.39,0.9 3.93,0.9 1.52,0 2.91,-0.33 3.92,-0.86 1.01,-0.52 2.4,-0.84 3.91,-0.84 1.5,0 2.86,0.32 3.86,0.83 1.02,0.54 2.37,0.87 3.91,0.87 l 0.02,-2.41 z"
     id="path196"
     inkscape:connector-curvature="0"
     style="fill:none;stroke:#000000;stroke-width:0.38999999" />
  <path
     d="m 191.28,298.1525 c -1.54,0 -2.91,-0.33 -3.93,-0.87 -1,-0.51 -2.36,-0.83 -3.86,-0.83 -1.51,0 -2.9,0.32 -3.91,0.84 -1.01,0.53 -2.4,0.86 -3.92,0.86 -1.54,0 -2.92,-0.37 -3.93,-0.9 -1,-0.49 -2.33,-0.8 -3.79,-0.8 -1.52,0 -2.86,0.3 -3.86,0.82 -1.02,0.53 -2.42,0.88 -3.95,0.88 v 2.41 c 1.53,0 2.93,-0.35 3.95,-0.88 1,-0.52 2.34,-0.82 3.86,-0.82 1.45,0 2.79,0.31 3.79,0.8 1.01,0.54 2.39,0.9 3.93,0.9 1.52,0 2.91,-0.34 3.92,-0.86 1.01,-0.52 2.4,-0.84 3.91,-0.84 1.5,0 2.86,0.32 3.86,0.84 1.02,0.53 2.37,0.86 3.91,0.86 l 0.02,-2.41"
     id="path198"
     inkscape:connector-curvature="0"
     style="fill:#cccccc" />
  <path
     d="m 191.28,298.1525 c -1.54,0 -2.91,-0.33 -3.93,-0.87 -1,-0.51 -2.36,-0.83 -3.86,-0.83 -1.51,0 -2.9,0.32 -3.91,0.84 -1.01,0.53 -2.4,0.86 -3.92,0.86 -1.54,0 -2.92,-0.37 -3.93,-0.9 -1,-0.49 -2.33,-0.8 -3.79,-0.8 -1.52,0 -2.86,0.3 -3.86,0.82 -1.02,0.53 -2.42,0.88 -3.95,0.88 v 2.41 c 1.53,0 2.93,-0.35 3.95,-0.88 1,-0.52 2.34,-0.82 3.86,-0.82 1.45,0 2.79,0.31 3.79,0.8 1.01,0.54 2.39,0.9 3.93,0.9 1.52,0 2.91,-0.34 3.92,-0.86 1.01,-0.52 2.4,-0.84 3.91,-0.84 1.5,0 2.86,0.32 3.86,0.84 1.02,0.53 2.37,0.86 3.91,0.86 l 0.02,-2.41"
     id="path200"
     inkscape:connector-curvature="0"
     style="fill:none;stroke:#000000;stroke-width:0.38999999" />
  <path
     d="m 191.28,300.5625 c -1.54,0 -2.91,-0.33 -3.93,-0.86 -1,-0.52 -2.36,-0.84 -3.86,-0.84 -1.51,0 -2.9,0.32 -3.91,0.84 -1.01,0.52 -2.4,0.86 -3.92,0.86 -1.54,0 -2.92,-0.36 -3.93,-0.9 -1,-0.49 -2.33,-0.8 -3.79,-0.8 -1.52,0 -2.86,0.3 -3.86,0.82 -1.02,0.53 -2.42,0.88 -3.95,0.88 v 2.4 c 1.53,0 2.93,-0.34 3.95,-0.88 1,-0.51 2.34,-0.8 3.86,-0.8 1.45,0 2.79,0.3 3.79,0.79 1.01,0.54 2.39,0.89 3.93,0.89 1.52,0 2.91,-0.32 3.92,-0.85 1.01,-0.52 2.4,-0.83 3.91,-0.83 1.5,0 2.86,0.31 3.86,0.82 1.02,0.55 2.37,0.86 3.91,0.86 l 0.02,-2.4"
     id="path202"
     inkscape:connector-curvature="0"
     style="fill:#005bbf" />
  <path
     d="m 191.28,300.5625 c -1.54,0 -2.91,-0.33 -3.93,-0.86 -1,-0.52 -2.36,-0.84 -3.86,-0.84 -1.51,0 -2.9,0.32 -3.91,0.84 -1.01,0.52 -2.4,0.86 -3.92,0.86 -1.54,0 -2.92,-0.36 -3.93,-0.9 -1,-0.49 -2.33,-0.8 -3.79,-0.8 -1.52,0 -2.86,0.3 -3.86,0.82 -1.02,0.53 -2.42,0.88 -3.95,0.88 v 2.4 c 1.53,0 2.93,-0.34 3.95,-0.88 1,-0.51 2.34,-0.8 3.86,-0.8 1.45,0 2.79,0.3 3.79,0.79 1.01,0.54 2.39,0.89 3.93,0.89 1.52,0 2.91,-0.32 3.92,-0.85 1.01,-0.52 2.4,-0.83 3.91,-0.83 1.5,0 2.86,0.31 3.86,0.82 1.02,0.55 2.37,0.86 3.91,0.86 l 0.02,-2.4"
     id="path204"
     inkscape:connector-curvature="0"
     style="fill:none;stroke:#000000;stroke-width:0.38999999" />
  <path
     d="m 191.26,305.3825 c -1.54,0 -2.89,-0.33 -3.91,-0.87 -1,-0.51 -2.36,-0.82 -3.86,-0.82 -1.51,0 -2.9,0.31 -3.91,0.83 -1.01,0.52 -2.4,0.86 -3.92,0.86 -1.54,0 -2.92,-0.37 -3.93,-0.9 -1,-0.5 -2.33,-0.79 -3.79,-0.79 -1.52,0 -2.86,0.29 -3.86,0.81 -1.02,0.53 -2.42,0.88 -3.95,0.88 v -2.4 c 1.53,0 2.93,-0.36 3.95,-0.9 1,-0.51 2.34,-0.8 3.86,-0.8 1.45,0 2.79,0.3 3.79,0.79 1.01,0.54 2.39,0.89 3.93,0.89 1.52,0 2.91,-0.32 3.92,-0.85 1.01,-0.52 2.4,-0.83 3.91,-0.83 1.5,0 2.86,0.31 3.86,0.82 1.02,0.55 2.39,0.86 3.93,0.86 l -0.02,2.42"
     id="path206"
     inkscape:connector-curvature="0"
     style="fill:#cccccc" />
  <path
     d="m 191.26,305.3825 c -1.54,0 -2.89,-0.33 -3.91,-0.87 -1,-0.51 -2.36,-0.82 -3.86,-0.82 -1.51,0 -2.9,0.31 -3.91,0.83 -1.01,0.52 -2.4,0.86 -3.92,0.86 -1.54,0 -2.92,-0.37 -3.93,-0.9 -1,-0.5 -2.33,-0.79 -3.79,-0.79 -1.52,0 -2.86,0.29 -3.86,0.81 -1.02,0.53 -2.42,0.88 -3.95,0.88 v -2.4 c 1.53,0 2.93,-0.36 3.95,-0.9 1,-0.51 2.34,-0.8 3.86,-0.8 1.45,0 2.79,0.3 3.79,0.79 1.01,0.54 2.39,0.89 3.93,0.89 1.52,0 2.91,-0.32 3.92,-0.85 1.01,-0.52 2.4,-0.83 3.91,-0.83 1.5,0 2.86,0.31 3.86,0.82 1.02,0.55 2.39,0.86 3.93,0.86 l -0.02,2.42"
     id="path208"
     inkscape:connector-curvature="0"
     style="fill:none;stroke:#000000;stroke-width:0.38999999" />
  <path
     d="m 191.26,307.7925 c -1.54,0 -2.89,-0.33 -3.91,-0.86 -1,-0.52 -2.36,-0.84 -3.86,-0.84 -1.51,0 -2.9,0.32 -3.91,0.84 -1.01,0.52 -2.4,0.86 -3.92,0.86 -1.54,0 -2.92,-0.37 -3.93,-0.9 -1,-0.5 -2.33,-0.8 -3.79,-0.8 -1.52,0 -2.86,0.3 -3.86,0.82 -1.02,0.53 -2.42,0.88 -3.95,0.88 v -2.39 c 1.53,0 2.93,-0.37 3.95,-0.9 1,-0.52 2.34,-0.81 3.86,-0.81 1.45,0 2.79,0.3 3.79,0.79 1.01,0.53 2.39,0.9 3.93,0.9 1.52,0 2.91,-0.34 3.92,-0.86 1.01,-0.52 2.4,-0.83 3.91,-0.83 1.5,0 2.86,0.31 3.86,0.82 1.02,0.54 2.38,0.87 3.93,0.87 l -0.02,2.41"
     id="path210"
     inkscape:connector-curvature="0"
     style="fill:#005bbf" />
  <path
     d="m 191.26,307.7925 c -1.54,0 -2.89,-0.33 -3.91,-0.86 -1,-0.52 -2.36,-0.84 -3.86,-0.84 -1.51,0 -2.9,0.32 -3.91,0.84 -1.01,0.52 -2.4,0.86 -3.92,0.86 -1.54,0 -2.92,-0.37 -3.93,-0.9 -1,-0.5 -2.33,-0.8 -3.79,-0.8 -1.52,0 -2.86,0.3 -3.86,0.82 -1.02,0.53 -2.42,0.88 -3.95,0.88 v -2.39 c 1.53,0 2.93,-0.37 3.95,-0.9 1,-0.52 2.34,-0.81 3.86,-0.81 1.45,0 2.79,0.3 3.79,0.79 1.01,0.53 2.39,0.9 3.93,0.9 1.52,0 2.91,-0.34 3.92,-0.86 1.01,-0.52 2.4,-0.83 3.91,-0.83 1.5,0 2.86,0.31 3.86,0.82 1.02,0.54 2.38,0.87 3.93,0.87 l -0.02,2.41 z"
     id="path212"
     inkscape:connector-curvature="0"
     style="fill:none;stroke:#000000;stroke-width:0.38999999" />
  <path
     d="m 166.92,285.8425 c 0.05,0.21 0.13,0.4 0.13,0.62 0,1.46 -1.27,2.63 -2.81,2.63 h 22.94 c -1.55,0 -2.81,-1.17 -2.81,-2.63 0,-0.21 0.04,-0.41 0.09,-0.62 -0.13,0.05 -0.29,0.06 -0.44,0.06 h -16.69 c -0.13,0 -0.29,-0.02 -0.41,-0.06"
     id="path214"
     inkscape:connector-curvature="0"
     style="fill:#c8b100" />
  <path
     d="m 166.92,285.8425 c 0.05,0.21 0.13,0.4 0.13,0.62 0,1.46 -1.27,2.63 -2.81,2.63 h 22.94 c -1.55,0 -2.81,-1.17 -2.81,-2.63 0,-0.21 0.04,-0.41 0.09,-0.62 -0.13,0.05 -0.29,0.06 -0.44,0.06 h -16.69 c -0.13,0 -0.29,-0.02 -0.41,-0.06 z"
     id="path216"
     inkscape:connector-curvature="0"
     style="fill:none;stroke:#000000;stroke-width:0.38999999;stroke-linejoin:round" />
  <path
     d="m 167.33,284.3325 h 16.69 c 0.57,0 1.02,0.35 1.02,0.78 0,0.43 -0.45,0.79 -1.02,0.79 h -16.69 c -0.56,0 -1.02,-0.36 -1.02,-0.79 0,-0.43 0.46,-0.78 1.02,-0.78"
     id="path218"
     inkscape:connector-curvature="0"
     style="fill:#c8b100" />
  <path
     d="m 167.33,284.3325 h 16.69 c 0.57,0 1.02,0.35 1.02,0.78 0,0.43 -0.45,0.79 -1.02,0.79 h -16.69 c -0.56,0 -1.02,-0.36 -1.02,-0.79 0,-0.43 0.46,-0.78 1.02,-0.78 z"
     id="path220"
     inkscape:connector-curvature="0"
     style="fill:none;stroke:#000000;stroke-width:0.38999999" />
  <path
     d="m 164.27,294.9225 h 22.87 v -5.83 h -22.87 v 5.83 z"
     id="path222"
     inkscape:connector-curvature="0"
     style="fill:#c8b100" />
  <path
     d="m 164.27,294.9225 h 22.87 v -5.83 h -22.87 v 5.83 z"
     id="path224"
     inkscape:connector-curvature="0"
     style="fill:none;stroke:#000000;stroke-width:0.38999999" />
  <path
     d="m 162.48,263.6825 c -2.26,1.3 -3.8,2.64 -3.55,3.31 0.12,0.61 0.84,1.07 1.87,1.75 1.62,1.13 2.6,3.14 1.83,4.07 1.34,-1.08 2.19,-2.69 2.19,-4.49 0,-1.87 -0.9,-3.56 -2.34,-4.64"
     id="path226"
     inkscape:connector-curvature="0"
     style="fill:#ad1519" />
  <path
     d="m 162.48,263.6825 c -2.26,1.3 -3.8,2.64 -3.55,3.31 0.12,0.61 0.84,1.07 1.87,1.75 1.62,1.13 2.6,3.14 1.83,4.07 1.34,-1.08 2.19,-2.69 2.19,-4.49 0,-1.87 -0.9,-3.56 -2.34,-4.64 z"
     id="path228"
     inkscape:connector-curvature="0"
     style="fill:none;stroke:#000000;stroke-width:0.38999999" />
  <path
     d="m 167.55,283.3825 h 16.25 v -79.63 h -16.25 v 79.63 z"
     id="path230"
     inkscape:connector-curvature="0"
     style="fill:#cccccc" />
  <path
     d="m 179.13,203.8625 v 79.46 m 1.83,-79.46 v 79.46"
     id="path232"
     inkscape:connector-curvature="0"
     style="fill:none;stroke:#000000;stroke-width:0.38999999" />
  <path
     d="m 167.55,283.3825 h 16.25 v -79.63 h -16.25 v 79.63 z"
     id="path234"
     inkscape:connector-curvature="0"
     style="fill:none;stroke:#000000;stroke-width:0.38999999" />
  <path
     d="m 200.4,233.5325 c -3.54,-1.46 -9.57,-2.55 -16.49,-2.78 -2.39,0.02 -5.04,0.25 -7.79,0.7 -9.72,1.63 -17.13,5.51 -16.54,8.67 0.01,0.06 0.04,0.2 0.05,0.26 0,0 -3.64,-8.21 -3.7,-8.52 -0.65,-3.51 7.56,-7.82 18.35,-9.62 3.39,-0.57 6.69,-0.79 9.56,-0.76 6.9,0 12.9,0.89 16.52,2.23 l 0.04,9.82"
     id="path236"
     inkscape:connector-curvature="0"
     style="fill:#ad1519" />
  <path
     d="m 200.4,233.5325 c -3.54,-1.46 -9.57,-2.55 -16.49,-2.78 -2.39,0.02 -5.04,0.25 -7.79,0.7 -9.72,1.63 -17.13,5.51 -16.54,8.67 0.01,0.06 0.04,0.2 0.05,0.26 0,0 -3.64,-8.21 -3.7,-8.52 -0.65,-3.51 7.56,-7.82 18.35,-9.62 3.39,-0.57 6.69,-0.79 9.56,-0.76 6.9,0 12.9,0.89 16.52,2.23 l 0.04,9.82"
     id="path238"
     inkscape:connector-curvature="0"
     style="fill:none;stroke:#000000;stroke-width:0.38999999;stroke-linejoin:round" />
  <path
     d="m 167.52,243.5325 c -4.51,-0.32 -7.58,-1.53 -7.94,-3.41 -0.28,-1.5 1.25,-3.17 3.97,-4.68 1.21,0.14 2.58,0.3 4,0.3 l -0.03,7.79"
     id="path240"
     inkscape:connector-curvature="0"
     style="fill:#ad1519" />
  <path
     d="m 167.52,243.5325 c -4.51,-0.32 -7.58,-1.53 -7.94,-3.41 -0.28,-1.5 1.25,-3.17 3.97,-4.68 1.21,0.14 2.58,0.3 4,0.3 l -0.03,7.79"
     id="path242"
     inkscape:connector-curvature="0"
     style="fill:none;stroke:#000000;stroke-width:0.38999999" />
  <path
     d="m 183.83,237.4425 c 2.82,0.43 4.93,1.13 5.98,1.99 l 0.1,0.17 c 0.5,1.03 -1.97,3.22 -6.11,5.67 l 0.03,-7.83"
     id="path244"
     inkscape:connector-curvature="0"
     style="fill:#ad1519" />
  <path
     d="m 183.83,237.4425 c 2.82,0.43 4.93,1.13 5.98,1.99 l 0.1,0.17 c 0.5,1.03 -1.97,3.22 -6.11,5.67 l 0.03,-7.83"
     id="path246"
     inkscape:connector-curvature="0"
     style="fill:none;stroke:#000000;stroke-width:0.38999999" />
  <path
     d="m 157.42,258.8925 c -0.43,-1.28 3.97,-3.86 10.18,-6.14 2.84,-1.01 5.18,-2.07 8.09,-3.35 8.63,-3.82 15,-8.2 14.22,-9.79 l -0.09,-0.17 c 0.46,0.38 1.18,8.24 1.18,8.24 0.78,1.46 -5.05,5.78 -13,9.58 -2.54,1.22 -7.91,3.2 -10.44,4.09 -4.54,1.57 -9.04,4.54 -8.63,5.64 l -1.51,-8.09"
     id="path248"
     inkscape:connector-curvature="0"
     style="fill:#ad1519" />
  <path
     d="m 157.42,258.8925 c -0.43,-1.28 3.97,-3.86 10.18,-6.14 2.84,-1.01 5.18,-2.07 8.09,-3.35 8.63,-3.82 15,-8.2 14.22,-9.79 l -0.09,-0.17 c 0.46,0.38 1.18,8.24 1.18,8.24 0.78,1.46 -5.05,5.78 -13,9.58 -2.54,1.22 -7.91,3.2 -10.44,4.09 -4.54,1.57 -9.04,4.54 -8.63,5.64 l -1.51,-8.09 v -0.01 z"
     id="path250"
     inkscape:connector-curvature="0"
     style="fill:none;stroke:#000000;stroke-width:0.38999999;stroke-linejoin:round" />
  <path
     d="m 166.42,229.7125 c 1.99,-0.72 3.29,-1.58 2.66,-3.14 -0.41,-1 -1.43,-1.19 -2.97,-0.63 l -2.71,0.99 2.44,6.03 c 0.27,-0.12 0.54,-0.24 0.81,-0.34 0.28,-0.1 0.57,-0.18 0.85,-0.26 l -1.08,-2.64 v -0.01 z m -1.18,-2.91 0.69,-0.25 c 0.57,-0.21 1.21,0.1 1.5,0.8 0.21,0.53 0.16,1.13 -0.5,1.55 -0.21,0.13 -0.46,0.23 -0.7,0.33 l -0.99,-2.43"
     id="path252"
     inkscape:connector-curvature="0"
     style="fill:#c8b100" />
  <path
     d="m 172.78,224.2825 c -0.29,0.08 -0.57,0.16 -0.86,0.22 -0.29,0.05 -0.59,0.09 -0.88,0.12 l 1.41,6.28 4.38,-0.88 c -0.05,-0.12 -0.12,-0.26 -0.14,-0.38 -0.03,-0.14 -0.03,-0.28 -0.04,-0.41 -0.77,0.22 -1.61,0.46 -2.61,0.66 l -1.26,-5.61"
     id="path254"
     inkscape:connector-curvature="0"
     style="fill:#c8b100" />
  <path
     d="m 181.56,229.6925 c 0.82,-2.28 1.82,-4.46 2.81,-6.67 -0.18,0.03 -0.36,0.06 -0.54,0.07 -0.18,0.01 -0.37,0.01 -0.54,0 -0.53,1.61 -1.18,3.21 -1.87,4.8 -0.82,-1.51 -1.73,-2.99 -2.43,-4.51 -0.34,0.04 -0.69,0.09 -1.03,0.12 -0.34,0.02 -0.7,0.01 -1.04,0.02 1.26,2.06 2.48,4.11 3.64,6.23 0.16,-0.03 0.32,-0.06 0.5,-0.08 0.16,-0.01 0.33,0.01 0.5,0.02"
     id="path256"
     inkscape:connector-curvature="0"
     style="fill:#c8b100" />
  <path
     d="m 190.72,224.8625 c 0.15,-0.31 0.31,-0.6 0.48,-0.89 -0.24,-0.22 -0.96,-0.55 -1.81,-0.63 -1.79,-0.18 -2.81,0.61 -2.93,1.69 -0.26,2.26 3.31,2.07 3.14,3.57 -0.07,0.64 -0.75,0.9 -1.48,0.83 -0.81,-0.08 -1.41,-0.53 -1.51,-1.19 l -0.22,-0.02 c -0.12,0.39 -0.29,0.77 -0.48,1.15 0.53,0.34 1.21,0.53 1.85,0.59 1.83,0.19 3.22,-0.54 3.35,-1.74 0.23,-2.15 -3.37,-2.27 -3.23,-3.54 0.06,-0.53 0.47,-0.88 1.4,-0.79 0.67,0.07 1.08,0.43 1.26,0.95 l 0.18,0.02"
     id="path258"
     inkscape:connector-curvature="0"
     style="fill:#c8b100" />
  <path
     d="M 313.71,197.4325 H 336 v -5.84 h -22.29 v 5.84 z"
     id="path446"
     inkscape:connector-curvature="0"
     style="fill:#c8b100" />
  <path
     d="M 313.71,197.4325 H 336 v -5.84 h -22.29 v 5.84 z"
     id="path448"
     inkscape:connector-curvature="0"
     style="fill:none;stroke:#000000;stroke-width:0.38999999" />
  <path
     d="m 333.66,201.3225 c -0.14,-0.06 -0.24,-0.07 -0.41,-0.07 h -16.69 c -0.17,0 -0.32,0.03 -0.46,0.08 0.57,-0.19 0.98,-0.71 0.98,-1.32 0,-0.61 -0.44,-1.14 -1.02,-1.33 0.14,0.04 0.32,0.08 0.49,0.08 h 16.7 c 0.17,0 0.33,-0.01 0.47,-0.06 l -0.1,0.02 c -0.59,0.18 -0.93,0.71 -0.93,1.29 0,0.56 0.37,1.13 0.97,1.31"
     id="path450"
     inkscape:connector-curvature="0"
     style="fill:#c8b100" />
  <path
     d="m 333.66,201.3225 c -0.14,-0.06 -0.24,-0.07 -0.41,-0.07 h -16.69 c -0.17,0 -0.32,0.03 -0.46,0.08 0.57,-0.19 0.98,-0.71 0.98,-1.32 0,-0.61 -0.44,-1.14 -1.02,-1.33 0.14,0.04 0.32,0.08 0.49,0.08 h 16.7 c 0.17,0 0.33,-0.01 0.47,-0.06 l -0.1,0.02 c -0.59,0.18 -0.93,0.71 -0.93,1.29 0,0.56 0.37,1.13 0.97,1.31 z"
     id="path452"
     inkscape:connector-curvature="0"
     style="fill:none;stroke:#000000;stroke-width:0.38999999;stroke-linejoin:round" />
  <path
     d="m 316.56,201.2525 h 16.69 c 0.56,0 1.02,0.35 1.02,0.78 0,0.44 -0.46,0.79 -1.02,0.79 h -16.69 c -0.57,0 -1.02,-0.35 -1.02,-0.79 0,-0.43 0.45,-0.78 1.02,-0.78"
     id="path454"
     inkscape:connector-curvature="0"
     style="fill:#c8b100" />
  <path
     d="m 316.56,201.2525 h 16.69 c 0.56,0 1.02,0.35 1.02,0.78 0,0.44 -0.46,0.79 -1.02,0.79 h -16.69 c -0.57,0 -1.02,-0.35 -1.02,-0.79 0,-0.43 0.45,-0.78 1.02,-0.78 z"
     id="path456"
     inkscape:connector-curvature="0"
     style="fill:none;stroke:#000000;stroke-width:0.38999999" />
  <path
     d="m 316.55,197.4325 h 16.7 c 0.56,0 1.02,0.3 1.02,0.66 0,0.37 -0.46,0.67 -1.02,0.67 h -16.7 c -0.57,0 -1.03,-0.3 -1.03,-0.67 0,-0.36 0.46,-0.66 1.03,-0.66"
     id="path458"
     inkscape:connector-curvature="0"
     style="fill:#c8b100" />
  <path
     d="m 316.55,197.4325 h 16.7 c 0.56,0 1.02,0.3 1.02,0.66 0,0.37 -0.46,0.67 -1.02,0.67 h -16.7 c -0.57,0 -1.03,-0.3 -1.03,-0.67 0,-0.36 0.46,-0.66 1.03,-0.66 z"
     id="path460"
     inkscape:connector-curvature="0"
     style="fill:none;stroke:#000000;stroke-width:0.38999999" />
  <path
     d="m 309.3,295.7425 c 1.54,0 2.91,-0.33 3.92,-0.87 1.01,-0.51 2.37,-0.82 3.87,-0.82 1.51,0 2.9,0.32 3.91,0.83 1,0.53 2.4,0.86 3.92,0.86 1.54,0 2.92,-0.36 3.93,-0.9 1,-0.49 2.33,-0.79 3.79,-0.79 1.52,0 2.85,0.29 3.86,0.81 1.01,0.54 2.42,0.88 3.95,0.88 v 2.41 c -1.53,0 -2.94,-0.35 -3.95,-0.88 -1.01,-0.52 -2.34,-0.82 -3.86,-0.82 -1.46,0 -2.79,0.31 -3.79,0.8 -1.01,0.53 -2.39,0.9 -3.93,0.9 -1.52,0 -2.91,-0.33 -3.92,-0.86 -1.01,-0.52 -2.4,-0.84 -3.91,-0.84 -1.5,0 -2.86,0.32 -3.87,0.83 -1.01,0.54 -2.36,0.87 -3.9,0.87 l -0.02,-2.41"
     id="path462"
     inkscape:connector-curvature="0"
     style="fill:#005bbf" />
  <path
     d="m 309.3,295.7425 c 1.54,0 2.91,-0.33 3.92,-0.87 1.01,-0.51 2.37,-0.82 3.87,-0.82 1.51,0 2.9,0.32 3.91,0.83 1,0.53 2.4,0.86 3.92,0.86 1.54,0 2.92,-0.36 3.93,-0.9 1,-0.49 2.33,-0.79 3.79,-0.79 1.52,0 2.85,0.29 3.86,0.81 1.01,0.54 2.42,0.88 3.95,0.88 v 2.41 c -1.53,0 -2.94,-0.35 -3.95,-0.88 -1.01,-0.52 -2.34,-0.82 -3.86,-0.82 -1.46,0 -2.79,0.31 -3.79,0.8 -1.01,0.53 -2.39,0.9 -3.93,0.9 -1.52,0 -2.91,-0.33 -3.92,-0.86 -1.01,-0.52 -2.4,-0.84 -3.91,-0.84 -1.5,0 -2.86,0.32 -3.87,0.83 -1.01,0.54 -2.36,0.87 -3.9,0.87 l -0.02,-2.41 z"
     id="path464"
     inkscape:connector-curvature="0"
     style="fill:none;stroke:#000000;stroke-width:0.38999999" />
  <path
     d="m 309.3,298.1525 c 1.54,0 2.91,-0.33 3.92,-0.87 1.01,-0.51 2.37,-0.83 3.87,-0.83 1.51,0 2.9,0.32 3.91,0.84 1,0.53 2.4,0.86 3.92,0.86 1.54,0 2.92,-0.37 3.93,-0.9 1,-0.49 2.33,-0.8 3.79,-0.8 1.52,0 2.85,0.3 3.86,0.82 1.01,0.53 2.42,0.88 3.95,0.88 v 2.41 c -1.53,0 -2.94,-0.35 -3.95,-0.88 -1.01,-0.52 -2.34,-0.82 -3.86,-0.82 -1.46,0 -2.79,0.31 -3.79,0.8 -1.01,0.54 -2.39,0.9 -3.93,0.9 -1.52,0 -2.91,-0.34 -3.92,-0.86 -1.01,-0.52 -2.4,-0.84 -3.91,-0.84 -1.5,0 -2.86,0.32 -3.87,0.84 -1.01,0.53 -2.36,0.86 -3.9,0.86 l -0.02,-2.41"
     id="path466"
     inkscape:connector-curvature="0"
     style="fill:#cccccc" />
  <path
     d="m 309.3,298.1525 c 1.54,0 2.91,-0.33 3.92,-0.87 1.01,-0.51 2.37,-0.83 3.87,-0.83 1.51,0 2.9,0.32 3.91,0.84 1,0.53 2.4,0.86 3.92,0.86 1.54,0 2.92,-0.37 3.93,-0.9 1,-0.49 2.33,-0.8 3.79,-0.8 1.52,0 2.85,0.3 3.86,0.82 1.01,0.53 2.42,0.88 3.95,0.88 v 2.41 c -1.53,0 -2.94,-0.35 -3.95,-0.88 -1.01,-0.52 -2.34,-0.82 -3.86,-0.82 -1.46,0 -2.79,0.31 -3.79,0.8 -1.01,0.54 -2.39,0.9 -3.93,0.9 -1.52,0 -2.91,-0.34 -3.92,-0.86 -1.01,-0.52 -2.4,-0.84 -3.91,-0.84 -1.5,0 -2.86,0.32 -3.87,0.84 -1.01,0.53 -2.36,0.86 -3.9,0.86 l -0.02,-2.41"
     id="path468"
     inkscape:connector-curvature="0"
     style="fill:none;stroke:#000000;stroke-width:0.38999999" />
  <path
     d="m 309.3,300.5625 c 1.54,0 2.91,-0.33 3.92,-0.86 1.01,-0.52 2.37,-0.84 3.87,-0.84 1.51,0 2.9,0.32 3.91,0.84 1,0.52 2.4,0.86 3.92,0.86 1.54,0 2.92,-0.36 3.93,-0.9 1,-0.49 2.33,-0.8 3.79,-0.8 1.52,0 2.85,0.3 3.86,0.82 1.01,0.53 2.42,0.88 3.95,0.88 v 2.4 c -1.53,0 -2.94,-0.34 -3.95,-0.88 -1.01,-0.51 -2.34,-0.8 -3.86,-0.8 -1.46,0 -2.79,0.3 -3.79,0.79 -1.01,0.54 -2.39,0.89 -3.93,0.89 -1.52,0 -2.91,-0.32 -3.92,-0.85 -1.01,-0.52 -2.4,-0.83 -3.91,-0.83 -1.5,0 -2.86,0.31 -3.87,0.82 -1.01,0.55 -2.36,0.86 -3.9,0.86 l -0.02,-2.4"
     id="path470"
     inkscape:connector-curvature="0"
     style="fill:#005bbf" />
  <path
     d="m 309.3,300.5625 c 1.54,0 2.91,-0.33 3.92,-0.86 1.01,-0.52 2.37,-0.84 3.87,-0.84 1.51,0 2.9,0.32 3.91,0.84 1,0.52 2.4,0.86 3.92,0.86 1.54,0 2.92,-0.36 3.93,-0.9 1,-0.49 2.33,-0.8 3.79,-0.8 1.52,0 2.85,0.3 3.86,0.82 1.01,0.53 2.42,0.88 3.95,0.88 v 2.4 c -1.53,0 -2.94,-0.34 -3.95,-0.88 -1.01,-0.51 -2.34,-0.8 -3.86,-0.8 -1.46,0 -2.79,0.3 -3.79,0.79 -1.01,0.54 -2.39,0.89 -3.93,0.89 -1.52,0 -2.91,-0.32 -3.92,-0.85 -1.01,-0.52 -2.4,-0.83 -3.91,-0.83 -1.5,0 -2.86,0.31 -3.87,0.82 -1.01,0.55 -2.36,0.86 -3.9,0.86 l -0.02,-2.4"
     id="path472"
     inkscape:connector-curvature="0"
     style="fill:none;stroke:#000000;stroke-width:0.38999999" />
  <path
     d="m 309.32,305.3825 c 1.54,0 2.89,-0.33 3.9,-0.87 1.01,-0.51 2.37,-0.82 3.87,-0.82 1.51,0 2.9,0.31 3.91,0.83 1,0.52 2.4,0.86 3.92,0.86 1.54,0 2.92,-0.37 3.93,-0.9 1,-0.5 2.33,-0.79 3.79,-0.79 1.52,0 2.85,0.29 3.86,0.81 1.01,0.53 2.42,0.88 3.95,0.88 v -2.4 c -1.53,0 -2.94,-0.36 -3.95,-0.9 -1.01,-0.51 -2.34,-0.8 -3.86,-0.8 -1.46,0 -2.79,0.3 -3.79,0.79 -1.01,0.54 -2.39,0.89 -3.93,0.89 -1.52,0 -2.91,-0.32 -3.92,-0.85 -1.01,-0.52 -2.4,-0.83 -3.91,-0.83 -1.5,0 -2.86,0.31 -3.87,0.82 -1.01,0.55 -2.38,0.86 -3.92,0.86 l 0.02,2.42"
     id="path474"
     inkscape:connector-curvature="0"
     style="fill:#cccccc" />
  <path
     d="m 309.32,305.3825 c 1.54,0 2.89,-0.33 3.9,-0.87 1.01,-0.51 2.37,-0.82 3.87,-0.82 1.51,0 2.9,0.31 3.91,0.83 1,0.52 2.4,0.86 3.92,0.86 1.54,0 2.92,-0.37 3.93,-0.9 1,-0.5 2.33,-0.79 3.79,-0.79 1.52,0 2.85,0.29 3.86,0.81 1.01,0.53 2.42,0.88 3.95,0.88 v -2.4 c -1.53,0 -2.94,-0.36 -3.95,-0.9 -1.01,-0.51 -2.34,-0.8 -3.86,-0.8 -1.46,0 -2.79,0.3 -3.79,0.79 -1.01,0.54 -2.39,0.89 -3.93,0.89 -1.52,0 -2.91,-0.32 -3.92,-0.85 -1.01,-0.52 -2.4,-0.83 -3.91,-0.83 -1.5,0 -2.86,0.31 -3.87,0.82 -1.01,0.55 -2.38,0.86 -3.92,0.86 l 0.02,2.42"
     id="path476"
     inkscape:connector-curvature="0"
     style="fill:none;stroke:#000000;stroke-width:0.38999999" />
  <path
     d="m 309.32,307.7925 c 1.54,0 2.89,-0.33 3.9,-0.86 1.01,-0.52 2.37,-0.84 3.87,-0.84 1.51,0 2.9,0.32 3.91,0.84 1,0.52 2.4,0.86 3.92,0.86 1.54,0 2.92,-0.37 3.93,-0.9 1,-0.5 2.33,-0.8 3.79,-0.8 1.52,0 2.85,0.3 3.86,0.82 1.01,0.53 2.42,0.88 3.95,0.88 v -2.39 c -1.53,0 -2.94,-0.37 -3.95,-0.9 -1.01,-0.52 -2.34,-0.81 -3.86,-0.81 -1.46,0 -2.79,0.3 -3.79,0.79 -1.01,0.53 -2.39,0.9 -3.93,0.9 -1.52,0 -2.91,-0.34 -3.92,-0.86 -1.01,-0.52 -2.4,-0.83 -3.91,-0.83 -1.5,0 -2.86,0.31 -3.87,0.82 -1.01,0.54 -2.38,0.87 -3.92,0.87 l 0.02,2.41"
     id="path478"
     inkscape:connector-curvature="0"
     style="fill:#005bbf" />
  <path
     d="m 309.32,307.7925 c 1.54,0 2.89,-0.33 3.9,-0.86 1.01,-0.52 2.37,-0.84 3.87,-0.84 1.51,0 2.9,0.32 3.91,0.84 1,0.52 2.4,0.86 3.92,0.86 1.54,0 2.92,-0.37 3.93,-0.9 1,-0.5 2.33,-0.8 3.79,-0.8 1.52,0 2.85,0.3 3.86,0.82 1.01,0.53 2.42,0.88 3.95,0.88 v -2.39 c -1.53,0 -2.94,-0.37 -3.95,-0.9 -1.01,-0.52 -2.34,-0.81 -3.86,-0.81 -1.46,0 -2.79,0.3 -3.79,0.79 -1.01,0.53 -2.39,0.9 -3.93,0.9 -1.52,0 -2.91,-0.34 -3.92,-0.86 -1.01,-0.52 -2.4,-0.83 -3.91,-0.83 -1.5,0 -2.86,0.31 -3.87,0.82 -1.01,0.54 -2.38,0.87 -3.92,0.87 l 0.02,2.41 z"
     id="path480"
     inkscape:connector-curvature="0"
     style="fill:none;stroke:#000000;stroke-width:0.38999999" />
  <path
     d="m 333.66,285.8425 c -0.06,0.21 -0.13,0.4 -0.13,0.62 0,1.46 1.27,2.63 2.81,2.63 H 313.4 c 1.55,0 2.81,-1.17 2.81,-2.63 0,-0.21 -0.04,-0.41 -0.09,-0.62 0.12,0.05 0.28,0.06 0.44,0.06 h 16.68 c 0.14,0 0.3,-0.02 0.41,-0.06"
     id="path482"
     inkscape:connector-curvature="0"
     style="fill:#c8b100" />
  <path
     d="m 333.66,285.8425 c -0.06,0.21 -0.13,0.4 -0.13,0.62 0,1.46 1.27,2.63 2.81,2.63 H 313.4 c 1.55,0 2.81,-1.17 2.81,-2.63 0,-0.21 -0.04,-0.41 -0.09,-0.62 0.12,0.05 0.28,0.06 0.44,0.06 h 16.68 c 0.14,0 0.3,-0.02 0.41,-0.06 h 0.01 z"
     id="path484"
     inkscape:connector-curvature="0"
     style="fill:none;stroke:#000000;stroke-width:0.38999999;stroke-linejoin:round" />
  <path
     d="m 316.56,284.3325 h 16.69 c 0.56,0 1.02,0.35 1.02,0.78 0,0.43 -0.46,0.79 -1.02,0.79 h -16.69 c -0.57,0 -1.02,-0.36 -1.02,-0.79 0,-0.43 0.45,-0.78 1.02,-0.78"
     id="path486"
     inkscape:connector-curvature="0"
     style="fill:#c8b100" />
  <path
     d="m 316.56,284.3325 h 16.69 c 0.56,0 1.02,0.35 1.02,0.78 0,0.43 -0.46,0.79 -1.02,0.79 h -16.69 c -0.57,0 -1.02,-0.36 -1.02,-0.79 0,-0.43 0.45,-0.78 1.02,-0.78 z"
     id="path488"
     inkscape:connector-curvature="0"
     style="fill:none;stroke:#000000;stroke-width:0.38999999" />
  <path
     d="m 313.43,294.9225 h 22.88 v -5.83 h -22.88 v 5.83 z"
     id="path490"
     inkscape:connector-curvature="0"
     style="fill:#c8b100" />
  <path
     d="m 313.43,294.9225 h 22.88 v -5.83 h -22.88 v 5.83 z"
     id="path492"
     inkscape:connector-curvature="0"
     style="fill:none;stroke:#000000;stroke-width:0.38999999" />
  <path
     d="m 338.1,263.6825 c 2.26,1.3 3.8,2.64 3.55,3.31 -0.12,0.61 -0.84,1.07 -1.87,1.75 -1.62,1.13 -2.6,3.14 -1.83,4.07 -1.34,-1.08 -2.18,-2.69 -2.18,-4.49 0,-1.87 0.89,-3.56 2.33,-4.64"
     id="path494"
     inkscape:connector-curvature="0"
     style="fill:#ad1519" />
  <path
     d="m 338.1,263.6825 c 2.26,1.3 3.8,2.64 3.55,3.31 -0.12,0.61 -0.84,1.07 -1.87,1.75 -1.62,1.13 -2.6,3.14 -1.83,4.07 -1.34,-1.08 -2.18,-2.69 -2.18,-4.49 0,-1.87 0.89,-3.56 2.33,-4.64 z"
     id="path496"
     inkscape:connector-curvature="0"
     style="fill:none;stroke:#000000;stroke-width:0.38999999" />
  <path
     d="m 316.78,283.3825 h 16.25 v -79.63 h -16.25 v 79.63 z"
     id="path498"
     inkscape:connector-curvature="0"
     style="fill:#cccccc" />
  <path
     d="m 328.57,203.7225 v 79.46 m 1.83,-79.46 v 79.46"
     id="path500"
     inkscape:connector-curvature="0"
     style="fill:none;stroke:#000000;stroke-width:0.38999999" />
  <path
     d="m 316.78,283.3825 h 16.25 v -79.63 h -16.25 v 79.63 z"
     id="path502"
     inkscape:connector-curvature="0"
     style="fill:none;stroke:#000000;stroke-width:0.38999999" />
  <path
     d="m 300.17,233.5325 c 3.55,-1.46 9.58,-2.55 16.5,-2.78 2.39,0.02 5.04,0.25 7.79,0.7 9.72,1.63 17.12,5.51 16.54,8.67 -0.02,0.06 -0.04,0.2 -0.05,0.26 0,0 3.64,-8.21 3.7,-8.52 0.65,-3.51 -7.56,-7.82 -18.35,-9.62 -3.39,-0.57 -6.7,-0.79 -9.56,-0.76 -6.91,0 -12.91,0.89 -16.52,2.23 l -0.05,9.82"
     id="path504"
     inkscape:connector-curvature="0"
     style="fill:#ad1519" />
  <path
     d="m 300.17,233.5325 c 3.55,-1.46 9.58,-2.55 16.5,-2.78 2.39,0.02 5.04,0.25 7.79,0.7 9.72,1.63 17.12,5.51 16.54,8.67 -0.02,0.06 -0.04,0.2 -0.05,0.26 0,0 3.64,-8.21 3.7,-8.52 0.65,-3.51 -7.56,-7.82 -18.35,-9.62 -3.39,-0.57 -6.7,-0.79 -9.56,-0.76 -6.91,0 -12.91,0.89 -16.52,2.23 l -0.05,9.82"
     id="path506"
     inkscape:connector-curvature="0"
     style="fill:none;stroke:#000000;stroke-width:0.38999999;stroke-linejoin:round" />
  <path
     d="m 333.06,243.5325 c 4.51,-0.32 7.59,-1.53 7.94,-3.41 0.28,-1.5 -1.25,-3.17 -3.97,-4.68 -1.22,0.14 -2.59,0.3 -4,0.3 l 0.03,7.79"
     id="path508"
     inkscape:connector-curvature="0"
     style="fill:#ad1519" />
  <path
     d="m 333.06,243.5325 c 4.51,-0.32 7.59,-1.53 7.94,-3.41 0.28,-1.5 -1.25,-3.17 -3.97,-4.68 -1.22,0.14 -2.59,0.3 -4,0.3 l 0.03,7.79"
     id="path510"
     inkscape:connector-curvature="0"
     style="fill:none;stroke:#000000;stroke-width:0.38999999" />
  <path
     d="m 316.75,237.4425 c -2.82,0.43 -4.93,1.13 -5.99,1.99 l -0.09,0.17 c -0.51,1.03 1.97,3.22 6.1,5.67 l -0.02,-7.83"
     id="path512"
     inkscape:connector-curvature="0"
     style="fill:#ad1519" />
  <path
     d="m 316.75,237.4425 c -2.82,0.43 -4.93,1.13 -5.99,1.99 l -0.09,0.17 c -0.51,1.03 1.97,3.22 6.1,5.67 l -0.02,-7.83"
     id="path514"
     inkscape:connector-curvature="0"
     style="fill:none;stroke:#000000;stroke-width:0.38999999" />
  <path
     d="m 343.15,258.8925 c 0.43,-1.28 -3.96,-3.86 -10.17,-6.14 -2.84,-1.01 -5.19,-2.07 -8.09,-3.35 -8.63,-3.82 -15.01,-8.2 -14.22,-9.79 l 0.09,-0.17 c -0.46,0.38 -1.17,8.24 -1.17,8.24 -0.79,1.46 5.05,5.78 12.98,9.58 2.55,1.22 7.92,3.2 10.45,4.09 4.54,1.57 9.04,4.54 8.63,5.64 l 1.5,-8.09"
     id="path516"
     inkscape:connector-curvature="0"
     style="fill:#ad1519" />
  <path
     d="m 343.15,258.8925 c 0.43,-1.28 -3.96,-3.86 -10.17,-6.14 -2.84,-1.01 -5.19,-2.07 -8.09,-3.35 -8.63,-3.82 -15.01,-8.2 -14.22,-9.79 l 0.09,-0.17 c -0.46,0.38 -1.17,8.24 -1.17,8.24 -0.79,1.46 5.05,5.78 12.98,9.58 2.55,1.22 7.92,3.2 10.45,4.09 4.54,1.57 9.04,4.54 8.63,5.64 l 1.5,-8.09 v -0.01 z"
     id="path518"
     inkscape:connector-curvature="0"
     style="fill:none;stroke:#000000;stroke-width:0.38999999;stroke-linejoin:round" />
  <path
     d="m 310.3,230.0425 c 0.62,-2.33 1.41,-4.58 2.19,-6.87 -0.17,0.05 -0.35,0.09 -0.53,0.11 -0.17,0.03 -0.36,0.04 -0.54,0.05 -0.37,1.64 -0.88,3.29 -1.42,4.94 -0.96,-1.44 -2,-2.84 -2.83,-4.3 -0.34,0.07 -0.68,0.15 -1.02,0.2 -0.34,0.05 -0.69,0.07 -1.04,0.11 1.45,1.94 2.85,3.89 4.2,5.91 0.16,-0.04 0.32,-0.1 0.5,-0.12 0.16,-0.02 0.33,-0.02 0.49,-0.03"
     id="path520"
     inkscape:connector-curvature="0"
     style="fill:#c8b100" />
  <path
     d="m 316.48,223.2225 c -0.29,0.01 -0.59,0.04 -0.88,0.03 -0.3,0 -0.6,-0.04 -0.89,-0.06 l -0.12,6.41 4.49,0.08 c -0.03,-0.13 -0.06,-0.28 -0.06,-0.41 0,-0.13 0.04,-0.27 0.07,-0.4 -0.81,0.05 -1.68,0.1 -2.71,0.08 l 0.1,-5.73"
     id="path522"
     inkscape:connector-curvature="0"
     style="fill:#c8b100" />
  <path
     d="m 323.52,224.2725 c 0.72,0.06 1.41,0.19 2.1,0.31 -0.01,-0.13 -0.03,-0.27 -0.02,-0.41 0.01,-0.13 0.06,-0.26 0.1,-0.39 l -6.07,-0.5 c 0.01,0.14 0.03,0.27 0.02,0.4 -0.01,0.14 -0.06,0.27 -0.1,0.4 0.62,-0.02 1.37,-0.02 2.21,0.05 l -0.53,5.77 c 0.29,0 0.59,0 0.88,0.03 0.3,0.02 0.59,0.07 0.88,0.11 l 0.53,-5.77"
     id="path524"
     inkscape:connector-curvature="0"
     style="fill:#c8b100" />
  <path
     d="m 326.01,230.5925 c 0.29,0.05 0.59,0.09 0.88,0.15 0.28,0.06 0.57,0.15 0.85,0.23 l 0.72,-2.94 0.08,0.01 c 0.16,0.41 0.38,0.9 0.49,1.19 l 0.9,2.22 c 0.36,0.06 0.71,0.11 1.05,0.18 0.36,0.08 0.7,0.18 1.04,0.28 l -0.31,-0.67 c -0.48,-1 -0.99,-2.01 -1.41,-3.02 1.12,0.04 1.98,-0.36 2.2,-1.26 0.15,-0.62 -0.1,-1.11 -0.68,-1.53 -0.44,-0.31 -1.28,-0.47 -1.83,-0.6 l -2.44,-0.53 -1.54,6.29 m 3.14,-5.42 c 0.71,0.16 1.59,0.27 1.59,1.07 -0.01,0.21 -0.03,0.35 -0.06,0.48 -0.23,0.94 -0.94,1.26 -2.13,0.91 l 0.6,-2.46"
     id="path526"
     inkscape:connector-curvature="0"
     style="fill:#c8b100" />
  <path
     d="m 337.57,232.5225 c -0.05,0.69 -0.18,1.37 -0.31,2.1 0.3,0.14 0.61,0.27 0.9,0.44 0.3,0.16 0.57,0.34 0.86,0.52 l 0.6,-7.23 c -0.14,-0.06 -0.27,-0.12 -0.41,-0.19 -0.13,-0.07 -0.25,-0.15 -0.37,-0.24 l -6.38,4.05 c 0.17,0.08 0.35,0.16 0.51,0.25 0.17,0.09 0.31,0.19 0.47,0.28 0.54,-0.45 1.1,-0.82 1.74,-1.3 l 2.39,1.31 v 0.01 z m -1.81,-1.66 2.13,-1.37 -0.25,2.4 -1.88,-1.03"
     id="path528"
     inkscape:connector-curvature="0"
     style="fill:#c8b100" />
  <path
     d="m 250.49,309.3925 c -13.08,0 -26.05,-3.2 -36.95,-8.54 -8.03,-3.98 -13.36,-12 -13.36,-21.19 v -33.3 H 300.6 v 33.3 c 0,9.19 -5.32,17.21 -13.36,21.19 -10.9,5.34 -23.66,8.54 -36.75,8.54"
     id="path698"
     inkscape:connector-curvature="0"
     style="fill:#cccccc" />
  <path
     d="m 250.49,309.3925 c -13.08,0 -26.05,-3.2 -36.95,-8.54 -8.03,-3.98 -13.36,-12 -13.36,-21.19 v -33.3 H 300.6 v 33.3 c 0,9.19 -5.32,17.21 -13.36,21.19 -10.9,5.34 -23.66,8.54 -36.75,8.54 z"
     id="path700"
     inkscape:connector-curvature="0"
     style="fill:none;stroke:#000000;stroke-width:0.51999998" />
  <path
     d="m 250.32,279.6325 c 0,13.16 -11.16,23.82 -25.05,23.82 -13.89,0 -25.15,-10.66 -25.15,-23.82 v -33.35 h 50.2 v 33.35"
     id="path706"
     inkscape:connector-curvature="0"
     style="fill:#ad1519" />
  <path
     d="m 244.81,294.3025 c 2.45,-2.18 4.75,-7.12 5.59,-12.76 l 0.14,-36.44 h -5.87 l 0.14,49.2 z"
     id="path720"
     inkscape:connector-curvature="0"
     style="fill:#c8b100;stroke:#000000;stroke-width:0.51999998" />
  <path
     d="m 250.28,246.3125 h 50.32 v -55.72 h -50.32 v 55.72 z"
     id="path702"
     inkscape:connector-curvature="0"
     style="fill:#cccccc" />
  <path
     d="m 211.08,299.2925 c 1.57,0.83 3.72,2.22 6.03,2.77 l -0.15,-56.96 h -5.88 v 54.19 z"
     id="path708"
     inkscape:connector-curvature="0"
     style="fill:#c8b100;stroke:#000000;stroke-width:0.51999998" />
  <path
     d="m 200.03,279.1825 c 0.15,7.02 2.95,12.25 5.73,15.67 v -49.47 h -5.66 l -0.07,33.8 z"
     id="path710"
     inkscape:connector-curvature="0"
     style="fill:#c8b100;stroke:#000000;stroke-width:0.5;stroke-linejoin:round" />
  <path
     d="m 222.28,303.3125 c 2.3,0.23 4.01,0.19 5.87,0 v -58.21 h -5.87 v 58.21 z"
     id="path712"
     inkscape:connector-curvature="0"
     style="fill:#c7b500;stroke:#000000;stroke-width:0.51999998" />
  <path
     d="m 233.32,302.0625 c 2.3,-0.46 4.9,-1.89 6.03,-2.63 v -54.33 h -5.88 l -0.15,56.96 z"
     id="path714"
     inkscape:connector-curvature="0"
     style="fill:#c8b100;stroke:#000000;stroke-width:0.51999998" />
  <path
     d="m 200.12,246.3125 h 50.18 v -55.72 h -50.18 v 55.72 z"
     id="path716"
     inkscape:connector-curvature="0"
     style="fill:#ad1519" />
  <path
     d="m 200.12,246.3125 h 50.18 v -55.72 h -50.18 v 55.72 z"
     id="path718"
     inkscape:connector-curvature="0"
     style="fill:none;stroke:#000000;stroke-width:0.51999998" />
  <path
     d="m 250.32,279.6325 c 0,13.16 -11.16,23.82 -25.05,23.82 -13.89,0 -25.15,-10.66 -25.15,-23.82 v -33.35 h 50.2 v 33.35"
     id="path722"
     inkscape:connector-curvature="0"
     style="fill:none;stroke:#000000;stroke-width:0.51999998" />
  <path
     d="m 300.65,246.2825 v 33.35 c 0,13.16 -11.28,23.82 -25.17,23.82 -13.9,0 -25.16,-10.66 -25.16,-23.82 v -33.35 h 50.33"
     id="path724"
     inkscape:connector-curvature="0"
     style="fill:#ad1519" />
  <path
     d="m 300.65,246.2825 v 33.35 c 0,13.16 -11.28,23.82 -25.17,23.82 -13.9,0 -25.16,-10.66 -25.16,-23.82 v -33.35 h 50.33"
     id="path726"
     inkscape:connector-curvature="0"
     style="fill:none;stroke:#000000;stroke-width:0.51999998" />
  <path
     d="m 259.47,271.4525 c 0.08,0.17 0.13,0.34 0.13,0.52 0,0.61 -0.52,1.1 -1.17,1.1 -0.65,0 -1.17,-0.49 -1.17,-1.1 0,-0.18 0.04,-0.35 0.12,-0.5 l -1.63,-0.02 c -0.03,0.17 -0.05,0.34 -0.05,0.52 0,1.16 0.8,2.14 1.9,2.47 v 4.01 l 1.71,0.01 0.01,-4.04 c 0.79,-0.26 1.42,-0.86 1.69,-1.62 h 4.6 v -1.35 h -6.14 m 22.58,0 v 1.35 l -4.14,0.02 c -0.06,0.18 -0.16,0.34 -0.26,0.5 l 4.8,5.46 -1.29,1.05 -4.78,-5.47 c -0.09,0.03 -0.13,0.06 -0.22,0.09 l -0.02,9.03 h -1.69 l -0.01,-9.07 c -0.07,-0.02 -0.13,-0.05 -0.19,-0.09 l -4.98,5.51 -1.29,-1.05 4.97,-5.52 c -0.08,-0.14 -0.15,-0.29 -0.2,-0.46 h -4.28 v -1.35 h 13.59 -0.01 z m 2.76,0 v 1.35 h 4.61 c 0.27,0.76 0.89,1.36 1.69,1.62 v 4.04 l 1.71,-0.01 v -4.01 c 1.11,-0.33 1.91,-1.31 1.91,-2.47 0,-0.18 -0.02,-0.35 -0.06,-0.52 h -1.63 c 0.08,0.17 0.12,0.34 0.12,0.52 0,0.61 -0.52,1.1 -1.16,1.1 -0.65,0 -1.17,-0.49 -1.17,-1.1 0,-0.18 0.04,-0.35 0.12,-0.5 l -6.14,-0.02 m -6.96,23.04 c 1.35,-0.21 2.58,-0.58 3.81,-1.1 l 0.84,1.43 c -1.41,0.61 -2.93,1.04 -4.5,1.28 -0.27,1.17 -1.36,2.04 -2.67,2.04 -1.31,0 -2.4,-0.86 -2.67,-2.02 -1.67,-0.23 -3.25,-0.66 -4.73,-1.3 l 0.84,-1.43 c 1.29,0.55 2.66,0.91 4.08,1.11 0.31,-0.66 0.86,-1.16 1.58,-1.4 l 0.01,-7 h 1.7 l 0.01,6.98 c 0.75,0.22 1.38,0.74 1.7,1.41 z m -11.49,-2.35 -0.84,1.44 c -1.42,-0.89 -2.7,-1.99 -3.79,-3.22 -0.87,0.26 -1.86,0.11 -2.6,-0.5 -1.15,-0.93 -1.29,-2.56 -0.3,-3.64 l 0.14,-0.16 c -0.69,-1.56 -1.16,-3.24 -1.32,-5 l 1.71,0.01 c 0.14,1.5 0.51,2.93 1.09,4.27 0.49,-0.06 1,-0.01 1.46,0.16 l 4.28,-4.73 1.29,1.04 -4.25,4.73 c 0.57,0.87 0.55,2 -0.11,2.85 0.94,1.05 2.03,1.98 3.24,2.75 z m -6.34,-4.96 c 0.42,-0.47 1.16,-0.53 1.65,-0.13 0.49,0.4 0.55,1.1 0.13,1.56 -0.42,0.47 -1.16,0.53 -1.65,0.13 -0.49,-0.4 -0.55,-1.1 -0.13,-1.56 z m -2.16,-4.69 -1.76,-0.39 -0.25,-4.45 1.75,-0.58 v 2.56 c 0,0.99 0.09,1.92 0.26,2.86 z m 1.46,-5.52 1.75,0.41 c 0,0 0.09,2.87 0.05,2.22 -0.04,-0.74 0.19,2.24 0.19,2.24 l -1.76,0.58 c -0.18,-0.9 -0.24,-1.84 -0.24,-2.79 l 0.01,-2.66 z m 5.77,14.25 c 1.48,1.15 3.19,2.08 5.04,2.68 l 0.39,-1.7 c -1.52,-0.48 -2.93,-1.18 -4.17,-2.09 l -1.26,1.11 m -0.85,1.46 c 1.5,1.13 3.21,2.03 5.04,2.66 l -1.3,1.22 c -1.47,-0.54 -2.86,-1.26 -4.12,-2.11 l 0.38,-1.77 m 2.29,-9.81 1.67,0.71 3.06,-3.4 -1,-1.44 -3.73,4.13 m -1.3,-1.05 -1,-1.45 3.06,-3.4 1.67,0.72 -3.73,4.13 m 18.84,10.32 0.83,1.44 c 1.43,-0.89 2.71,-1.99 3.8,-3.22 0.87,0.26 1.85,0.11 2.59,-0.5 1.15,-0.93 1.28,-2.56 0.31,-3.64 l -0.15,-0.16 c 0.7,-1.56 1.17,-3.24 1.32,-5 l -1.7,0.01 c -0.14,1.5 -0.52,2.93 -1.1,4.27 -0.48,-0.06 -0.99,-0.01 -1.46,0.16 l -4.27,-4.73 -1.29,1.04 4.25,4.73 c -0.57,0.87 -0.55,2 0.1,2.85 -0.94,1.05 -2.02,1.98 -3.23,2.75 z m 6.34,-4.96 c -0.42,-0.47 -1.16,-0.53 -1.65,-0.13 -0.49,0.4 -0.55,1.1 -0.13,1.56 0.42,0.47 1.16,0.53 1.65,0.13 0.49,-0.4 0.55,-1.1 0.13,-1.56 z m 2.15,-4.69 1.76,-0.39 0.25,-4.45 -1.74,-0.58 -0.01,2.56 c 0,0.99 -0.08,1.92 -0.26,2.86 z m -1.45,-5.52 -1.75,0.41 c 0,0 -0.1,2.87 -0.06,2.22 0.05,-0.74 -0.19,2.24 -0.19,2.24 l 1.77,0.58 c 0.17,-0.9 0.23,-1.84 0.23,-2.79 v -2.66 m -5.78,14.25 c -1.47,1.15 -3.19,2.08 -5.04,2.68 l -0.39,-1.7 c 1.52,-0.48 2.94,-1.18 4.17,-2.09 l 1.26,1.11 m 0.85,1.46 c -1.5,1.13 -3.2,2.03 -5.04,2.66 l 1.31,1.22 c 1.47,-0.54 2.85,-1.26 4.12,-2.11 l -0.39,-1.77 m -2.28,-9.81 -1.68,0.71 -3.06,-3.4 1.01,-1.44 3.73,4.13 m 1.29,-1.05 1.01,-1.45 -3.06,-3.4 -1.67,0.72 3.72,4.13 m -20.94,-9.01 0.51,1.67 h 4.72 l 0.5,-1.67 h -5.73 m 22.02,0 -0.52,1.67 h -4.71 l -0.51,-1.67 h 5.74 m -12.11,22.75 c 0,-0.62 0.52,-1.12 1.17,-1.12 0.64,0 1.17,0.5 1.17,1.12 0,0.61 -0.53,1.1 -1.17,1.1 -0.65,0 -1.17,-0.49 -1.17,-1.1 z m 1.98,-8.08 1.76,-0.49 v -4.46 l -1.76,-0.48 v 5.43 m -1.7,0 -1.76,-0.49 v -4.46 l 1.76,-0.48 v 5.43"
     id="path728"
     inkscape:connector-curvature="0"
     style="fill:#c8b100" />
  <path
     d="m 255.75,271.4925 c 0.2,-0.93 0.93,-1.69 1.86,-1.97 l -0.01,-5.5 h 1.7 v 5.53 c 0.84,0.27 1.48,0.88 1.74,1.68 l 4.57,0.01 v 0.25 h -6.14 c -0.19,-0.34 -0.59,-0.59 -1.04,-0.59 -0.46,0 -0.85,0.25 -1.05,0.61 l -1.63,-0.02 m 12.71,0 v -0.25 h 4.25 c 0.05,-0.14 0.11,-0.28 0.19,-0.4 l -5.25,-5.85 1.29,-1.04 5.18,5.75 c 0.09,-0.05 0.18,-0.09 0.28,-0.12 v -7.66 h 1.69 v 7.61 c 0.08,0.03 0.19,0.05 0.27,0.07 l 5.06,-5.76 1.3,1.03 -5.08,5.73 c 0.13,0.2 0.22,0.41 0.29,0.64 h 4.12 v 0.25 h -13.59 z m 22.49,0 c 0.19,-0.34 0.59,-0.59 1.05,-0.59 0.45,0 0.85,0.25 1.04,0.61 l 1.63,-0.02 c -0.2,-0.93 -0.92,-1.69 -1.86,-1.97 l 0.01,-5.5 h -1.69 l -0.01,5.54 c -0.83,0.26 -1.48,0.87 -1.73,1.67 l -4.58,0.01 v 0.25 h 6.14 m -31.38,-15.54 6.31,7.07 1.29,-1.05 -6.34,-7.04 c 0.12,-0.19 0.21,-0.39 0.29,-0.62 h 4.61 v -1.61 h -4.61 c -0.36,-1.04 -1.39,-1.78 -2.61,-1.78 -1.51,0 -2.73,1.16 -2.73,2.59 0,1.13 0.76,2.1 1.84,2.45 l -0.01,5.45 h 1.69 v -5.42 c 0.07,-0.02 0.2,-0.02 0.27,-0.04 z m 33.27,0.03 -0.02,5.43 h -1.69 v -5.45 c -0.13,-0.04 -0.26,-0.09 -0.38,-0.15 l -6.27,7.07 -1.3,-1.03 6.39,-7.21 c -0.05,-0.1 -0.11,-0.21 -0.14,-0.33 h -4.64 v -1.61 h 4.62 c 0.36,-1.04 1.38,-1.78 2.6,-1.78 1.5,0 2.73,1.16 2.73,2.59 0,1.16 -0.79,2.14 -1.9,2.47 z m -16.73,-0.02 -0.01,3.34 h -1.7 l 0.01,-3.31 c -0.85,-0.25 -1.51,-0.87 -1.79,-1.68 h -4.13 v -1.61 h 4.13 c 0.36,-1.04 1.38,-1.78 2.59,-1.78 1.22,0 2.25,0.74 2.6,1.78 h 4.22 v 1.61 h -4.23 c -0.27,0.78 -0.88,1.39 -1.69,1.65 z m -18.49,4.06 -1.76,0.5 v 4.46 l 1.76,0.49 v -5.45 m 1.71,0 1.75,0.5 v 4.46 l -1.75,0.49 v -5.45 m 31.78,0 -1.75,0.5 v 4.46 l 1.75,0.49 v -5.45 m 1.71,0 1.76,0.5 v 4.46 l -1.76,0.49 v -5.45 m -26.61,0.88 1.67,-0.71 3.06,3.4 -1,1.45 -3.73,-4.14 m -1.3,1.06 -1,1.45 3.06,3.4 1.67,-0.72 -3.73,-4.13 m 19.22,-1.19 -1.68,-0.7 -3.03,3.43 1.02,1.44 3.69,-4.17 m 1.3,1.04 1.02,1.45 -3.03,3.42 -1.68,-0.7 3.69,-4.17 m -21.18,9.43 0.51,-1.67 h 4.72 l 0.5,1.67 h -5.73 m -6.91,-17.73 c 0,-0.61 0.52,-1.11 1.17,-1.11 0.64,0 1.17,0.5 1.17,1.11 0,0.61 -0.53,1.11 -1.17,1.11 -0.65,0 -1.17,-0.5 -1.17,-1.11 z m 12.6,0.81 -0.51,1.67 h -4.71 l -0.51,-1.67 h 5.73 m 0,-1.62 -0.51,-1.67 h -4.71 l -0.51,1.67 h 5.73 m 16.33,18.54 -0.52,-1.67 h -4.71 l -0.51,1.67 h 5.74 m 4.57,-17.73 c 0,-0.61 0.52,-1.11 1.17,-1.11 0.64,0 1.16,0.5 1.16,1.11 0,0.61 -0.52,1.11 -1.16,1.11 -0.65,0 -1.17,-0.5 -1.17,-1.11 z m -16.8,0 c 0,-0.61 0.53,-1.11 1.17,-1.11 0.65,0 1.17,0.5 1.17,1.11 0,0.61 -0.52,1.11 -1.17,1.11 -0.64,0 -1.17,-0.5 -1.17,-1.11 z m 6.53,0.81 0.52,1.67 h 4.71 l 0.51,-1.67 h -5.74 m 0,-1.62 0.52,-1.67 h 4.71 l 0.51,1.67 h -5.74 m -6.15,5.22 -1.76,0.49 v 4.47 l 1.76,0.48 v -5.44 m 1.69,0 1.75,0.49 v 4.47 l -1.75,0.48 v -5.44"
     id="path730"
     inkscape:connector-curvature="0"
     style="fill:#c8b100" />
  <path
     d="m 277.85,294.4925 c 1.35,-0.21 2.58,-0.58 3.81,-1.1 l 0.84,1.43 c -1.41,0.61 -2.93,1.04 -4.5,1.28 -0.27,1.17 -1.36,2.04 -2.67,2.04 -1.31,0 -2.4,-0.86 -2.67,-2.02 -1.67,-0.23 -3.25,-0.66 -4.73,-1.3 l 0.84,-1.43 c 1.29,0.55 2.66,0.91 4.08,1.11 0.31,-0.66 0.86,-1.16 1.58,-1.4 l 0.01,-7 h 1.7 l 0.01,6.98 c 0.75,0.22 1.38,0.74 1.7,1.41 z m -4.9,-21.23 c -0.09,-0.14 -0.15,-0.29 -0.21,-0.46 h -4.28 v -1.6 h 4.25 c 0.05,-0.14 0.12,-0.27 0.19,-0.4 l -5.25,-5.83 1.29,-1.05 5.18,5.74 c 0.09,-0.04 0.18,-0.08 0.28,-0.12 v -7.64 h 1.69 v 7.6 c 0.08,0.02 0.19,0.04 0.27,0.07 l 5.06,-5.75 1.3,1.03 -5.08,5.72 c 0.13,0.19 0.22,0.4 0.29,0.63 h 4.12 v 1.6 l -4.14,0.02 c -0.06,0.18 -0.17,0.34 -0.26,0.5 l 4.8,5.47 -1.29,1.04 -4.78,-5.47 c -0.09,0.03 -0.13,0.07 -0.23,0.09 l -0.01,9.04 h -1.7 v -9.08 c -0.07,-0.02 -0.13,-0.05 -0.2,-0.09 l -4.98,5.51 -1.29,-1.04 4.98,-5.53 m -13.38,-17.32 6.31,7.05 1.29,-1.04 -6.34,-7.03 c 0.12,-0.19 0.21,-0.39 0.29,-0.61 h 4.61 v -1.61 h -4.61 c -0.36,-1.04 -1.39,-1.78 -2.61,-1.78 -1.51,0 -2.73,1.15 -2.73,2.58 0,1.13 0.76,2.1 1.84,2.45 l -0.01,5.44 h 1.69 v -5.41 c 0.07,-0.02 0.2,-0.02 0.27,-0.04 z m 6.79,36.2 -0.84,1.44 c -1.42,-0.89 -2.7,-1.99 -3.79,-3.22 -0.87,0.26 -1.86,0.11 -2.6,-0.5 -1.15,-0.93 -1.29,-2.56 -0.3,-3.64 l 0.14,-0.16 c -0.69,-1.56 -1.16,-3.24 -1.32,-5 l 1.71,0.01 c 0.14,1.5 0.51,2.93 1.09,4.27 0.49,-0.06 1,-0.01 1.46,0.16 l 4.28,-4.73 1.29,1.04 -4.25,4.73 c 0.57,0.87 0.55,2 -0.11,2.85 0.94,1.05 2.03,1.98 3.24,2.75 z m -8.76,-13.69 v -4.01 c -1.1,-0.33 -1.91,-1.31 -1.91,-2.47 0,-1.15 0.82,-2.15 1.92,-2.48 l -0.01,-5.49 h 1.7 v 5.52 c 0.84,0.26 1.48,0.88 1.74,1.67 l 4.57,0.01 v 1.6 h -4.6 c -0.27,0.76 -0.9,1.36 -1.69,1.62 l -0.01,4.04 -1.71,-0.01 m 2.42,8.73 c 0.42,-0.47 1.16,-0.53 1.65,-0.13 0.49,0.4 0.55,1.1 0.13,1.56 -0.42,0.47 -1.16,0.53 -1.65,0.13 -0.49,-0.4 -0.55,-1.1 -0.13,-1.56 z m -2.16,-4.69 -1.76,-0.39 -0.25,-4.45 1.75,-0.58 v 2.56 c 0,0.99 0.09,1.92 0.26,2.86 z m 1.46,-5.52 1.75,0.41 c 0,0 0.09,2.87 0.05,2.22 -0.04,-0.74 0.19,2.24 0.19,2.24 l -1.76,0.58 c -0.18,-0.9 -0.24,-1.84 -0.24,-2.79 l 0.01,-2.66 z m 5.77,14.25 c 1.48,1.15 3.19,2.08 5.04,2.68 l 0.39,-1.7 c -1.52,-0.48 -2.93,-1.18 -4.17,-2.09 l -1.26,1.11 m -0.85,1.46 c 1.5,1.13 3.21,2.03 5.04,2.66 l -1.3,1.22 c -1.47,-0.54 -2.86,-1.26 -4.12,-2.11 l 0.38,-1.77"
     id="path732"
     inkscape:connector-curvature="0"
     style="fill:none;stroke:#c8b100;stroke-width:0.25999999" />
  <path
     d="m 266.53,282.8725 1.67,0.71 3.06,-3.4 -1,-1.44 -3.73,4.13 m -1.3,-1.05 -1,-1.45 3.06,-3.4 1.67,0.72 -3.73,4.13 m -7.97,-9.85 c 0,-0.61 0.52,-1.11 1.17,-1.11 0.64,0 1.16,0.5 1.16,1.11 0,0.61 -0.52,1.1 -1.16,1.1 -0.65,0 -1.17,-0.49 -1.17,-1.1 z m 26.81,20.17 0.83,1.44 c 1.43,-0.89 2.71,-1.99 3.8,-3.22 0.87,0.26 1.85,0.11 2.59,-0.5 1.15,-0.93 1.28,-2.56 0.31,-3.64 l -0.15,-0.16 c 0.7,-1.56 1.17,-3.24 1.32,-5 l -1.7,0.01 c -0.14,1.5 -0.52,2.93 -1.1,4.27 -0.48,-0.06 -0.99,-0.01 -1.46,0.16 l -4.27,-4.73 -1.29,1.04 4.25,4.73 c -0.57,0.87 -0.55,2 0.1,2.85 -0.94,1.05 -2.02,1.98 -3.23,2.75 z m 8.76,-13.69 -0.01,-4.01 c 1.11,-0.33 1.91,-1.31 1.91,-2.47 0,-1.15 -0.81,-2.15 -1.92,-2.48 l 0.01,-5.49 h -1.69 l -0.01,5.52 c -0.83,0.26 -1.48,0.88 -1.73,1.67 l -4.58,0.01 v 1.6 h 4.61 c 0.27,0.76 0.89,1.36 1.69,1.62 v 4.04 l 1.71,-0.01 h 0.01 z m -2.42,8.73 c -0.42,-0.47 -1.16,-0.53 -1.65,-0.13 -0.49,0.4 -0.55,1.1 -0.13,1.56 0.42,0.47 1.16,0.53 1.65,0.13 0.49,-0.4 0.55,-1.1 0.13,-1.56 z m 2.15,-4.69 1.76,-0.39 0.25,-4.45 -1.74,-0.58 -0.01,2.56 c 0,0.99 -0.08,1.92 -0.26,2.86 z m -1.45,-5.52 -1.75,0.41 c 0,0 -0.1,2.87 -0.06,2.22 0.05,-0.74 -0.19,2.24 -0.19,2.24 l 1.77,0.58 c 0.17,-0.9 0.23,-1.84 0.23,-2.79 v -2.66 m 1.73,-21 -0.02,5.42 h -1.69 v -5.44 c -0.13,-0.04 -0.26,-0.09 -0.38,-0.15 l -6.27,7.06 -1.3,-1.03 6.39,-7.2 c -0.05,-0.1 -0.11,-0.21 -0.14,-0.32 h -4.64 v -1.61 h 4.62 c 0.36,-1.04 1.38,-1.78 2.6,-1.78 1.5,0 2.73,1.15 2.73,2.58 0,1.16 -0.79,2.14 -1.9,2.47 z m -16.73,-0.02 -0.01,3.34 h -1.7 l 0.01,-3.31 c -0.85,-0.25 -1.51,-0.87 -1.79,-1.67 h -4.13 v -1.61 h 4.13 c 0.36,-1.04 1.38,-1.78 2.59,-1.78 1.22,0 2.25,0.74 2.6,1.78 h 4.22 v 1.61 h -4.23 c -0.27,0.77 -0.88,1.38 -1.69,1.64 z m 9.22,35.27 c -1.47,1.15 -3.19,2.08 -5.04,2.68 l -0.39,-1.7 c 1.52,-0.48 2.94,-1.18 4.17,-2.09 l 1.26,1.11 m 0.85,1.46 c -1.5,1.13 -3.2,2.03 -5.04,2.66 l 1.31,1.22 c 1.47,-0.54 2.85,-1.26 4.12,-2.11 l -0.39,-1.77 m -28.56,-32.68 -1.76,0.5 v 4.46 l 1.76,0.48 v -5.44 m 1.71,0 1.75,0.5 v 4.46 l -1.75,0.48 v -5.44 m 31.78,0 -1.75,0.5 v 4.46 l 1.75,0.48 v -5.44"
     id="path734"
     inkscape:connector-curvature="0"
     style="fill:none;stroke:#c8b100;stroke-width:0.25999999" />
  <path
     d="m 292.82,260.0025 1.76,0.5 v 4.46 l -1.76,0.48 v -5.44 m -8.92,22.87 -1.68,0.71 -3.06,-3.4 1.01,-1.44 3.73,4.13 m 1.29,-1.05 1.01,-1.45 -3.06,-3.4 -1.67,0.72 3.72,4.13 m -18.98,-20.94 1.67,-0.71 3.06,3.4 -1,1.45 -3.73,-4.14 m -1.3,1.05 -1,1.46 3.06,3.39 1.67,-0.72 -3.73,-4.13 m 19.22,-1.18 -1.68,-0.69 -3.03,3.42 1.02,1.43 3.69,-4.16 m 1.3,1.04 1.02,1.44 -3.03,3.42 -1.68,-0.7 3.69,-4.16 m -21.18,9.41 0.51,-1.67 h 4.72 l 0.5,1.67 h -5.73 m 0,1.61 0.51,1.67 h 4.72 l 0.5,-1.67 h -5.73 m -6.91,-19.31 c 0,-0.6 0.52,-1.1 1.17,-1.1 0.64,0 1.17,0.5 1.17,1.1 0,0.62 -0.53,1.11 -1.17,1.11 -0.65,0 -1.17,-0.49 -1.17,-1.11 z m 12.6,0.81 -0.51,1.67 h -4.71 l -0.51,-1.67 h 5.73 m 0,-1.61 -0.51,-1.67 h -4.71 l -0.51,1.67 h 5.73 m 20.89,19.27 c 0,-0.61 0.52,-1.11 1.17,-1.11 0.64,0 1.16,0.5 1.16,1.11 0,0.61 -0.52,1.1 -1.16,1.1 -0.65,0 -1.17,-0.49 -1.17,-1.1 z m -4.56,-0.77 -0.52,-1.67 h -4.71 l -0.51,1.67 h 5.74 m 0,1.61 -0.52,1.67 h -4.71 l -0.51,-1.67 h 5.74 m -12.11,22.75 c 0,-0.62 0.52,-1.12 1.17,-1.12 0.64,0 1.17,0.5 1.17,1.12 0,0.61 -0.53,1.1 -1.17,1.1 -0.65,0 -1.17,-0.49 -1.17,-1.1 z m 1.98,-8.08 1.76,-0.49 v -4.46 l -1.76,-0.48 v 5.43 m -1.7,0 -1.76,-0.49 v -4.46 l 1.76,-0.48 v 5.43 m 16.4,-33.98 c 0,-0.6 0.52,-1.1 1.17,-1.1 0.64,0 1.16,0.5 1.16,1.1 0,0.62 -0.52,1.11 -1.16,1.11 -0.65,0 -1.17,-0.49 -1.17,-1.11 z m -16.8,0 c 0,-0.6 0.53,-1.1 1.17,-1.1 0.65,0 1.17,0.5 1.17,1.1 0,0.62 -0.52,1.11 -1.17,1.11 -0.64,0 -1.17,-0.49 -1.17,-1.11 z m 6.53,0.81 0.52,1.67 h 4.71 l 0.51,-1.67 h -5.74 m 0,-1.61 0.52,-1.67 h 4.71 l 0.51,1.67 h -5.74"
     id="path736"
     inkscape:connector-curvature="0"
     style="fill:none;stroke:#c8b100;stroke-width:0.25999999" />
  <path
     d="m 274.42,257.9025 -1.76,0.5 v 4.46 l 1.76,0.48 v -5.44 m 1.69,0 1.75,0.5 v 4.46 l -1.75,0.48 v -5.44"
     id="path738"
     inkscape:connector-curvature="0"
     style="fill:none;stroke:#c8b100;stroke-width:0.25999999" />
  <path
     d="m 272.59,272.0025 c 0,-1.44 1.23,-2.6 2.74,-2.6 1.51,0 2.73,1.16 2.73,2.6 0,1.43 -1.22,2.58 -2.73,2.58 -1.51,0 -2.74,-1.15 -2.74,-2.58"
     id="path740"
     inkscape:connector-curvature="0"
     style="fill:#058e6e" />
  <path
     d="m 275.93,204.3225 0.05,-0.62 0.09,-0.34 c 0,0 -1.61,0.13 -2.46,-0.11 -0.85,-0.24 -1.61,-0.59 -2.4,-1.25 -0.79,-0.68 -1.1,-1.1 -1.67,-1.18 -1.36,-0.22 -2.4,0.4 -2.4,0.4 0,0 1.02,0.37 1.78,1.31 0.76,0.94 1.59,1.41 1.95,1.53 0.59,0.18 2.66,0.05 3.22,0.07 0.57,0.03 1.84,0.19 1.84,0.19"
     id="path742"
     inkscape:connector-curvature="0"
     style="fill:#db4446" />
  <path
     d="m 275.93,204.3225 0.05,-0.62 0.09,-0.34 c 0,0 -1.61,0.13 -2.46,-0.11 -0.85,-0.24 -1.61,-0.59 -2.4,-1.25 -0.79,-0.68 -1.1,-1.1 -1.67,-1.18 -1.36,-0.22 -2.4,0.4 -2.4,0.4 0,0 1.02,0.37 1.78,1.31 0.76,0.94 1.59,1.41 1.95,1.53 0.59,0.18 2.66,0.05 3.22,0.07 0.57,0.03 1.84,0.19 1.84,0.19 z"
     id="path744"
     inkscape:connector-curvature="0"
     style="fill:none;stroke:#000000;stroke-width:0.38999999" />
  <path
     d="m 283.46,202.0625 c 0,0 0.01,0.72 0.08,1.4 0.06,0.67 -0.22,1.24 -0.11,1.61 0.11,0.37 0.16,0.66 0.3,0.93 0.14,0.26 0.21,0.94 0.21,0.94 0,0 -0.38,-0.28 -0.74,-0.54 -0.35,-0.27 -0.6,-0.44 -0.6,-0.44 0,0 0.07,0.72 0.1,1.03 0.04,0.31 0.22,0.89 0.51,1.24 0.29,0.33 0.87,0.89 1.05,1.33 0.18,0.45 0.14,1.44 0.14,1.44 0,0 -0.46,-0.75 -0.87,-0.89 -0.39,-0.14 -1.26,-0.62 -1.26,-0.62 0,0 0.79,0.79 0.79,1.55 0,0.75 -0.32,1.6 -0.32,1.6 0,0 -0.36,-0.68 -0.83,-1.12 -0.47,-0.45 -1.13,-0.9 -1.13,-0.9 0,0 0.52,1.17 0.52,1.95 0,0.79 -0.15,2.47 -0.15,2.47 0,0 -0.39,-0.64 -0.79,-0.96 -0.4,-0.31 -0.87,-0.58 -1.02,-0.78 -0.14,-0.21 0.48,0.64 0.54,1.16 0.07,0.51 0.32,2.35 1.92,4.69 0.94,1.37 2.39,3.77 5.5,2.98 3.11,-0.78 1.96,-4.97 1.3,-6.92 -0.65,-1.95 -0.98,-4.11 -0.94,-4.87 0.04,-0.75 0.58,-2.97 0.51,-3.39 -0.07,-0.41 -0.24,-2 0.14,-3.28 0.4,-1.33 0.73,-1.85 0.95,-2.4 0.21,-0.55 0.39,-0.86 0.46,-1.34 0.07,-0.48 0.07,-1.37 0.07,-1.37 0,0 0.58,1.06 0.73,1.44 0.14,0.38 0.14,1.5 0.14,1.5 0,0 0.11,-1.12 0.98,-1.67 0.87,-0.55 1.88,-1.13 2.13,-1.44 0.25,-0.31 0.33,-0.51 0.33,-0.51 0,0 -0.08,1.92 -0.62,2.67 -0.36,0.49 -1.77,2.09 -1.77,2.09 0,0 0.73,-0.28 1.23,-0.3 0.51,-0.04 0.87,0 0.87,0 0,0 -0.62,0.48 -1.41,1.64 -0.8,1.16 -0.47,1.26 -1.05,2.22 -0.58,0.96 -1.05,1 -1.78,1.58 -1.08,0.87 -0.5,4.34 -0.36,4.86 0.15,0.51 2.03,4.76 2.07,5.79 0.03,1.03 0.21,3.33 -1.6,4.8 -1.16,0.95 -3.07,0.96 -3.51,1.23 -0.43,0.28 -1.29,1.13 -1.29,2.91 0,1.79 0.64,2.06 1.15,2.51 0.51,0.44 1.16,0.2 1.3,0.55 0.15,0.34 0.22,0.54 0.44,0.75 0.21,0.2 0.36,0.44 0.29,0.82 -0.08,0.38 -0.91,1.23 -1.2,1.85 -0.29,0.61 -0.87,2.23 -0.87,2.47 0,0.24 -0.07,0.99 0.18,1.37 0,0 0.91,1.06 0.29,1.26 -0.4,0.14 -0.78,-0.25 -0.97,-0.2 -0.54,0.14 -0.83,0.47 -0.98,0.45 -0.36,-0.07 -0.36,-0.25 -0.4,-0.76 -0.03,-0.51 -0.01,-0.72 -0.17,-0.72 -0.22,0 -0.33,0.18 -0.37,0.45 -0.04,0.27 -0.04,0.89 -0.29,0.89 -0.25,0 -0.61,-0.45 -0.83,-0.55 -0.22,-0.1 -0.83,-0.2 -0.87,-0.48 -0.03,-0.27 0.36,-0.85 0.76,-0.96 0.4,-0.1 0.76,-0.3 0.51,-0.51 -0.26,-0.2 -0.51,-0.2 -0.76,0 -0.25,0.21 -0.79,0.04 -0.76,-0.27 0.04,-0.31 0.11,-0.69 0.07,-0.86 -0.03,-0.17 -0.47,-0.51 0.1,-0.82 0.59,-0.31 0.84,0.27 1.42,0.17 0.58,-0.1 0.86,-0.31 1.08,-0.65 0.22,-0.34 0.18,-1.06 -0.22,-1.5 -0.39,-0.45 -0.79,-0.52 -0.94,-0.8 -0.14,-0.27 -0.36,-0.92 -0.36,-0.92 0,0 0.11,1.2 0.04,1.37 -0.07,0.17 -0.04,0.89 -0.04,0.89 0,0 -0.39,-0.45 -0.72,-0.79 -0.32,-0.34 -0.65,-1.37 -0.65,-1.37 0,0 -0.03,0.96 -0.03,1.34 0,0.37 0.43,0.72 0.29,0.86 -0.15,0.13 -0.83,-0.72 -1.02,-0.86 -0.18,-0.14 -0.76,-0.58 -1.01,-1.06 -0.25,-0.48 -0.44,-1.16 -0.51,-1.41 -0.07,-0.24 -0.19,-1.31 -0.07,-1.58 0.18,-0.4 0.47,-1.13 0.47,-1.13 h -1.41 c -0.76,0 -1.3,-0.23 -1.59,0.28 -0.29,0.51 -0.15,1.54 0.21,2.88 0.37,1.33 0.58,1.98 0.48,2.22 -0.11,0.24 -0.58,0.79 -0.76,0.89 -0.19,0.11 -0.69,0.07 -0.91,-0.03 -0.21,-0.1 -0.57,-0.27 -1.26,-0.27 -0.69,0 -1.12,0.03 -1.37,-0.03 -0.26,-0.07 -0.88,-0.38 -1.17,-0.31 -0.29,0.07 -0.79,0.32 -0.65,0.72 0.22,0.61 -0.21,0.75 -0.51,0.72 -0.29,-0.04 -0.53,-0.14 -0.9,-0.24 -0.36,-0.11 -0.9,0 -0.83,-0.42 0.07,-0.41 0.22,-0.44 0.4,-0.74 0.18,-0.32 0.25,-0.52 0.04,-0.54 -0.25,-0.02 -0.51,-0.05 -0.7,0.11 -0.2,0.16 -0.51,0.51 -0.76,0.38 -0.26,-0.14 -0.46,-0.43 -0.46,-1.08 0,-0.64 -0.68,-1.2 -0.05,-1.17 0.62,0.03 1.41,0.48 1.55,0.13 0.14,-0.35 0.06,-0.51 -0.28,-0.78 -0.34,-0.27 -0.76,-0.43 -0.31,-0.77 0.45,-0.35 0.56,-0.35 0.74,-0.54 0.17,-0.18 0.41,-0.79 0.73,-0.64 0.62,0.3 0.02,0.73 0.65,1.42 0.62,0.69 1.01,0.94 2.06,0.83 1.04,-0.11 1.33,-0.24 1.33,-0.54 0,-0.29 -0.09,-0.82 -0.12,-1.04 -0.02,-0.21 0.15,-0.99 0.15,-0.99 0,0 -0.48,0.3 -0.63,0.59 -0.13,0.29 -0.42,0.8 -0.42,0.8 0,0 -0.11,-0.6 -0.08,-1.09 0.02,-0.29 0.12,-0.79 0.11,-0.89 -0.03,-0.27 -0.23,-0.94 -0.23,-0.94 0,0 -0.16,0.73 -0.28,0.94 -0.11,0.21 -0.16,1.07 -0.16,1.07 0,0 -0.67,-0.58 -0.48,-1.55 0.13,-0.75 -0.12,-1.74 0.11,-2.06 0.22,-0.33 0.75,-1.64 2.06,-1.69 1.3,-0.05 2.31,0.05 2.77,0.03 0.45,-0.03 2.06,-0.33 2.06,-0.33 0,0 -2.97,-1.52 -3.64,-1.98 -0.68,-0.45 -1.73,-1.63 -2.07,-2.16 -0.34,-0.54 -0.65,-1.58 -0.65,-1.58 0,0 -0.53,0.02 -1.02,0.29 -0.48,0.27 -0.96,0.67 -1.24,0.99 -0.28,0.32 -0.73,1.05 -0.73,1.05 0,0 0.08,-0.94 0.08,-1.23 0,-0.29 -0.06,-0.86 -0.06,-0.86 0,0 -0.33,1.28 -1.01,1.76 -0.68,0.49 -1.47,1.15 -1.47,1.15 0,0 0.08,-0.71 0.08,-0.88 0,-0.16 0.17,-0.99 0.17,-0.99 0,0 -0.48,0.72 -1.21,0.86 -0.74,0.13 -1.81,0.11 -1.9,0.56 -0.08,0.45 0.2,1.07 0.03,1.39 -0.17,0.32 -0.54,0.54 -0.54,0.54 0,0 -0.42,-0.35 -0.79,-0.38 -0.36,-0.03 -0.71,0.16 -0.71,0.16 0,0 -0.31,-0.4 -0.19,-0.67 0.11,-0.26 0.67,-0.66 0.54,-0.83 -0.15,-0.16 -0.6,0.06 -0.88,0.19 -0.28,0.14 -0.88,0.27 -0.82,-0.19 0.05,-0.45 0.2,-0.72 0.05,-1.04 -0.14,-0.32 -0.05,-0.53 0.18,-0.61 0.22,-0.08 1.12,0.02 1.21,-0.19 0.08,-0.21 -0.22,-0.48 -0.82,-0.61 -0.59,-0.14 -0.88,-0.49 -0.57,-0.78 0.32,-0.3 0.4,-0.38 0.54,-0.64 0.14,-0.27 0.2,-0.76 0.74,-0.51 0.53,0.24 0.42,0.83 0.99,1.01 0.56,0.19 1.89,-0.08 2.17,-0.24 0.28,-0.16 1.19,-0.83 1.5,-0.99 0.31,-0.15 1.61,-1.12 1.61,-1.12 0,0 -0.76,-0.53 -1.05,-0.8 -0.28,-0.27 -0.78,-0.91 -1.04,-1.05 -0.25,-0.13 -1.5,-0.61 -1.92,-0.64 -0.42,-0.02 -1.72,-0.48 -1.72,-0.48 0,0 0.59,-0.19 0.79,-0.35 0.19,-0.16 0.64,-0.56 0.87,-0.53 0.22,0.02 0.28,0.02 0.28,0.02 0,0 -1.21,-0.05 -1.47,-0.13 -0.25,-0.08 -0.99,-0.54 -1.27,-0.54 -0.28,0 -0.84,0.11 -0.84,0.11 0,0 0.76,-0.48 1.38,-0.59 0.62,-0.1 1.1,-0.08 1.1,-0.08 0,0 -0.96,-0.27 -1.19,-0.58 -0.22,-0.33 -0.45,-0.8 -0.62,-1.02 -0.17,-0.21 -0.28,-0.56 -0.59,-0.59 -0.31,-0.03 -0.85,0.38 -1.16,0.35 -0.31,-0.03 -0.54,-0.22 -0.57,-0.67 -0.02,-0.46 0,-0.3 -0.1,-0.54 -0.12,-0.24 -0.57,-0.8 -0.15,-0.93 0.43,-0.14 1.33,0.08 1.42,-0.08 0.08,-0.16 -0.48,-0.65 -0.85,-0.83 -0.37,-0.19 -0.96,-0.51 -0.65,-0.78 0.31,-0.26 0.62,-0.37 0.79,-0.61 0.17,-0.24 0.37,-0.91 0.74,-0.7 0.36,0.21 0.87,1.26 1.16,1.18 0.28,-0.08 0.3,-0.83 0.25,-1.15 -0.06,-0.32 0,-0.88 0.28,-0.83 0.28,0.05 0.51,0.43 0.96,0.46 0.45,0.02 1.13,-0.11 1.07,0.21 -0.05,0.32 -0.31,0.71 -0.62,1.06 -0.3,0.36 -0.45,1.05 -0.25,1.5 0.2,0.46 0.71,1.19 1.16,1.48 0.45,0.29 1.3,0.51 1.84,0.85 0.53,0.35 1.78,1.34 2.2,1.45 0.42,0.11 0.85,0.32 0.85,0.32 0,0 0.48,-0.21 1.13,-0.21 0.65,0 2.14,0.1 2.71,-0.14 0.57,-0.24 1.3,-0.64 1.08,-1.15 -0.23,-0.51 -1.47,-0.96 -1.36,-1.36 0.11,-0.4 0.57,-0.43 1.33,-0.46 0.76,-0.02 1.8,0.14 2,-0.94 0.2,-1.06 0.26,-1.68 -0.81,-1.92 -1.08,-0.24 -1.87,-0.27 -2.07,-1.04 -0.2,-0.78 -0.39,-0.97 -0.17,-1.18 0.23,-0.21 0.62,-0.32 1.41,-0.37 0.8,-0.06 1.7,-0.06 1.96,-0.25 0.25,-0.18 0.3,-0.69 0.61,-0.91 0.31,-0.21 1.53,-0.4 1.53,-0.4 0,0 1.46,0.71 2.8,1.71 1.21,0.9 2.3,2.23 2.3,2.23"
     id="path746"
     inkscape:connector-curvature="0"
     style="fill:#ed72aa;stroke:#000000;stroke-width:0.38999999" />
  <path
     d="m 273.05,201.3025 c 0,0 -0.17,-0.48 -0.2,-0.62 -0.03,-0.13 -0.12,-0.29 -0.12,-0.29 0,0 0.88,0 0.85,0.27 -0.02,0.27 -0.28,0.27 -0.34,0.37 -0.05,0.11 -0.19,0.27 -0.19,0.27"
     id="path748"
     inkscape:connector-curvature="0" />
  <path
     d="m 273.05,201.3025 c 0,0 -0.17,-0.48 -0.2,-0.62 -0.03,-0.13 -0.12,-0.29 -0.12,-0.29 0,0 0.88,0 0.85,0.27 -0.02,0.27 -0.28,0.27 -0.34,0.37 -0.05,0.11 -0.19,0.27 -0.19,0.27 z"
     id="path750"
     inkscape:connector-curvature="0"
     style="fill:none;stroke:#000000;stroke-width:0.25999999" />
  <path
     d="m 277.06,199.9125 -0.06,-0.43 c 0,0 0.77,0 1.13,0.26 0.57,0.4 0.93,1.02 0.91,1.05 -0.1,0.09 -0.54,-0.27 -0.85,-0.37 0,0 -0.23,0.05 -0.45,0.05 -0.23,0 -0.34,-0.11 -0.37,-0.21 -0.03,-0.12 0.03,-0.3 0.03,-0.3 l -0.34,-0.05"
     id="path752"
     inkscape:connector-curvature="0" />
  <path
     d="m 277.06,199.9125 -0.06,-0.43 c 0,0 0.77,0 1.13,0.26 0.57,0.4 0.93,1.02 0.91,1.05 -0.1,0.09 -0.54,-0.27 -0.85,-0.37 0,0 -0.23,0.05 -0.45,0.05 -0.23,0 -0.34,-0.11 -0.37,-0.21 -0.03,-0.12 0.03,-0.3 0.03,-0.3 l -0.34,-0.05 z"
     id="path754"
     inkscape:connector-curvature="0"
     style="fill:none;stroke:#000000;stroke-width:0.05" />
  <path
     d="m 282.57,205.9625 c 0,0 -0.34,-0.48 -0.42,-0.65 -0.09,-0.15 -0.23,-0.48 -0.23,-0.48"
     id="path756"
     inkscape:connector-curvature="0"
     style="fill:none;stroke:#000000;stroke-width:0.25999999" />
  <path
     d="m 261.88,201.1425 c 0,0 0.48,0.34 0.85,0.4 0.37,0.05 0.76,0.05 0.82,0.05 0.05,0 0.17,-0.54 0.11,-0.91 -0.2,-1.2 -1.3,-1.47 -1.3,-1.47 0,0 0.33,0.73 0.17,1.07 -0.23,0.48 -0.65,0.86 -0.65,0.86"
     id="path758"
     inkscape:connector-curvature="0"
     style="fill:#db4446" />
  <path
     d="m 261.88,201.1425 c 0,0 0.48,0.34 0.85,0.4 0.37,0.05 0.76,0.05 0.82,0.05 0.05,0 0.17,-0.54 0.11,-0.91 -0.2,-1.2 -1.3,-1.47 -1.3,-1.47 0,0 0.33,0.73 0.17,1.07 -0.23,0.48 -0.65,0.86 -0.65,0.86 z"
     id="path760"
     inkscape:connector-curvature="0"
     style="fill:none;stroke:#000000;stroke-width:0.38999999" />
  <path
     d="m 259.59,202.1825 c 0,0 -0.43,-0.77 -1.33,-0.67 -0.9,0.11 -1.5,0.81 -1.5,0.81 0,0 1,-0.03 1.25,0.13 0.37,0.24 0.48,0.86 0.48,0.86 0,0 0.54,-0.32 0.71,-0.54 0.16,-0.21 0.39,-0.59 0.39,-0.59"
     id="path762"
     inkscape:connector-curvature="0"
     style="fill:#db4446" />
  <path
     d="m 259.59,202.1825 c 0,0 -0.43,-0.77 -1.33,-0.67 -0.9,0.11 -1.5,0.81 -1.5,0.81 0,0 1,-0.03 1.25,0.13 0.37,0.24 0.48,0.86 0.48,0.86 0,0 0.54,-0.32 0.71,-0.54 0.16,-0.21 0.39,-0.59 0.39,-0.59 z"
     id="path764"
     inkscape:connector-curvature="0"
     style="fill:none;stroke:#000000;stroke-width:0.38999999" />
  <path
     d="m 258.49,205.3125 c 0,0 -0.77,0.11 -1.19,0.59 -0.43,0.49 -0.36,1.4 -0.36,1.4 0,0 0.5,-0.54 0.95,-0.54 0.46,0 1.16,0.16 1.16,0.16 0,0 -0.22,-0.56 -0.22,-0.8 0,-0.24 -0.34,-0.81 -0.34,-0.81"
     id="path766"
     inkscape:connector-curvature="0"
     style="fill:#db4446" />
  <path
     d="m 258.49,205.3125 c 0,0 -0.77,0.11 -1.19,0.59 -0.43,0.49 -0.36,1.4 -0.36,1.4 0,0 0.5,-0.54 0.95,-0.54 0.46,0 1.16,0.16 1.16,0.16 0,0 -0.22,-0.56 -0.22,-0.8 0,-0.24 -0.34,-0.81 -0.34,-0.81 z"
     id="path768"
     inkscape:connector-curvature="0"
     style="fill:none;stroke:#000000;stroke-width:0.38999999" />
  <path
     d="m 273.08,205.2025 0.33,-0.53 0.34,0.49 -0.67,0.04"
     id="path770"
     inkscape:connector-curvature="0" />
  <path
     d="m 273.08,205.2025 0.33,-0.53 0.34,0.49 -0.67,0.04"
     id="path772"
     inkscape:connector-curvature="0"
     style="fill:none;stroke:#000000;stroke-width:0.25999999" />
  <path
     d="m 273.89,205.1825 0.4,-0.53 0.43,0.48 -0.83,0.05"
     id="path774"
     inkscape:connector-curvature="0" />
  <path
     d="m 273.89,205.1825 0.4,-0.53 0.43,0.48 -0.83,0.05"
     id="path776"
     inkscape:connector-curvature="0"
     style="fill:none;stroke:#000000;stroke-width:0.25999999" />
  <path
     d="m 273.53,201.8925 0.82,0.29 -0.74,0.38 -0.08,-0.67"
     id="path778"
     inkscape:connector-curvature="0" />
  <path
     d="m 273.53,201.8925 0.82,0.29 -0.74,0.38 -0.08,-0.67"
     id="path780"
     inkscape:connector-curvature="0"
     style="fill:none;stroke:#000000;stroke-width:0.25999999" />
  <path
     d="m 274.52,202.1625 0.73,0.18 -0.59,0.46 -0.14,-0.64"
     id="path782"
     inkscape:connector-curvature="0" />
  <path
     d="m 274.52,202.1625 0.73,0.18 -0.59,0.46 -0.14,-0.64"
     id="path784"
     inkscape:connector-curvature="0"
     style="fill:none;stroke:#000000;stroke-width:0.25999999" />
  <path
     d="m 269,208.4525 c 0,0 -0.8,0.23 -1.1,0.67 -0.37,0.53 -0.34,1.07 -0.34,1.07 0,0 0.68,-0.56 1.56,-0.33 0.87,0.24 0.96,0.33 1.33,0.3 0.37,-0.03 1.27,-0.35 1.27,-0.35 0,0 -0.74,0.86 -0.65,1.45 0.08,0.58 0.19,0.85 0.17,1.15 -0.06,0.72 -0.6,1.61 -0.6,1.61 0,0 0.31,-0.19 1.05,-0.35 0.73,-0.16 1.36,-0.51 1.75,-0.81 0.39,-0.29 0.9,-1.02 0.9,-1.02 0,0 -0.16,1 0,1.42 0.17,0.44 0.23,1.67 0.23,1.67 0,0 0.47,-0.42 0.85,-0.62 0.19,-0.11 0.7,-0.38 0.9,-0.7 0.14,-0.22 0.32,-1.06 0.32,-1.06 0,0 0.11,0.9 0.39,1.34 0.28,0.42 0.7,1.74 0.7,1.74 0,0 0.29,-0.86 0.6,-1.21 0.31,-0.35 0.68,-0.8 0.7,-1.07 0.03,-0.27 -0.08,-0.85 -0.08,-0.85 l 0.39,0.85 m -11.41,0.61 c 0,0 0.48,-0.83 0.93,-1.1 0.46,-0.26 1.08,-0.74 1.25,-0.8 0.16,-0.05 0.9,-0.46 0.9,-0.46 m 0.99,5.17 c 0,0 1.09,-0.55 1.41,-0.75 0.68,-0.4 1.16,-1.12 1.16,-1.12"
     id="path786"
     inkscape:connector-curvature="0"
     style="fill:none;stroke:#000000;stroke-width:0.38999999" />
  <path
     d="m 261.06,215.4325 c 0,0 -0.42,-0.45 -1.16,-0.32 -0.74,0.14 -1.22,0.97 -1.22,0.97 0,0 0.63,-0.17 1,-0.08 0.36,0.08 0.62,0.45 0.62,0.45 0,0 0.34,-0.29 0.45,-0.45 0.11,-0.16 0.31,-0.57 0.31,-0.57"
     id="path788"
     inkscape:connector-curvature="0"
     style="fill:#db4446" />
  <path
     d="m 261.06,215.4325 c 0,0 -0.42,-0.45 -1.16,-0.32 -0.74,0.14 -1.22,0.97 -1.22,0.97 0,0 0.63,-0.17 1,-0.08 0.36,0.08 0.62,0.45 0.62,0.45 0,0 0.34,-0.29 0.45,-0.45 0.11,-0.16 0.31,-0.57 0.31,-0.57 z"
     id="path790"
     inkscape:connector-curvature="0"
     style="fill:none;stroke:#000000;stroke-width:0.38999999" />
  <path
     d="m 260.21,218.4025 c 0,0 -0.62,-0.1 -1.16,0.33 -0.53,0.43 -0.56,1.25 -0.56,1.25 0,0 0.51,-0.43 0.91,-0.37 0.39,0.05 0.87,0.27 0.87,0.27 0,0 0.08,-0.51 0.11,-0.64 0.09,-0.38 -0.17,-0.84 -0.17,-0.84"
     id="path792"
     inkscape:connector-curvature="0"
     style="fill:#db4446" />
  <path
     d="m 260.21,218.4025 c 0,0 -0.62,-0.1 -1.16,0.33 -0.53,0.43 -0.56,1.25 -0.56,1.25 0,0 0.51,-0.43 0.91,-0.37 0.39,0.05 0.87,0.27 0.87,0.27 0,0 0.08,-0.51 0.11,-0.64 0.09,-0.38 -0.17,-0.84 -0.17,-0.84 z"
     id="path794"
     inkscape:connector-curvature="0"
     style="fill:none;stroke:#000000;stroke-width:0.38999999" />
  <path
     d="m 261.66,221.1425 c 0,0 -0.05,0.79 0.33,1.28 0.4,0.51 1.13,0.59 1.13,0.59 0,0 -0.24,-0.53 -0.28,-0.8 -0.06,-0.4 0.34,-0.75 0.34,-0.75 0,0 -0.37,-0.38 -0.73,-0.38 -0.37,0 -0.79,0.06 -0.79,0.06"
     id="path796"
     inkscape:connector-curvature="0"
     style="fill:#db4446" />
  <path
     d="m 261.66,221.1425 c 0,0 -0.05,0.79 0.33,1.28 0.4,0.51 1.13,0.59 1.13,0.59 0,0 -0.24,-0.53 -0.28,-0.8 -0.06,-0.4 0.34,-0.75 0.34,-0.75 0,0 -0.37,-0.38 -0.73,-0.38 -0.37,0 -0.79,0.06 -0.79,0.06 z"
     id="path798"
     inkscape:connector-curvature="0"
     style="fill:none;stroke:#000000;stroke-width:0.38999999" />
  <path
     d="m 278.33,222.4725 c 0,0 2.04,1.26 1.98,2.31 -0.06,1.04 -1.13,2.41 -1.13,2.41"
     id="path800"
     inkscape:connector-curvature="0"
     style="fill:none;stroke:#000000;stroke-width:0.38999999" />
  <path
     d="m 269,228.1825 c 0,0 -0.51,-0.64 -1.21,-0.62 -0.71,0.03 -1.45,0.69 -1.45,0.69 0,0 0.88,-0.07 1.11,0.22 0.23,0.3 0.45,0.67 0.45,0.67 0,0 0.4,-0.21 0.57,-0.35 0.17,-0.13 0.53,-0.61 0.53,-0.61"
     id="path802"
     inkscape:connector-curvature="0"
     style="fill:#db4446" />
  <path
     d="m 269,228.1825 c 0,0 -0.51,-0.64 -1.21,-0.62 -0.71,0.03 -1.45,0.69 -1.45,0.69 0,0 0.88,-0.07 1.11,0.22 0.23,0.3 0.45,0.67 0.45,0.67 0,0 0.4,-0.21 0.57,-0.35 0.17,-0.13 0.53,-0.61 0.53,-0.61 z"
     id="path804"
     inkscape:connector-curvature="0"
     style="fill:none;stroke:#000000;stroke-width:0.38999999" />
  <path
     d="m 266.83,230.9925 c 0,0 -0.93,-0.14 -1.39,0.35 -0.45,0.48 -0.42,1.36 -0.42,1.36 0,0 0.56,-0.61 1.07,-0.56 0.51,0.05 1.08,0.32 1.08,0.32 0,0 -0.09,-0.53 -0.15,-0.78 -0.05,-0.24 -0.19,-0.69 -0.19,-0.69"
     id="path806"
     inkscape:connector-curvature="0"
     style="fill:#db4446" />
  <path
     d="m 266.83,230.9925 c 0,0 -0.93,-0.14 -1.39,0.35 -0.45,0.48 -0.42,1.36 -0.42,1.36 0,0 0.56,-0.61 1.07,-0.56 0.51,0.05 1.08,0.32 1.08,0.32 0,0 -0.09,-0.53 -0.15,-0.78 -0.05,-0.24 -0.19,-0.69 -0.19,-0.69 z"
     id="path808"
     inkscape:connector-curvature="0"
     style="fill:none;stroke:#000000;stroke-width:0.38999999" />
  <path
     d="m 268.84,233.9625 c 0,0 -0.46,0.64 -0.12,1.15 0.34,0.51 1.05,0.75 1.05,0.75 0,0 -0.26,-0.37 -0.14,-0.8 0.09,-0.34 0.67,-0.8 0.67,-0.8 l -1.46,-0.3"
     id="path810"
     inkscape:connector-curvature="0"
     style="fill:#db4446" />
  <path
     d="m 268.84,233.9625 c 0,0 -0.46,0.64 -0.12,1.15 0.34,0.51 1.05,0.75 1.05,0.75 0,0 -0.26,-0.37 -0.14,-0.8 0.09,-0.34 0.67,-0.8 0.67,-0.8 l -1.46,-0.3 z"
     id="path812"
     inkscape:connector-curvature="0"
     style="fill:none;stroke:#000000;stroke-width:0.38999999" />
  <path
     d="m 281.24,235.1725 c 0,0 -0.81,-0.19 -1.27,0.08 -0.45,0.26 -0.82,1.39 -0.82,1.39 0,0 0.74,-0.62 1.28,-0.54 0.53,0.08 0.93,0.3 0.93,0.3 0,0 0.08,-0.46 0.02,-0.78 -0.03,-0.19 -0.14,-0.45 -0.14,-0.45"
     id="path814"
     inkscape:connector-curvature="0"
     style="fill:#db4446" />
  <path
     d="m 281.24,235.1725 c 0,0 -0.81,-0.19 -1.27,0.08 -0.45,0.26 -0.82,1.39 -0.82,1.39 0,0 0.74,-0.62 1.28,-0.54 0.53,0.08 0.93,0.3 0.93,0.3 0,0 0.08,-0.46 0.02,-0.78 -0.03,-0.19 -0.14,-0.45 -0.14,-0.45 z"
     id="path816"
     inkscape:connector-curvature="0"
     style="fill:none;stroke:#000000;stroke-width:0.38999999" />
  <path
     d="m 281.64,238.1625 c 0,0 -0.62,0.64 -0.4,1.18 0.23,0.54 0.62,1.1 0.62,1.1 0,0 -0.02,-0.8 0.23,-1.02 0.37,-0.32 1.05,-0.37 1.05,-0.37 0,0 -0.54,-0.48 -0.71,-0.54 -0.17,-0.05 -0.79,-0.35 -0.79,-0.35"
     id="path818"
     inkscape:connector-curvature="0"
     style="fill:#db4446" />
  <path
     d="m 281.64,238.1625 c 0,0 -0.62,0.64 -0.4,1.18 0.23,0.54 0.62,1.1 0.62,1.1 0,0 -0.02,-0.8 0.23,-1.02 0.37,-0.32 1.05,-0.37 1.05,-0.37 0,0 -0.54,-0.48 -0.71,-0.54 -0.17,-0.05 -0.79,-0.35 -0.79,-0.35 z"
     id="path820"
     inkscape:connector-curvature="0"
     style="fill:none;stroke:#000000;stroke-width:0.38999999" />
  <path
     d="m 284.75,239.1025 c 0,0 -0.31,0.78 0.28,1.28 0.59,0.52 1.11,0.57 1.11,0.57 0,0 -0.46,-0.81 -0.32,-1.23 0.15,-0.45 0.54,-0.72 0.54,-0.72 0,0 -0.74,-0.25 -0.85,-0.22 -0.11,0.02 -0.76,0.32 -0.76,0.32"
     id="path822"
     inkscape:connector-curvature="0"
     style="fill:#db4446" />
  <path
     d="m 284.75,239.1025 c 0,0 -0.31,0.78 0.28,1.28 0.59,0.52 1.11,0.57 1.11,0.57 0,0 -0.46,-0.81 -0.32,-1.23 0.15,-0.45 0.54,-0.72 0.54,-0.72 0,0 -0.74,-0.25 -0.85,-0.22 -0.11,0.02 -0.76,0.32 -0.76,0.32 z"
     id="path824"
     inkscape:connector-curvature="0"
     style="fill:none;stroke:#000000;stroke-width:0.38999999" />
  <path
     d="m 252.91,294.6125 c 2.09,0.63 3.15,2.19 3.15,4.01 0,2.38 -2.3,4.18 -5.3,4.18 -2.99,0 -5.42,-1.8 -5.42,-4.18 0,-1.79 1,-3.8 3.08,-3.94 0,0 -0.06,-0.19 -0.24,-0.5 -0.22,-0.23 -0.64,-0.66 -0.64,-0.66 0,0 0.79,-0.15 1.25,0.02 0.46,0.18 0.77,0.47 0.77,0.47 0,0 0.21,-0.43 0.52,-0.76 0.3,-0.33 0.7,-0.53 0.7,-0.53 0,0 0.46,0.38 0.61,0.64 0.15,0.27 0.25,0.59 0.25,0.59 0,0 0.42,-0.35 0.79,-0.49 0.37,-0.15 0.84,-0.26 0.84,-0.26 0,0 -0.13,0.46 -0.22,0.69 -0.09,0.23 -0.14,0.72 -0.14,0.72"
     id="path826"
     inkscape:connector-curvature="0"
     style="fill:#ffd691;stroke:#000000;stroke-width:0.51999998" />
  <path
     d="m 250.32,305.3825 c 0,0 -3.98,-2.68 -5.7,-3.04 -2.21,-0.47 -4.69,-0.09 -5.76,-0.15 0.03,0.03 1.29,0.93 1.84,1.48 0.55,0.55 2.39,1.65 3.43,1.91 3.22,0.81 6.19,-0.2 6.19,-0.2"
     id="path828"
     inkscape:connector-curvature="0"
     style="fill:#058e6e;stroke:#000000;stroke-width:0.51999998" />
  <path
     d="m 251.46,305.6225 c 0,0 2.54,-2.66 5.21,-3.02 3.15,-0.44 5.22,0.26 6.44,0.58 0.03,0 -1.01,0.49 -1.56,0.87 -0.55,0.37 -1.97,1.57 -4.14,1.59 -2.18,0.03 -4.58,-0.23 -4.97,-0.17 -0.4,0.06 -0.98,0.15 -0.98,0.15"
     id="path830"
     inkscape:connector-curvature="0"
     style="fill:#058e6e;stroke:#000000;stroke-width:0.51999998" />
  <path
     d="m 250.69,302.3425 c -1,-0.93 -1.62,-2.25 -1.62,-3.72 0,-1.46 0.62,-2.78 1.63,-3.71 0.99,0.93 1.61,2.25 1.61,3.71 0,1.47 -0.62,2.79 -1.62,3.72"
     id="path832"
     inkscape:connector-curvature="0"
     style="fill:#ad1519;stroke:#000000;stroke-width:0.51999998" />
  <path
     d="m 249.68,307.7725 c 0,0 0.61,-1.52 0.67,-2.83 0.06,-1.09 -0.15,-2.17 -0.15,-2.17 h 0.52 0.28 c 0,0 0.39,1.16 0.39,2.17 0,1.02 -0.18,2.37 -0.18,2.37 0,0 -0.55,0.08 -0.73,0.17 -0.19,0.09 -0.8,0.29 -0.8,0.29"
     id="path834"
     inkscape:connector-curvature="0"
     style="fill:#058e6e;stroke:#000000;stroke-width:0.51999998" />
  <path
     d="m 217.34,203.4725 h -0.92 v -0.92 h -1.62 v 3.69 h 1.62 v 2.55 h -3.47 v 7.39 h 1.85 v 14.79 h -3.7 v 7.63 h 28.42 v -7.63 h -3.69 v -14.79 h 1.85 v -7.39 h -3.47 v -2.55 h 1.62 v -3.69 h -1.62 v 0.92 h -0.93 v -0.92 h -1.61 v 0.92 h -1.16 v -0.92 h -1.62 v 3.69 h 1.62 v 2.55 h -3.46 v -8.09 h 1.84 v -3.7 h -1.84 v 0.93 h -0.93 v -0.93 h -1.62 v 0.93 h -0.92 v -0.93 h -1.85 v 3.7 h 1.85 v 8.09 h -3.47 v -2.55 h 1.62 v -3.69 h -1.62 v 0.92 h -0.92 v -0.92 h -1.85 v 0.92 z m -6.24,35.13 h 28.42 m -28.42,-1.85 h 28.42 m -28.42,-1.85 h 28.42 m -28.42,-1.85 h 28.42 m -28.42,-2.08 h 28.42 m -24.72,-1.62 h 21.03 m -21.03,-1.85 h 21.03 m -21.03,-2.08 h 21.03 m -21.03,-1.84 h 21.03 m -21.03,-1.85 h 21.03 m -21.03,-1.85 h 21.03 m -21.03,-1.85 h 21.03 m -22.88,-1.85 h 24.73 m -24.73,-1.85 h 24.73 m -24.73,-1.85 h 24.73 m -24.73,-1.84 h 24.73 m -21.26,-1.85 h 17.79 m -10.63,-1.85 h 3.47 m -3.47,-1.85 h 3.47 m -3.47,-1.85 h 3.47 m -3.47,-1.85 h 3.47 m -5.32,-2.31 h 7.16 m -12.47,7.86 h 3.69 m -5.31,-2.31 h 6.93 m -6.93,33.97 v -1.85 m 0,-1.85 v -1.85 m -1.85,1.85 v 1.85 m 3.47,0 v -1.85 m 1.84,3.7 v -1.85 m 0,-1.85 v -1.85 m 0,-2.08 v -1.62 m 0,-1.85 v -2.08 m -1.84,7.63 v -2.08 m -3.47,2.08 v -2.08 m 7.16,0 v 2.08 m 1.62,-2.08 v -1.62 m -5.31,-1.85 v 1.85 m 3.69,-1.85 v 1.85 m 3.47,-1.85 v 1.85 m -1.85,-1.85 v -2.08 m 1.85,-1.84 v 1.84 m 0,-5.54 v 1.85 m -1.85,-3.7 v 1.85 m 1.85,-3.7 v 1.85 m -3.47,-1.85 v 1.85 m -3.69,-1.85 v 1.85 m -1.62,-3.7 v 1.85 m 3.46,-1.85 v 1.85 m 3.47,-1.85 v 1.85 m 1.85,-3.7 v 1.85 m -3.47,-1.85 v 1.85 m -3.69,-1.85 v 1.85 m -1.62,-3.69 v 1.84 m 6.93,-1.84 v 1.84 m -3.47,-5.54 v 1.85 m 15.95,-1.85 h -3.7 m 5.32,-2.31 h -6.94 m 6.94,33.97 v -1.85 m 0,-1.85 v -1.85 m 1.85,1.85 v 1.85 m -3.47,0 v -1.85 m -1.85,3.7 v -1.85 m 0,-1.85 v -1.85 m 0,-2.08 v -1.62 m 0,-1.85 v -2.08 m 1.85,7.63 v -2.08 m 3.47,2.08 v -2.08 m -7.17,0 v 2.08 m -1.62,-2.08 v -1.62 m 5.32,-1.85 v 1.85 m -3.7,-1.85 v 1.85 m -3.46,-1.85 v 1.85 m 1.84,-1.85 v -2.08 m -1.84,-1.84 v 1.84 m 0,-5.54 v 1.85 m 1.84,-3.7 v 1.85 m -1.84,-3.7 v 1.85 m 3.46,-1.85 v 1.85 m 3.7,-1.85 v 1.85 m 1.62,-3.7 v 1.85 m -3.47,-1.85 v 1.85 m -3.47,-1.85 v 1.85 m -1.84,-3.7 v 1.85 m 3.46,-1.85 v 1.85 m 3.7,-1.85 v 1.85 m 1.62,-3.69 v 1.84 m -6.94,-1.84 v 1.84 m 3.47,-5.54 v 1.85 m -7.16,18.71 v -2.08 m 0,-5.54 v -1.85 m 0,5.55 v -1.85 m 0,-5.55 v -1.85 m 0,-1.85 v -1.84 m 0,-3.7 v -1.85 m 0,-1.85 v -1.85 m -8.78,4.85 h 3.69 m 3.47,-5.54 h 3.47 m 3.46,5.54 h 3.7"
     id="path1024"
     inkscape:connector-curvature="0"
     style="fill:#c8b100;stroke:#000000;stroke-width:0.46000001" />
  <path
     d="m 230.05,238.6025 v -4.86 c 0,-0.92 -0.46,-3.7 -4.85,-3.7 -4.16,0 -4.62,2.78 -4.62,3.7 v 4.86 h 9.47 z"
     id="path1026"
     inkscape:connector-curvature="0"
     style="fill:#c8b100;stroke:#000000;stroke-width:0.46000001" />
  <path
     d="m 222.19,233.9725 -2.31,-0.23 c 0,-0.92 0.23,-2.31 0.93,-2.77 l 2.08,1.62 c -0.23,0.23 -0.7,0.92 -0.7,1.38 z"
     id="path1028"
     inkscape:connector-curvature="0"
     style="fill:#c8b100;stroke:#000000;stroke-width:0.46000001" />
  <path
     d="m 228.43,233.9725 2.31,-0.23 c 0,-0.92 -0.23,-2.31 -0.92,-2.77 l -2.08,1.62 c 0.23,0.23 0.69,0.92 0.69,1.38 z"
     id="path1030"
     inkscape:connector-curvature="0"
     style="fill:#c8b100;stroke:#000000;stroke-width:0.46000001" />
  <path
     d="m 226.12,231.6625 1.16,-2.08 c -0.46,-0.23 -1.39,-0.46 -2.08,-0.46 -0.46,0 -1.39,0.23 -1.85,0.46 l 1.15,2.08 h 1.62 z"
     id="path1032"
     inkscape:connector-curvature="0"
     style="fill:#c8b100;stroke:#000000;stroke-width:0.46000001" />
  <path
     d="m 221.73,225.8925 v -5.09 c 0,-1.38 -0.92,-2.54 -2.54,-2.54 -1.62,0 -2.54,1.16 -2.54,2.54 v 5.09 h 5.08 z"
     id="path1034"
     inkscape:connector-curvature="0"
     style="fill:#c8b100;stroke:#000000;stroke-width:0.46000001" />
  <path
     d="m 228.89,225.8925 v -5.09 c 0,-1.38 0.93,-2.54 2.55,-2.54 1.61,0 2.54,1.16 2.54,2.54 v 5.09 h -5.09 z"
     id="path1036"
     inkscape:connector-curvature="0"
     style="fill:#c8b100;stroke:#000000;stroke-width:0.46000001" />
  <path
     d="m 227.05,213.4125 0.46,-4.62 h -4.39 l 0.23,4.62 h 3.7 z"
     id="path1038"
     inkscape:connector-curvature="0"
     style="fill:#c8b100;stroke:#000000;stroke-width:0.46000001" />
  <path
     d="m 230.51,213.4125 -0.46,-4.62 h 4.62 l -0.46,4.62 h -3.7 z"
     id="path1040"
     inkscape:connector-curvature="0"
     style="fill:#c8b100;stroke:#000000;stroke-width:0.46000001" />
  <path
     d="m 220.11,213.4125 0.23,-4.62 h -4.39 l 0.47,4.62 h 3.69 z"
     id="path1042"
     inkscape:connector-curvature="0"
     style="fill:#c8b100;stroke:#000000;stroke-width:0.46000001" />
  <path
     d="m 228.43,238.6025 v -4.16 c 0,-0.7 -0.46,-2.78 -3.23,-2.78 -2.54,0 -3.01,2.08 -3.01,2.78 v 4.16 h 6.24 z"
     id="path1044"
     inkscape:connector-curvature="0"
     style="fill:#0039f0" />
  <path
     d="m 221.27,225.4225 v -4.39 c 0,-1.15 -0.69,-2.31 -2.08,-2.31 -1.39,0 -2.08,1.16 -2.08,2.31 v 4.39 h 4.16 z"
     id="path1046"
     inkscape:connector-curvature="0"
     style="fill:#0039f0" />
  <path
     d="m 229.36,225.4225 v -4.39 c 0,-1.15 0.69,-2.31 2.08,-2.31 1.38,0 2.08,1.16 2.08,2.31 v 4.39 h -4.16 z"
     id="path1048"
     inkscape:connector-curvature="0"
     style="fill:#0039f0" />
  <path
     d="m 282.88,197.7725 -0.29,0.02 c -0.01,0.03 -0.14,0.24 -0.26,0.35 -0.26,0.25 -0.65,0.28 -0.86,0.07 -0.11,-0.11 -0.16,-0.26 -0.14,-0.41 -0.17,0.09 -0.35,0.09 -0.51,-0.01 -0.26,-0.15 -0.32,-0.5 -0.14,-0.79 0.03,-0.06 0.06,-0.14 0.11,-0.18 l -0.02,-0.32 -0.35,0.08 -0.1,0.19 c -0.22,0.25 -0.54,0.31 -0.7,0.17 -0.08,-0.07 -0.14,-0.26 -0.13,-0.27 0,0.01 -0.09,0.09 -0.17,0.11 -0.54,0.13 -0.75,-1.05 -0.77,-1.35 l -0.17,0.25 c 0,0 0.16,0.7 0.08,1.3 -0.08,0.59 -0.29,1.19 -0.29,1.19 0.74,0.19 1.86,0.8 2.97,1.65 1.11,0.85 1.98,1.78 2.34,2.42 0,0 0.58,-0.32 1.18,-0.51 0.6,-0.19 1.36,-0.2 1.36,-0.2 l 0.22,-0.21 c -0.32,0.05 -1.58,0.1 -1.56,-0.43 0,-0.08 0.07,-0.18 0.08,-0.18 -0.01,0.01 -0.21,-0.01 -0.3,-0.06 -0.18,-0.13 -0.18,-0.43 0.02,-0.69 l 0.18,-0.13 0.01,-0.34 -0.34,0.05 c -0.03,0.04 -0.11,0.09 -0.15,0.13 -0.27,0.23 -0.65,0.25 -0.86,0.03 -0.13,-0.12 -0.17,-0.29 -0.11,-0.46 -0.16,0.04 -0.32,0.03 -0.45,-0.05 -0.26,-0.15 -0.31,-0.52 -0.11,-0.8 0.09,-0.14 0.28,-0.31 0.31,-0.32 l -0.07,-0.3"
     id="path1082"
     inkscape:connector-curvature="0"
     style="fill:#c8b100" />
  <path
     d="m 282.88,197.7725 -0.29,0.02 c -0.01,0.03 -0.14,0.24 -0.26,0.35 -0.26,0.25 -0.65,0.28 -0.86,0.07 -0.11,-0.11 -0.16,-0.26 -0.14,-0.41 -0.17,0.09 -0.35,0.09 -0.51,-0.01 -0.26,-0.15 -0.32,-0.5 -0.14,-0.79 0.03,-0.06 0.06,-0.14 0.11,-0.18 l -0.02,-0.32 -0.35,0.08 -0.1,0.19 c -0.22,0.25 -0.54,0.31 -0.7,0.17 -0.08,-0.07 -0.14,-0.26 -0.13,-0.27 0,0.01 -0.09,0.09 -0.17,0.11 -0.54,0.13 -0.75,-1.05 -0.77,-1.35 l -0.17,0.25 c 0,0 0.16,0.7 0.08,1.3 -0.08,0.59 -0.29,1.19 -0.29,1.19 0.74,0.19 1.86,0.8 2.97,1.65 1.11,0.85 1.98,1.78 2.34,2.42 0,0 0.58,-0.32 1.18,-0.51 0.6,-0.19 1.36,-0.2 1.36,-0.2 l 0.22,-0.21 c -0.32,0.05 -1.58,0.1 -1.56,-0.43 0,-0.08 0.07,-0.18 0.08,-0.18 -0.01,0.01 -0.21,-0.01 -0.3,-0.06 -0.18,-0.13 -0.18,-0.43 0.02,-0.69 l 0.18,-0.13 0.01,-0.34 -0.34,0.05 c -0.03,0.04 -0.11,0.09 -0.15,0.13 -0.27,0.23 -0.65,0.25 -0.86,0.03 -0.13,-0.12 -0.17,-0.29 -0.11,-0.46 -0.16,0.04 -0.32,0.03 -0.45,-0.05 -0.26,-0.15 -0.31,-0.52 -0.11,-0.8 0.09,-0.14 0.28,-0.31 0.31,-0.32 l -0.07,-0.3 h -0.01 z"
     id="path1084"
     inkscape:connector-curvature="0"
     style="fill:none;stroke:#000000;stroke-width:0.25999999" />
  <path
     d="m 280.63,198.4625 c 0.05,-0.07 0.15,-0.06 0.23,0 0.08,0.06 0.1,0.16 0.06,0.21 -0.05,0.06 -0.15,0.06 -0.24,-0.01 -0.07,-0.05 -0.1,-0.15 -0.05,-0.2"
     id="path1086"
     inkscape:connector-curvature="0" />
  <path
     d="m 280.63,198.4625 c 0.05,-0.07 0.15,-0.06 0.23,0 0.08,0.06 0.1,0.16 0.06,0.21 -0.05,0.06 -0.15,0.06 -0.24,-0.01 -0.07,-0.05 -0.1,-0.15 -0.05,-0.2 z"
     id="path1088"
     inkscape:connector-curvature="0"
     style="fill:none;stroke:#000000;stroke-width:0.05" />
  <path
     d="m 281.58,199.2525 -0.33,-0.25 c -0.06,-0.04 -0.07,-0.12 -0.04,-0.16 0.04,-0.04 0.12,-0.04 0.18,0 l 0.33,0.26 0.33,0.25 c 0.05,0.04 0.08,0.12 0.04,0.16 -0.04,0.04 -0.12,0.04 -0.18,0 l -0.33,-0.26"
     id="path1090"
     inkscape:connector-curvature="0" />
  <path
     d="m 281.58,199.2525 -0.33,-0.25 c -0.06,-0.04 -0.07,-0.12 -0.04,-0.16 0.04,-0.04 0.12,-0.04 0.18,0 l 0.33,0.26 0.33,0.25 c 0.05,0.04 0.08,0.12 0.04,0.16 -0.04,0.04 -0.12,0.04 -0.18,0 l -0.33,-0.26"
     id="path1092"
     inkscape:connector-curvature="0"
     style="fill:none;stroke:#000000;stroke-width:0.05" />
  <path
     d="m 279.84,198.0625 -0.26,-0.15 c -0.07,-0.04 -0.1,-0.12 -0.07,-0.17 0.03,-0.05 0.11,-0.06 0.17,-0.02 l 0.26,0.16 0.26,0.15 c 0.06,0.03 0.09,0.11 0.07,0.16 -0.03,0.05 -0.11,0.06 -0.17,0.02 l -0.26,-0.15"
     id="path1094"
     inkscape:connector-curvature="0" />
  <path
     d="m 279.84,198.0625 -0.26,-0.15 c -0.07,-0.04 -0.1,-0.12 -0.07,-0.17 0.03,-0.05 0.11,-0.06 0.17,-0.02 l 0.26,0.16 0.26,0.15 c 0.06,0.03 0.09,0.11 0.07,0.16 -0.03,0.05 -0.11,0.06 -0.17,0.02 l -0.26,-0.15"
     id="path1096"
     inkscape:connector-curvature="0"
     style="fill:none;stroke:#000000;stroke-width:0.05" />
  <path
     d="m 278.8,197.3525 c 0.05,-0.06 0.16,-0.06 0.24,0 0.08,0.07 0.1,0.16 0.05,0.22 -0.05,0.05 -0.15,0.05 -0.23,-0.01 -0.08,-0.06 -0.1,-0.15 -0.06,-0.21"
     id="path1098"
     inkscape:connector-curvature="0" />
  <path
     d="m 278.8,197.3525 c 0.05,-0.06 0.16,-0.06 0.24,0 0.08,0.07 0.1,0.16 0.05,0.22 -0.05,0.05 -0.15,0.05 -0.23,-0.01 -0.08,-0.06 -0.1,-0.15 -0.06,-0.21 z"
     id="path1100"
     inkscape:connector-curvature="0"
     style="fill:none;stroke:#000000;stroke-width:0.05" />
  <path
     d="m 282.63,199.9825 c 0.05,-0.05 0.03,-0.14 -0.05,-0.21 -0.08,-0.06 -0.19,-0.06 -0.24,0 -0.04,0.05 -0.02,0.15 0.06,0.21 0.08,0.06 0.18,0.06 0.23,0"
     id="path1102"
     inkscape:connector-curvature="0" />
  <path
     d="m 282.63,199.9825 c 0.05,-0.05 0.03,-0.14 -0.05,-0.21 -0.08,-0.06 -0.19,-0.06 -0.24,0 -0.04,0.05 -0.02,0.15 0.06,0.21 0.08,0.06 0.18,0.06 0.23,0 z"
     id="path1104"
     inkscape:connector-curvature="0"
     style="fill:none;stroke:#000000;stroke-width:0.05" />
  <path
     d="m 283.2,200.6425 0.22,0.21 c 0.05,0.05 0.13,0.07 0.18,0.03 0.04,-0.04 0.04,-0.11 -0.01,-0.16 l -0.21,-0.21 -0.22,-0.21 c -0.05,-0.05 -0.14,-0.07 -0.18,-0.03 -0.05,0.03 -0.04,0.11 0.01,0.16 l 0.21,0.21"
     id="path1106"
     inkscape:connector-curvature="0" />
  <path
     d="m 283.2,200.6425 0.22,0.21 c 0.05,0.05 0.13,0.07 0.18,0.03 0.04,-0.04 0.04,-0.11 -0.01,-0.16 l -0.21,-0.21 -0.22,-0.21 c -0.05,-0.05 -0.14,-0.07 -0.18,-0.03 -0.05,0.03 -0.04,0.11 0.01,0.16 l 0.21,0.21"
     id="path1108"
     inkscape:connector-curvature="0"
     style="fill:none;stroke:#000000;stroke-width:0.05" />
  <path
     d="m 284.15,201.4525 c 0.05,-0.06 0.03,-0.15 -0.05,-0.21 -0.08,-0.07 -0.18,-0.07 -0.23,-0.01 -0.05,0.06 -0.03,0.15 0.05,0.22 0.08,0.05 0.18,0.06 0.23,0"
     id="path1110"
     inkscape:connector-curvature="0" />
  <path
     d="m 284.15,201.4525 c 0.05,-0.06 0.03,-0.15 -0.05,-0.21 -0.08,-0.07 -0.18,-0.07 -0.23,-0.01 -0.05,0.06 -0.03,0.15 0.05,0.22 0.08,0.05 0.18,0.06 0.23,0 z"
     id="path1112"
     inkscape:connector-curvature="0"
     style="fill:none;stroke:#000000;stroke-width:0.05" />
  <path
     d="m 281.4,195.4225 -0.59,0.01 -0.11,0.87 0.06,0.14 0.15,-0.01 0.76,-0.51 -0.27,-0.5"
     id="path1114"
     inkscape:connector-curvature="0"
     style="fill:#c8b100" />
  <path
     d="m 281.4,195.4225 -0.59,0.01 -0.11,0.87 0.06,0.14 0.15,-0.01 0.76,-0.51 -0.27,-0.5"
     id="path1116"
     inkscape:connector-curvature="0"
     style="fill:none;stroke:#000000;stroke-width:0.25999999" />
  <path
     d="m 279.8,195.9025 -0.02,0.54 0.92,0.12 0.15,-0.07 -0.02,-0.15 -0.53,-0.71 -0.5,0.27"
     id="path1118"
     inkscape:connector-curvature="0"
     style="fill:#c8b100" />
  <path
     d="m 279.8,195.9025 -0.02,0.54 0.92,0.12 0.15,-0.07 -0.02,-0.15 -0.53,-0.71 -0.5,0.27"
     id="path1120"
     inkscape:connector-curvature="0"
     style="fill:none;stroke:#000000;stroke-width:0.25999999" />
  <path
     d="m 281.7,196.9825 -0.49,0.27 -0.54,-0.71 -0.01,-0.15 0.14,-0.06 0.93,0.11 -0.03,0.54"
     id="path1122"
     inkscape:connector-curvature="0"
     style="fill:#c8b100" />
  <path
     d="m 281.7,196.9825 -0.49,0.27 -0.54,-0.71 -0.01,-0.15 0.14,-0.06 0.93,0.11 -0.03,0.54"
     id="path1124"
     inkscape:connector-curvature="0"
     style="fill:none;stroke:#000000;stroke-width:0.25999999" />
  <path
     d="m 280.51,196.3125 c 0.08,-0.13 0.26,-0.17 0.39,-0.09 0.14,0.07 0.18,0.24 0.1,0.37 -0.08,0.13 -0.26,0.17 -0.39,0.09 -0.14,-0.08 -0.18,-0.24 -0.1,-0.37"
     id="path1126"
     inkscape:connector-curvature="0"
     style="fill:#c8b100" />
  <path
     d="m 280.51,196.3125 c 0.08,-0.13 0.26,-0.17 0.39,-0.09 0.14,0.07 0.18,0.24 0.1,0.37 -0.08,0.13 -0.26,0.17 -0.39,0.09 -0.14,-0.08 -0.18,-0.24 -0.1,-0.37 z"
     id="path1128"
     inkscape:connector-curvature="0"
     style="fill:none;stroke:#000000;stroke-width:0.25999999" />
  <path
     d="m 278.36,195.4125 c -0.02,0.01 -0.13,-0.46 -0.26,-0.71 -0.08,-0.19 -0.39,-0.43 -0.39,-0.43 0.03,-0.05 0.42,-0.19 0.87,0.09 0.38,0.31 -0.03,0.87 -0.03,0.87 0,0 -0.09,0.14 -0.19,0.18"
     id="path1130"
     inkscape:connector-curvature="0"
     style="fill:#c8b100" />
  <path
     d="m 278.36,195.4125 c -0.02,0.01 -0.13,-0.46 -0.26,-0.71 -0.08,-0.19 -0.39,-0.43 -0.39,-0.43 0.03,-0.05 0.42,-0.19 0.87,0.09 0.38,0.31 -0.03,0.87 -0.03,0.87 0,0 -0.09,0.14 -0.19,0.18 z"
     id="path1132"
     inkscape:connector-curvature="0"
     style="fill:none;stroke:#000000;stroke-width:0.25999999" />
  <path
     d="m 279.39,195.7225 -0.42,0.37 -0.68,-0.6 0.06,-0.08 0.03,-0.15 0.92,-0.07 0.09,0.53"
     id="path1134"
     inkscape:connector-curvature="0"
     style="fill:#c8b100" />
  <path
     d="m 279.39,195.7225 -0.42,0.37 -0.68,-0.6 0.06,-0.08 0.03,-0.15 0.92,-0.07 0.09,0.53"
     id="path1136"
     inkscape:connector-curvature="0"
     style="fill:none;stroke:#000000;stroke-width:0.25999999" />
  <path
     d="m 278.24,195.3525 c 0.05,-0.15 0.18,-0.23 0.28,-0.2 0.11,0.04 0.15,0.18 0.1,0.33 -0.05,0.15 -0.18,0.23 -0.29,0.2 -0.11,-0.04 -0.15,-0.18 -0.09,-0.33"
     id="path1138"
     inkscape:connector-curvature="0"
     style="fill:#c8b100" />
  <path
     d="m 278.24,195.3525 c 0.05,-0.15 0.18,-0.23 0.28,-0.2 0.11,0.04 0.15,0.18 0.1,0.33 -0.05,0.15 -0.18,0.23 -0.29,0.2 -0.11,-0.04 -0.15,-0.18 -0.09,-0.33 z"
     id="path1140"
     inkscape:connector-curvature="0"
     style="fill:none;stroke:#000000;stroke-width:0.25999999" />
  <path
     d="m 283.67,196.8325 -0.59,-0.06 -0.25,0.85 0.05,0.14 0.15,0.01 0.83,-0.41 -0.19,-0.53"
     id="path1142"
     inkscape:connector-curvature="0"
     style="fill:#c8b100" />
  <path
     d="m 283.67,196.8325 -0.59,-0.06 -0.25,0.85 0.05,0.14 0.15,0.01 0.83,-0.41 -0.19,-0.53"
     id="path1144"
     inkscape:connector-curvature="0"
     style="fill:none;stroke:#000000;stroke-width:0.25999999" />
  <path
     d="m 282.01,197.0925 -0.1,0.54 0.9,0.23 0.15,-0.04 0.01,-0.14 -0.43,-0.79 -0.53,0.2"
     id="path1146"
     inkscape:connector-curvature="0"
     style="fill:#c8b100" />
  <path
     d="m 282.01,197.0925 -0.1,0.54 0.9,0.23 0.15,-0.04 0.01,-0.14 -0.43,-0.79 -0.53,0.2"
     id="path1148"
     inkscape:connector-curvature="0"
     style="fill:none;stroke:#000000;stroke-width:0.25999999" />
  <path
     d="m 283.73,198.4225 -0.53,0.2 -0.42,-0.78 0.01,-0.15 0.15,-0.03 0.89,0.23 -0.1,0.53"
     id="path1150"
     inkscape:connector-curvature="0"
     style="fill:#c8b100" />
  <path
     d="m 283.73,198.4225 -0.53,0.2 -0.42,-0.78 0.01,-0.15 0.15,-0.03 0.89,0.23 -0.1,0.53"
     id="path1152"
     inkscape:connector-curvature="0"
     style="fill:none;stroke:#000000;stroke-width:0.25999999" />
  <path
     d="m 282.65,197.6025 c 0.1,-0.12 0.28,-0.13 0.4,-0.04 0.13,0.09 0.15,0.26 0.05,0.38 -0.1,0.12 -0.28,0.13 -0.41,0.04 -0.12,-0.09 -0.14,-0.26 -0.04,-0.38"
     id="path1154"
     inkscape:connector-curvature="0"
     style="fill:#c8b100" />
  <path
     d="m 282.65,197.6025 c 0.1,-0.12 0.28,-0.13 0.4,-0.04 0.13,0.09 0.15,0.26 0.05,0.38 -0.1,0.12 -0.28,0.13 -0.41,0.04 -0.12,-0.09 -0.14,-0.26 -0.04,-0.38 z"
     id="path1156"
     inkscape:connector-curvature="0"
     style="fill:none;stroke:#000000;stroke-width:0.25999999" />
  <path
     d="m 285.64,198.6725 0.11,0.55 -0.87,0.3 -0.16,-0.04 -0.01,-0.14 0.36,-0.81 0.57,0.14"
     id="path1158"
     inkscape:connector-curvature="0"
     style="fill:#c8b100" />
  <path
     d="m 285.64,198.6725 0.11,0.55 -0.87,0.3 -0.16,-0.04 -0.01,-0.14 0.36,-0.81 0.57,0.14"
     id="path1160"
     inkscape:connector-curvature="0"
     style="fill:none;stroke:#000000;stroke-width:0.25999999" />
  <path
     d="m 285.49,200.2625 -0.56,0.13 -0.31,-0.83 0.04,-0.15 0.15,-0.02 0.85,0.35 -0.17,0.52"
     id="path1162"
     inkscape:connector-curvature="0"
     style="fill:#c8b100" />
  <path
     d="m 285.49,200.2625 -0.56,0.13 -0.31,-0.83 0.04,-0.15 0.15,-0.02 0.85,0.35 -0.17,0.52"
     id="path1164"
     inkscape:connector-curvature="0"
     style="fill:none;stroke:#000000;stroke-width:0.25999999" />
  <path
     d="m 283.97,198.7225 -0.18,0.52 0.85,0.34 0.16,-0.02 0.03,-0.14 -0.3,-0.83 -0.56,0.13"
     id="path1166"
     inkscape:connector-curvature="0"
     style="fill:#c8b100" />
  <path
     d="m 283.97,198.7225 -0.18,0.52 0.85,0.34 0.16,-0.02 0.03,-0.14 -0.3,-0.83 -0.56,0.13"
     id="path1168"
     inkscape:connector-curvature="0"
     style="fill:none;stroke:#000000;stroke-width:0.25999999" />
  <path
     d="m 284.91,199.6925 c 0.12,-0.11 0.12,-0.28 0.02,-0.39 -0.11,-0.11 -0.29,-0.11 -0.41,-0.02 -0.11,0.11 -0.12,0.28 -0.01,0.39 0.1,0.11 0.29,0.12 0.4,0.02"
     id="path1170"
     inkscape:connector-curvature="0"
     style="fill:#c8b100" />
  <path
     d="m 284.91,199.6925 c 0.12,-0.11 0.12,-0.28 0.02,-0.39 -0.11,-0.11 -0.29,-0.11 -0.41,-0.02 -0.11,0.11 -0.12,0.28 -0.01,0.39 0.1,0.11 0.29,0.12 0.4,0.02 z"
     id="path1172"
     inkscape:connector-curvature="0"
     style="fill:none;stroke:#000000;stroke-width:0.25999999" />
  <path
     d="m 286.29,201.4925 c 0,0.01 0.5,0.03 0.79,0.09 0.2,0.04 0.52,0.27 0.52,0.27 0.06,-0.04 0.12,-0.42 -0.28,-0.79 -0.39,-0.28 -0.88,0.22 -0.88,0.22 0,0 -0.12,0.12 -0.15,0.21"
     id="path1174"
     inkscape:connector-curvature="0"
     style="fill:#c8b100" />
  <path
     d="m 286.29,201.4925 c 0,0.01 0.5,0.03 0.79,0.09 0.2,0.04 0.52,0.27 0.52,0.27 0.06,-0.04 0.12,-0.42 -0.28,-0.79 -0.39,-0.28 -0.88,0.22 -0.88,0.22 0,0 -0.12,0.12 -0.15,0.21 z"
     id="path1176"
     inkscape:connector-curvature="0"
     style="fill:none;stroke:#000000;stroke-width:0.25999999" />
  <path
     d="m 285.75,200.6025 -0.29,0.46 0.76,0.51 0.09,-0.08 0.13,-0.04 -0.12,-0.88 -0.57,0.03"
     id="path1178"
     inkscape:connector-curvature="0"
     style="fill:#c8b100" />
  <path
     d="m 285.75,200.6025 -0.29,0.46 0.76,0.51 0.09,-0.08 0.13,-0.04 -0.12,-0.88 -0.57,0.03"
     id="path1180"
     inkscape:connector-curvature="0"
     style="fill:none;stroke:#000000;stroke-width:0.25999999" />
  <path
     d="m 286.37,201.5925 c 0.14,-0.07 0.21,-0.22 0.15,-0.31 -0.06,-0.09 -0.22,-0.1 -0.36,-0.02 -0.14,0.08 -0.2,0.22 -0.14,0.31 0.05,0.09 0.21,0.1 0.35,0.02"
     id="path1182"
     inkscape:connector-curvature="0"
     style="fill:#c8b100" />
  <path
     d="m 286.37,201.5925 c 0.14,-0.07 0.21,-0.22 0.15,-0.31 -0.06,-0.09 -0.22,-0.1 -0.36,-0.02 -0.14,0.08 -0.2,0.22 -0.14,0.31 0.05,0.09 0.21,0.1 0.35,0.02 z"
     id="path1184"
     inkscape:connector-curvature="0"
     style="fill:none;stroke:#000000;stroke-width:0.25999999" />
  <path
     d="m 250.28,246.3125 h 50.32 v -55.72 h -50.32 v 55.72 z"
     id="path704"
     inkscape:connector-curvature="0"
     style="fill:none;stroke:#000000;stroke-width:0.51999998" />
</svg>
