<?xml version="1.0" encoding="UTF-8" standalone="no"?>
<!-- Created with Inkscape (http://www.inkscape.org/) -->

<svg
   xmlns:dc="http://purl.org/dc/elements/1.1/"
   xmlns:cc="http://creativecommons.org/ns#"
   xmlns:rdf="http://www.w3.org/1999/02/22-rdf-syntax-ns#"
   xmlns:svg="http://www.w3.org/2000/svg"
   xmlns="http://www.w3.org/2000/svg"
   xmlns:sodipodi="http://sodipodi.sourceforge.net/DTD/sodipodi-0.dtd"
   xmlns:inkscape="http://www.inkscape.org/namespaces/inkscape"
   version="1.1"
   width="436"
   height="217"
   id="svg3054"
   sodipodi:docname="Slovenia_Flag_proposal.svg"
   inkscape:version="0.92.3 (2405546, 2018-03-11)">
  <sodipodi:namedview
     pagecolor="#ffffff"
     bordercolor="#666666"
     borderopacity="1"
     objecttolerance="10"
     gridtolerance="10"
     guidetolerance="10"
     inkscape:pageopacity="0"
     inkscape:pageshadow="2"
     inkscape:window-width="1920"
     inkscape:window-height="1017"
     id="namedview16"
     showgrid="false"
     inkscape:zoom="0.92118498"
     inkscape:cx="218"
     inkscape:cy="125.847"
     inkscape:window-x="-8"
     inkscape:window-y="-8"
     inkscape:window-maximized="1"
     inkscape:current-layer="svg3054" />
  <metadata
     id="metadata3060">
    <rdf:RDF>
      <cc:Work
         rdf:about="">
        <dc:format>image/svg+xml</dc:format>
        <dc:type
           rdf:resource="http://purl.org/dc/dcmitype/StillImage" />
        <dc:title />
      </cc:Work>
    </rdf:RDF>
  </metadata>
  <defs
     id="defs3058" />
  <rect
     width="435.99976"
     height="216.9926"
     x="0"
     y="0.0074131042"
     id="rect3134"
     style="fill:#ffffff;fill-opacity:1;stroke:none" />
  <path
     d="m 0,217.00391 436,0 L 436,0 z"
     id="path3138"
     style="fill:#0000bf;fill-opacity:1;stroke:none" />
  <path
     d="m 223,217 213,0 0,-109 z"
     id="path4482"
     style="fill:#d50000;fill-opacity:1;stroke:none" />
  <path
     d="m 46.557221,30.491855 c -0.926274,0.408454 -1.845625,0.832477 -2.758051,1.271718 l 2.874354,45.482215 c 0.78297,12.399441 6.056079,24.133982 14.893055,32.970602 6.042925,6.04259 13.440637,10.41954 21.479769,12.83284 l 6.83e-4,0 c 8.039115,-2.41363 15.437181,-6.79025 21.479769,-12.83284 8.83662,-8.83662 14.11009,-20.571161 14.89271,-32.970602 l 2.8747,-45.482215 c -0.91278,-0.439241 -1.83143,-0.863264 -2.7584,-1.271718 l 6.3e-4,3.49e-4 -2.94223,46.559048 c -0.73622,11.719292 -5.71858,22.810685 -14.0699,31.162028 -5.503643,5.50432 -12.198005,9.54449 -19.476997,11.87091 l -9.98e-4,0 C 75.767008,117.75777 69.073335,113.7176 63.569696,108.21328 55.218008,99.861937 50.235658,88.770544 49.499763,77.051252 l -2.942542,-46.559397 6.89e-4,0"
     id="path13"
     style="fill:#d50000;fill-opacity:1" />
  <path
     d="M 119.53651,30.492204 C 108.14744,25.47073 95.734477,22.804758 83.046698,22.804758 c -12.688139,0 -25.1011,2.665972 -36.49017,7.687446 l 2.942889,46.559048 c 0.735895,11.719292 5.718247,22.810685 14.069933,31.162028 5.503985,5.50432 12.197658,9.54449 19.476649,11.87091 l 0.001,0 c 7.279035,-2.32642 13.973398,-6.36659 19.476341,-11.87091 8.35201,-8.351343 13.33436,-19.442736 14.06992,-31.162028"
     id="path15"
     style="fill:#0000bf;fill-opacity:1" />
  <polyline
     style="fill:#ffdf00;fill-opacity:1"
     id="polyline17"
     points="119.764,62.917 124.434,56.539 116.574,57.394 113.386,50.161 110.197,57.394 102.338,56.539    107.008,62.917 102.338,69.295 110.197,68.44 113.386,75.673 116.574,68.44 124.434,69.295  "
     transform="matrix(0.34614052,0,0,0.34614052,43.7992,22.804724)" />
  <polyline
     style="fill:#ffdf00;fill-opacity:1"
     id="polyline19"
     points="90,23.232 94.669,16.854 86.811,17.709 83.622,10.476 80.433,17.709 72.575,16.854 77.244,23.232    72.575,29.61 80.433,28.755 83.622,35.988 86.811,28.755 94.669,29.61  "
     transform="matrix(0.34614052,0,0,0.34614052,43.7992,22.804724)" />
  <polyline
     style="fill:#ffdf00;fill-opacity:1"
     id="polyline21"
     points="149.527,23.232 154.195,16.854 146.338,17.709 143.148,10.476 139.959,17.709 132.102,16.854    136.771,23.232 132.102,29.61 139.959,28.755 143.148,35.988 146.338,28.755 154.195,29.61  "
     transform="matrix(0.34614052,0,0,0.34614052,43.7992,22.804724)" />
  <path
     d="M 112.48251,83.830772 97.764257,64.206669 91.877091,72.056452 83.046348,54.394969 74.215607,72.056452 68.32844,64.206669 53.610531,83.830772 c 0,2.602278 1.033923,5.097619 2.874006,6.937699 1.840087,1.839387 4.335416,2.874016 6.938048,2.874016 1.737628,0 3.427832,-0.461066 4.906547,-1.314997 0.0098,-0.007 -0.01181,0.007 -0.0023,0.001 0.736933,-0.425752 1.532012,-0.757341 2.367942,-0.98096 2.513673,-0.673234 5.19177,-0.321213 7.445495,0.979575 1.504663,0.868824 3.199041,1.314998 4.90689,1.314998 0.0066,0 -0.0099,0 -0.0017,0 1.708216,0 3.40221,-0.446174 4.907239,-1.314998 2.253376,-1.300788 4.931823,-1.653502 7.445487,-0.979575 0.835587,0.223619 1.630673,0.555208 2.36761,0.98096 0.0099,0.005 -0.01164,-0.007 -0.0017,-0.001 1.479065,0.853931 3.168565,1.314997 4.906185,1.314997 2.603,0 5.09831,-1.034267 6.93839,-2.874016 1.8401,-1.84008 2.87402,-4.335421 2.87402,-6.937699"
     id="path23"
     style="fill:#ffffff" />
  <path
     d="m 57.097209,94.48533 c 0.675319,1.341993 1.417792,2.651451 2.224648,3.923167 0,0 -3.48e-4,6.12e-4 0,0.001 2.071303,0.95257 4.41987,1.158185 6.640362,0.563177 0.836278,-0.223619 1.631017,-0.55556 2.367951,-0.98098 0.0098,-0.005 -0.01181,0.007 -0.0022,0.001 1.478709,-0.854614 3.168918,-1.314978 4.906541,-1.314978 0.0033,0 -0.0033,0 -9.98e-4,0 1.70785,-6.32e-4 3.402228,0.445482 4.906889,1.314978 2.253726,1.300808 4.931824,1.65283 7.445837,0.979595 0.835587,-0.223608 1.630674,-0.555569 2.367611,-0.98097 0.0099,-0.005 -0.01164,0.007 -0.0017,10e-4 1.478349,-0.854614 3.168568,-1.314998 4.906889,-1.314998 0.0033,0 -0.005,0 -0.0012,0 1.707849,-6.22e-4 3.402559,0.445491 4.906889,1.314998 2.254072,1.300788 4.931822,1.652809 7.445492,0.979575 0.53962,-0.144038 1.06126,-0.334018 1.56179,-0.563859 l 0,0 c 0.80724,-1.272418 1.54972,-2.581856 2.22505,-3.923167 0,-6.12e-4 0,0 0,0 -0.49014,0.186568 -0.9654,0.412264 -1.42092,0.675332 -0.008,0.005 0.0116,-0.007 0.003,-0.001 -0.73692,0.42542 -1.53201,0.756658 -2.3683,0.98097 -2.51367,0.673234 -5.1914,0.321212 -7.445473,-0.980278 -1.504314,-0.868814 -3.199024,-1.314295 -4.90689,-1.314295 -0.0033,0 0.005,0 0.0012,0 -1.737956,0 -3.428175,0.461066 -4.906889,1.314978 -0.0099,0.005 0.01164,-0.007 0.0017,-10e-4 -0.736937,0.425752 -1.532007,0.757351 -2.367594,0.98096 -2.51403,0.673937 -5.192112,0.321915 -7.445836,-0.979575 -1.50468,-0.868824 -3.199041,-1.314998 -4.90689,-1.314998 -0.0033,0 0.0033,0 9.97e-4,0 -1.737622,0 -3.427824,0.461066 -4.906544,1.31568 -0.0098,0.005 0.01181,-0.007 0.0022,-0.001 -0.736934,0.4254 -1.531673,0.756658 -2.367951,0.98096 -2.513672,0.673244 -5.191764,0.321222 -7.445488,-0.980278 -0.45725,-0.26375 -0.932156,-0.488744 -1.419522,-0.673937 -3.47e-4,0 0,-6.32e-4 0,0"
     id="path25"
     style="fill:#ffffff" />
  <path
     d="m 104.22981,102.01528 c -1.1433,1.46485 -2.38109,2.86708 -3.70958,4.19488 -4.963658,4.96366 -10.954664,8.66287 -17.473882,10.89131 l -3.49e-4,0 c -6.519217,-2.22844 -12.510566,-5.92695 -17.474225,-10.89131 -1.328142,-1.3278 -2.565942,-2.73003 -3.709246,-4.19488 0,0 -3.46e-4,0 0,0 1.353065,0.21771 2.750089,0.15152 4.099347,-0.20941 0.836276,-0.22431 1.631014,-0.55556 2.367948,-0.98096 0.0098,-0.005 -0.01181,0.007 -0.0022,9.9e-4 1.478714,-0.854623 3.168913,-1.314995 4.906554,-1.314995 0.0033,0 -0.0033,0 -0.001,0 1.707867,-6.32e-4 3.40221,0.445482 4.906889,1.314305 2.253726,1.30149 4.931823,1.65351 7.445488,0.98026 0.836285,-0.22429 1.631372,-0.55556 2.368309,-0.98096 0.0099,-0.005 -0.01164,0.007 -0.0017,10e-4 1.478349,-0.854623 3.168568,-1.314997 4.90619,-1.314997 0.0033,0 -0.005,0 -6.31e-4,0 1.70785,-6.22e-4 3.401878,0.445494 4.906889,1.314317 1.962617,1.1336 4.248189,1.54691 6.465909,1.18933 6.5e-4,0 0,0 -6.2e-4,6.2e-4"
     id="path27"
     style="fill:#ffffff" />
</svg>
