<?xml version="1.0" encoding="utf-8"?>
<!-- Generator: Adobe Illustrator 24.1.0, SVG Export Plug-In . SVG Version: 6.00 Build 0)  -->
<svg version="1.1"
	 id="svg17159" xmlns:cc="http://web.resource.org/cc/" xmlns:dc="http://purl.org/dc/elements/1.1/" xmlns:inkscape="http://www.inkscape.org/namespaces/inkscape" xmlns:rdf="http://www.w3.org/1999/02/22-rdf-syntax-ns#" xmlns:sodipodi="http://sodipodi.sourceforge.net/DTD/sodipodi-0.dtd" xmlns:svg="http://www.w3.org/2000/svg"
	 xmlns="http://www.w3.org/2000/svg" xmlns:xlink="http://www.w3.org/1999/xlink" x="0px" y="0px" viewBox="0 0 450 300"
	 style="enable-background:new 0 0 450 300;" xml:space="preserve">
<style type="text/css">
	.st0{fill-rule:evenodd;clip-rule:evenodd;fill:#CE1126;}
	.st1{fill-rule:evenodd;clip-rule:evenodd;fill:#0038A8;}
	.st2{fill-rule:evenodd;clip-rule:evenodd;fill:#FFFFFF;}
</style>
<sodipodi:namedview  bordercolor="#666666" borderopacity="1.0" gridtolerance="10.0" guidetolerance="10.0" id="base" inkscape:current-layer="svg17159" inkscape:cx="320.62079" inkscape:cy="150" inkscape:pageopacity="0.0" inkscape:pageshadow="2" inkscape:window-height="1005" inkscape:window-width="1280" inkscape:window-x="-4" inkscape:window-y="-4" inkscape:zoom="2.1937874" objecttolerance="10.0" pagecolor="#ffffff">
	</sodipodi:namedview>
<g id="g1434">
	<rect id="rect17168" y="200" class="st0" width="450" height="100"/>
	<rect id="rect18412" y="100" class="st1" width="450" height="100"/>
	<rect id="rect19034" y="0" class="st2" width="450" height="100"/>
	<path id="path19697" class="st2" d="M77.8,70.5c-6,0.5-4.3,7.8-5.1,11.9c-2.1,28.7-5.1,58.3,3.7,86.2c6.9,22.5,23.4,41.1,43.4,53.1
		c4.9,2.7,9.7,6.2,15.2,7.7c5.7-1.6,10.7-5.2,15.9-8.1c19.7-12,35.9-30.4,42.7-52.7c8.9-28.4,5.7-58.5,3.6-87.6
		c-0.3-4,0.3-11-5.6-10.5C153.6,70.5,115.7,70.5,77.8,70.5z"/>
	<g id="g1376" transform="matrix(0.5,0,0,0.5,-4.952244e-5,150.0002)">
		<g id="g1388">
			<path id="path919" class="st0" d="M270-150v300C131.3,82.8,146.4-28.5,155.6-150H270z M270-150v300
				C408.7,82.8,393.6-28.5,384.4-150H270z"/>
			<g id="g1366">
				<path id="path3412" class="st2" d="M286.2-67.7c14.6,0,29.5,2.7,43.8,5.5c-4.2-13.9-4.2-22.4,0-36.3
					c-14.3,2.8-29.2,5.5-43.8,5.5h-32.4c-14.6,0-29.5-2.7-43.8-5.5c4.2,13.9,4.2,22.4,0,36.3c14.3-2.8,29.2-5.5,43.8-5.5H286.2z"/>
				<path id="path5897" class="st2" d="M298.8-13.1c14.6,0,29.5,2.7,43.8,5.5c-4.2-13.9-4.2-22.4,0-36.3
					c-14.3,2.8-29.2,5.5-43.8,5.5h-57.6c-14.6,0-29.5-2.7-43.8-5.5c4.2,13.9,4.2,22.4,0,36.3c14.3-2.8,29.2-5.5,43.8-5.5H298.8z"/>
				<path id="path10868" class="st2" d="M251.8-138.5c2.8,14.3,5.5,29.1,5.5,43.6V90.9h25.4V-94.9c0-14.5,2.7-29.3,5.5-43.6
					C274.3-134.3,265.7-134.3,251.8-138.5z"/>
				<g id="g16515" transform="matrix(1.919924,0,0,1.911014,-89.99034,-1145.429)">
					<path id="path13976" class="st1" d="M157.5,623.3c-8.6,0-15.5,6.9-15.5,15.5c0,0.7,0.1,1.3,0.2,1.9c3,4.4,6.5,8.7,10.5,12.8
						c1.5,0.5,3.1,0.8,4.8,0.8c8.6,0,15.5-7,15.5-15.5S166.1,623.3,157.5,623.3z"/>
					<path id="path15884" class="st1" d="M187.5,614.2c-10.9,0-19.7,8.9-19.7,19.8s8.8,19.7,19.7,19.7c10.9,0,19.7-8.8,19.7-19.7
						C207.2,623,198.4,614.2,187.5,614.2z"/>
					<path id="path15882" class="st1" d="M217.5,623.3c-8.6,0-15.5,6.9-15.5,15.5s6.9,15.5,15.5,15.5c1.7,0,3.3-0.3,4.8-0.8
						c4-4.1,7.5-8.4,10.5-12.8c0.1-0.6,0.2-1.2,0.2-1.9C233,630.3,226.1,623.3,217.5,623.3z"/>
					<path id="path15876" class="st1" d="M144.6,644.1c9.5,12.7,23.1,24.1,42.9,33.8c19.8-9.6,33.4-21,42.9-33.8H144.6z"/>
				</g>
			</g>
		</g>
	</g>
</g>
</svg>
