<?xml version="1.0" encoding="utf-8"?>
<!-- Generator: Adobe Illustrator 24.1.0, SVG Export Plug-In . SVG Version: 6.00 Build 0)  -->
<svg version="1.1" id="Component_30_1" xmlns="http://www.w3.org/2000/svg" xmlns:xlink="http://www.w3.org/1999/xlink" x="0px"
	 y="0px" viewBox="0 0 24 8" style="enable-background:new 0 0 24 8;" xml:space="preserve">
<style type="text/css">
	.st0{fill:#000055;}
	.st1{fill:#9DCBDE;}
	.st2{fill:#DE3335;}
	.st3{fill:#0603A6;}
	.st4{fill:#FFFFFF;}
	.st5{fill:#ECF248;}
</style>
<path id="Path_53" class="st0" d="M0,8h2.7V0H0V8z"/>
<path id="Path_55" class="st1" d="M8.6,8h2.7V0H8.6V8z"/>
<path id="Path_59" class="st2" d="M12.2,8h2.7V0h-2.7V8z"/>
<path id="Path_61" class="st3" d="M14.3,8h2.7V0h-2.7V8z"/>
<path id="Path_71" class="st2" d="M5.9,8h2.7V0H5.9V8z"/>
<path id="Path_73" class="st2" d="M11.3,8h5.4V0h-5.4V8z"/>
<path id="Path_76" class="st4" d="M2.7,8h3.2V0H2.7V8z"/>
<path id="Path_63" class="st4" d="M13.5,8h1.6V0h-1.6V8z"/>
<path id="Path_64" class="st2" d="M15.2,8h2.7V0h-2.7V8z"/>
<path id="Path_65" class="st0" d="M17.3,8h2.7V0h-2.7V8z"/>
<path id="Path_67" class="st5" d="M19.5,8h2.7V0h-2.7V8z"/>
<path id="Path_69" class="st2" d="M21.7,8H24V0h-2.3V8z"/>
</svg>
