<svg id="Group_116" data-name="Group 116" xmlns="http://www.w3.org/2000/svg" width="40" height="40" viewBox="0 0 40 40">
  <path id="Path_181" data-name="Path 181" d="M11.163,0H28.837A11.163,11.163,0,0,1,40,11.163V28.837A11.163,11.163,0,0,1,28.837,40H11.163A11.163,11.163,0,0,1,0,28.837V11.163A11.163,11.163,0,0,1,11.163,0Z" fill="#fff"/>
  <g id="Icon_ionic-ios-bookmark" data-name="Icon ionic-ios-bookmark" transform="translate(7.393 4.016)" fill="none">
    <path d="M9,4.375V16.25a.125.125,0,0,0,.2.1l3.65-2.875a.253.253,0,0,1,.3,0L16.8,16.35a.125.125,0,0,0,.2-.1V4.375a1,1,0,0,0-1-1H10A1,1,0,0,0,9,4.375Z" stroke="none"/>
    <path d="M 10 3.375001907348633 C 9.446880340576172 3.375001907348633 9 3.821870803833008 9 4.375000953674316 L 9 16.25000190734863 C 9 16.32405662536621 9.061241149902344 16.37555313110352 9.125850677490234 16.37555313110352 C 9.151216506958008 16.37555313110352 9.177093505859375 16.36762046813965 9.200000762939453 16.35000038146973 L 12.85000038146973 13.47500133514404 C 12.89531517028809 13.44218635559082 12.9484395980835 13.42577934265137 13.0011739730835 13.42577934265137 C 13.05390739440918 13.42577934265137 13.10624980926514 13.44218635559082 13.14999961853027 13.47500133514404 L 16.79999923706055 16.35000038146973 C 16.82290077209473 16.36761665344238 16.84878349304199 16.37555122375488 16.8741455078125 16.37555122375488 C 16.93875885009766 16.37555122375488 17 16.32405471801758 17 16.25000190734863 L 17 4.375000953674316 C 17 3.821870803833008 16.55313110351562 3.375001907348633 16 3.375001907348633 L 10 3.375001907348633 M 10 1.375001907348633 L 16 1.375001907348633 C 17.65420913696289 1.375001907348633 19 2.720790863037109 19 4.375000953674316 L 19 16.25000190734863 C 19 17.42203140258789 18.04634094238281 18.37555122375488 16.8741397857666 18.37555122375488 C 16.40898895263672 18.37555122375488 15.94952011108398 18.21913146972656 15.5803804397583 17.93509101867676 L 15.57137966156006 17.92817115783691 L 15.56245994567871 17.92114067077637 L 13 15.90276527404785 L 10.43754005432129 17.92114067077637 L 10.42846012115479 17.92830085754395 L 10.41928958892822 17.93535041809082 C 10.05020046234131 18.2192211151123 9.590839385986328 18.37555122375488 9.125850677490234 18.37555122375488 C 7.953649520874023 18.37555122375488 7 17.42203140258789 7 16.25000190734863 L 7 4.375000953674316 C 7 2.720790863037109 8.345790863037109 1.375001907348633 10 1.375001907348633 Z" stroke="none" fill="#0603a6"/>
  </g>
  <text id="collect" transform="translate(8.47 34.138)" fill="#0603a6" font-size="8" font-family="OpenSans-Light, Open Sans" font-weight="300"><tspan x="0" y="0">collect</tspan></text>
</svg>
