<svg xmlns="http://www.w3.org/2000/svg" width="306.777" height="181.766" viewBox="0 0 306.777 181.766">
  <g id="Group_332" data-name="Group 332" transform="translate(-2366.719 287.885)">
    <g id="Icon_feather-inbox" data-name="Icon feather-inbox" transform="translate(2485.461 -156.91)">
      <path id="Path_1394" data-name="Path 1394" d="M64.614,18H46.13l-6.161,9.242H27.646L21.484,18H3" transform="translate(-3 6.646)" fill="none" stroke="#fff" stroke-linecap="round" stroke-linejoin="round" stroke-width="3"/>
      <path id="Path_1395" data-name="Path 1395" d="M13.628,9.42,3,30.646V49.13a6.161,6.161,0,0,0,6.161,6.161H58.453a6.161,6.161,0,0,0,6.161-6.161V30.646L53.986,9.42A6.161,6.161,0,0,0,48.471,6H19.143a6.161,6.161,0,0,0-5.514,3.42Z" transform="translate(-3 -6)" fill="none" stroke="#fff" stroke-linecap="round" stroke-linejoin="round" stroke-width="3"/>
    </g>
    <path id="Icon_ionic-ios-arrow-round-down" data-name="Icon ionic-ios-arrow-round-down" d="M45.631,41.393a2.386,2.386,0,0,0-3.359-.018L31.154,52.457V10.23a2.373,2.373,0,0,0-4.747,0V52.457l-11.118-11.1a2.4,2.4,0,0,0-3.359.018,2.364,2.364,0,0,0,.018,3.341L27.1,59.759h0a2.665,2.665,0,0,0,.748.493,2.265,2.265,0,0,0,.913.183,2.38,2.38,0,0,0,1.661-.675L45.576,44.716A2.326,2.326,0,0,0,45.631,41.393Z" transform="translate(2487.059 -245.02)" fill="#fff"/>
    <path id="Icon_map-local-government" data-name="Icon map-local-government" d="M76.2,49.6V84.519H50.017V77.536h-22.7v6.983H2.88V49.6ZM60.4,43.239a20.027,20.027,0,0,0-6.826-11.175c-3.451-2.868-7.535-3.411-12.271-5.157h-.017V15.86l.915-.246,2-.742A19.242,19.242,0,0,1,46.4,14.24,7.181,7.181,0,0,1,47.943,14a11.959,11.959,0,0,1,2.465.318c.992.241,2.048.5,3.122.8,1.119.339,2.118.6,3.087.814a10.588,10.588,0,0,0,2.338.3,16.89,16.89,0,0,0,3.284-.45V3.131a11.959,11.959,0,0,1-3.286.644,9.788,9.788,0,0,1-2.359-.332c-.965-.185-1.961-.473-3.08-.8q-1.5-.449-3.026-.779a9.3,9.3,0,0,0-2.235-.333,16.338,16.338,0,0,0-6.966,1.494V.72H37.8V26.907h-.11c-4.7,1.746-8.815,2.388-12.263,5.257a20.22,20.22,0,0,0-6.838,10.931,2.839,2.839,0,0,0-3.347,3.017H64.069c0-3.492-3.666-2.872-3.666-2.872Z" transform="translate(2363.839 -255.995)" fill="#fff"/>
    <path id="Exclusion_1" data-name="Exclusion 1" d="M49.827,53.825H4.141A4.145,4.145,0,0,1,0,49.686V12.422A4.146,4.146,0,0,1,4.141,8.281H6.21V45.8a1.812,1.812,0,0,0,3.623,0V4.141A3.714,3.714,0,0,1,13.715.258L49.686,0a4.145,4.145,0,0,1,4.14,4.141V49.827A4,4,0,0,1,49.827,53.825ZM18.374,39.334a1.812,1.812,0,1,0,0,3.623h25.36a1.812,1.812,0,0,0,0-3.623Zm0-10.351a1.812,1.812,0,1,0,0,3.623H37.522a1.812,1.812,0,1,0,0-3.623ZM40.338,7.716A7.988,7.988,0,1,0,48.326,15.7,8,8,0,0,0,40.338,7.716ZM18.374,18.632a1.812,1.812,0,1,0,0,3.623H28.3a1.812,1.812,0,0,0,0-3.623Zm0-10.351a1.812,1.812,0,1,0,0,3.623H29.242a1.812,1.812,0,1,0,0-3.623ZM40.338,21.887a6.172,6.172,0,0,1-4.719-2.2,3.594,3.594,0,0,1,3.173-1.926.792.792,0,0,1,.228.036,4.019,4.019,0,0,0,2.636,0,.792.792,0,0,1,.228-.036,3.6,3.6,0,0,1,3.173,1.926A6.176,6.176,0,0,1,40.338,21.887Zm0-5.412a2.834,2.834,0,1,1,2.834-2.834A2.838,2.838,0,0,1,40.338,16.475Z" transform="translate(2488.547 -287.885)" fill="#fff"/>
    <g id="Icon_feather-refresh-cw" data-name="Icon feather-refresh-cw" transform="translate(2420.325 -282.47)">
      <path id="Path_1495" data-name="Path 1495" d="M39.387,6V19.887H25.5" transform="translate(5.722 -3.691)" fill="none" stroke="#fff" stroke-linecap="round" stroke-linejoin="round" stroke-width="3"/>
      <path id="Path_1497" data-name="Path 1497" d="M5.265,18.385a20.83,20.83,0,0,1,34.37-7.777L50.374,20.7" transform="translate(-5.265 -4.503)" fill="none" stroke="#fff" stroke-linecap="round" stroke-linejoin="round" stroke-width="3"/>
    </g>
    <g id="Icon_feather-refresh-cw-2" data-name="Icon feather-refresh-cw" transform="translate(2565.365 -282.47)">
      <path id="Path_1495-2" data-name="Path 1495" d="M25.5,6V19.887H39.387" transform="translate(-25.5 -3.691)" fill="none" stroke="#fff" stroke-linecap="round" stroke-linejoin="round" stroke-width="3"/>
      <path id="Path_1497-2" data-name="Path 1497" d="M50.374,18.385A20.83,20.83,0,0,0,16,10.608L5.265,20.7" transform="translate(-5.265 -4.503)" fill="none" stroke="#fff" stroke-linecap="round" stroke-linejoin="round" stroke-width="3"/>
    </g>
    <path id="Icon_awesome-users" data-name="Icon awesome-users" d="M14.368,30.986a9.579,9.579,0,1,0-9.579-9.579A9.588,9.588,0,0,0,14.368,30.986Zm67.051,0a9.579,9.579,0,1,0-9.579-9.579A9.588,9.588,0,0,0,81.419,30.986Zm4.789,4.789H76.63a9.551,9.551,0,0,0-6.75,2.784A21.892,21.892,0,0,1,81.12,54.933H91a4.784,4.784,0,0,0,4.789-4.789V45.354A9.588,9.588,0,0,0,86.208,35.775Zm-38.315,0A16.763,16.763,0,1,0,31.131,19.013,16.754,16.754,0,0,0,47.893,35.775Zm11.494,4.789H58.146a23.143,23.143,0,0,1-20.5,0H36.4A17.246,17.246,0,0,0,19.157,57.806v4.31A7.186,7.186,0,0,0,26.341,69.3h43.1a7.186,7.186,0,0,0,7.184-7.184v-4.31A17.246,17.246,0,0,0,59.388,40.565ZM25.907,38.559a9.551,9.551,0,0,0-6.75-2.784H9.579A9.588,9.588,0,0,0,0,45.354v4.789a4.784,4.784,0,0,0,4.789,4.789h9.863A21.947,21.947,0,0,1,25.907,38.559Z" transform="translate(2577.709 -236.308)" fill="#fff"/>
  </g>
</svg>
