<svg xmlns="http://www.w3.org/2000/svg" width="24" height="24" viewBox="0 0 24 24">
  <path id="Path_361" data-name="Path 361" d="M8.25,10.123h7.5a.752.752,0,0,0,.75-.75v-.75a.752.752,0,0,0-.75-.75H8.25a.752.752,0,0,0-.75.75v.75A.752.752,0,0,0,8.25,10.123Zm-.75,3.75a.752.752,0,0,0,.75.75h7.5a.752.752,0,0,0,.75-.75v-.75a.752.752,0,0,0-.75-.75H8.25a.752.752,0,0,0-.75.75ZM12,19.549a3.771,3.771,0,0,1-2.2-.712L0,11.759v9.989A2.251,2.251,0,0,0,2.25,24h19.5A2.251,2.251,0,0,0,24,21.748V11.759l-9.8,7.078a3.738,3.738,0,0,1-2.2.712ZM23.137,7.638c-.417-.323-.806-.633-1.387-1.069V4.5a2.251,2.251,0,0,0-2.25-2.25H15.867c-.141-.1-.277-.2-.422-.309C14.653,1.367,13.087-.016,12,0,10.912-.016,9.347,1.367,8.559,1.938c-.15.108-.281.206-.422.309H4.5A2.251,2.251,0,0,0,2.25,4.5V6.565c-.581.441-.975.745-1.387,1.073A2.241,2.241,0,0,0,0,9.406v.5l4.5,3.253V4.5h15v8.658L24,9.9v-.5a2.248,2.248,0,0,0-.862-1.767Z" transform="translate(0 0.002)" fill="#005"/>
</svg>
