<svg xmlns="http://www.w3.org/2000/svg" width="19.538" height="28" viewBox="0 0 19.538 28">
  <g id="Icon_ionic-ios-bookmark" data-name="Icon ionic-ios-bookmark" transform="translate(-6 -0.375)" fill="none">
    <path d="M9,5.067v20.1a.211.211,0,0,0,.338.169l6.177-4.865a.428.428,0,0,1,.508,0L22.2,25.332a.211.211,0,0,0,.338-.169V5.067a1.69,1.69,0,0,0-1.692-1.692H10.692A1.69,1.69,0,0,0,9,5.067Z" stroke="none"/>
    <path d="M 10.69223213195801 3.375003814697266 C 9.756223678588867 3.375003814697266 9.000001907348633 4.131214141845703 9.000001907348633 5.067234039306641 L 9.000001907348633 25.16253280639648 C 9.000001907348633 25.28784561157227 9.103645324707031 25.37499809265137 9.212978363037109 25.37499809265137 C 9.255901336669922 25.37499809265137 9.299680709838867 25.36157989501953 9.338443756103516 25.33176422119141 L 15.51511192321777 20.46658325195312 C 15.59178829193115 20.41105270385742 15.68168544769287 20.3832893371582 15.77092266082764 20.3832893371582 C 15.8601598739624 20.3832893371582 15.94873809814453 20.41105270385742 16.02277374267578 20.46658325195312 L 22.19944381713867 25.33176422119141 C 22.23819541931152 25.361572265625 22.2819938659668 25.37499809265137 22.32490921020508 25.37499809265137 C 22.43424987792969 25.37499809265137 22.53788375854492 25.28785514831543 22.53788375854492 25.16253280639648 L 22.53788375854492 5.067234039306641 C 22.53788375854492 4.131214141845703 21.78167343139648 3.375003814697266 20.84565353393555 3.375003814697266 L 10.69223213195801 3.375003814697266 M 10.69223213195801 0.3750038146972656 L 20.84565353393555 0.3750038146972656 C 23.43295288085938 0.3750038146972656 25.53788375854492 2.47993278503418 25.53788375854492 5.067234039306641 L 25.53788375854492 25.16253280639648 C 25.53788375854492 26.93389320373535 24.09655380249023 28.3749942779541 22.32491302490234 28.3749942779541 C 21.6222038269043 28.3749942779541 20.92801284790039 28.13867378234863 20.37022399902344 27.70956420898438 L 20.35661315917969 27.69910430908203 L 20.34313201904297 27.68847274780273 L 15.76894283294678 24.08551979064941 L 11.19475364685059 27.68847274780273 L 11.18131256103516 27.69906234741211 L 11.16775321960449 27.70950317382812 C 10.60994338989258 28.13865280151367 9.915721893310547 28.3749942779541 9.212972640991211 28.3749942779541 C 7.441333770751953 28.3749942779541 6.000001907348633 26.93389320373535 6.000001907348633 25.16253280639648 L 6.000001907348633 5.067234039306641 C 6.000001907348633 2.47993278503418 8.10493278503418 0.3750038146972656 10.69223213195801 0.3750038146972656 Z" stroke="none" fill="#005"/>
  </g>
</svg>
