<?xml version="1.0" encoding="utf-8"?>
<!-- Generator: Adobe Illustrator 21.0.0, SVG Export Plug-In . SVG Version: 6.00 Build 0)  -->
<svg version="1.1" id="Layer_1" xmlns="http://www.w3.org/2000/svg" xmlns:xlink="http://www.w3.org/1999/xlink" x="0px" y="0px"
	 viewBox="0 0 560 200" style="enable-background:new 0 0 560 200;" xml:space="preserve">
<style type="text/css">
	.st0{fill:#3D4A4C;}
	.st1{fill:#E6E6E6;}
	.st2{opacity:0.9;fill:none;stroke:#C33F27;stroke-width:16;stroke-linejoin:bevel;stroke-miterlimit:10;}
	.st3{opacity:0.9;fill:none;stroke:#067172;stroke-width:16;stroke-linejoin:bevel;stroke-miterlimit:10;}
	.st4{opacity:0.75;fill:none;stroke:#798CC6;stroke-width:16;stroke-linejoin:bevel;stroke-miterlimit:10;}
	.st5{opacity:0.9;fill:#C33F27;}
	.st6{opacity:0.9;fill:#067172;}
	.st7{opacity:0.75;fill:#798CC6;}
</style>
<g>
	<path class="st0" d="M231.3,16h9.4v17.2L256.5,16H268l-16.7,18.5c1.4,2,4.1,5.7,8,11.2c3.9,5.5,6.8,9.5,8.7,12.2h-10.9l-12.3-16.6
		l-4.2,4.7V58h-9.4V16z"/>
	<path class="st0" d="M298.8,58h-8.5v-3.9c-2.3,2.9-5.2,4.4-8.6,4.4s-6.3-1-8.6-3c-2.3-2-3.5-4.6-3.5-7.9s1.2-5.8,3.6-7.4
		c2.4-1.6,5.7-2.5,9.8-2.5h6.7v-0.2c0-3.4-1.8-5.2-5.5-5.2c-1.6,0-3.2,0.3-5,0.9c-1.7,0.6-3.2,1.4-4.4,2.3l-4-5.8
		c4.2-3.1,9.1-4.6,14.5-4.6c3.9,0,7.1,1,9.6,2.9c2.5,2,3.7,5.1,3.7,9.3V58z M289.8,45.7v-1.6h-5.6c-3.6,0-5.4,1.1-5.4,3.4
		c0,1.2,0.4,2,1.3,2.7c0.9,0.6,2.1,0.9,3.7,0.9c1.6,0,3-0.5,4.2-1.5C289.1,48.6,289.8,47.3,289.8,45.7z"/>
	<path class="st0" d="M336.1,40.6V58H327V40.3c0-2.6-0.4-4.4-1.2-5.6s-2-1.8-3.8-1.8c-1.7,0-3.3,0.7-4.6,2s-2,3.2-2,5.7V58h-9V25.7
		h9v3.7c2.5-2.8,5.3-4.2,8.5-4.2c2,0,3.9,0.6,5.5,1.8c1.7,1.2,2.9,2.7,3.8,4.4c1.2-2,2.9-3.5,5-4.6c2.1-1.1,4.2-1.6,6.3-1.6
		c3.8,0,6.9,1.1,9.2,3.4c2.3,2.3,3.5,5.5,3.5,9.8V58h-9.1V40.3c0-5-1.8-7.4-5.5-7.4c-1.8,0-3.4,0.7-4.7,2S336.1,38.1,336.1,40.6z"/>
	<path class="st0" d="M392.8,53.3c-3.6,3.4-7.9,5.2-12.8,5.2c-4.9,0-9-1.5-12.2-4.5s-4.8-7.1-4.8-12.2c0-5.1,1.6-9.1,4.9-12.1
		s7.1-4.5,11.6-4.5c4.4,0,8.2,1.3,11.3,4c3.1,2.7,4.7,6.4,4.7,11V45h-23.5c0.3,1.8,1.2,3.2,2.8,4.3c1.6,1.1,3.3,1.7,5.3,1.7
		c3.2,0,5.8-1.1,7.8-3.2L392.8,53.3z M384.1,34.2c-1.2-1-2.8-1.6-4.5-1.6c-1.8,0-3.4,0.5-4.9,1.6c-1.5,1.1-2.3,2.5-2.6,4.4h14.2
		C386.1,36.7,385.4,35.2,384.1,34.2z"/>
	<path class="st0" d="M418.3,33.6c-2.7,0-4.7,1-6,2.9c-1.3,1.9-2,4.4-2,7.5v14h-9V25.7h9V30c1.2-1.3,2.6-2.4,4.4-3.4
		c1.7-0.9,3.5-1.4,5.3-1.4l0.1,8.5H418.3z"/>
	<path class="st0" d="M239.1,118l-12.8-32.3h9.4l8,20.3l8-20.3h9.4L248.3,118H239.1z"/>
	<path class="st0" d="M281.9,93.6c-2.7,0-4.7,1-6,2.9c-1.3,1.9-2,4.4-2,7.5v14h-9V85.7h9V90c1.2-1.3,2.6-2.4,4.4-3.4
		c1.7-0.9,3.5-1.4,5.3-1.4l0.1,8.5H281.9z"/>
	<path class="st0" d="M316.1,118h-8.5v-3.9c-2.3,2.9-5.2,4.4-8.6,4.4s-6.3-1-8.6-3c-2.3-2-3.5-4.6-3.5-7.9s1.2-5.8,3.6-7.4
		c2.4-1.6,5.7-2.5,9.8-2.5h6.7v-0.2c0-3.4-1.8-5.2-5.5-5.2c-1.6,0-3.2,0.3-5,0.9c-1.7,0.6-3.2,1.4-4.4,2.3l-4-5.8
		c4.2-3.1,9.1-4.6,14.5-4.6c3.9,0,7.1,1,9.6,2.9c2.5,2,3.7,5.1,3.7,9.3V118z M307,105.7v-1.6h-5.6c-3.6,0-5.4,1.1-5.4,3.4
		c0,1.2,0.4,2,1.3,2.7c0.9,0.6,2.1,0.9,3.7,0.9s3-0.5,4.2-1.5C306.4,108.6,307,107.3,307,105.7z"/>
	<path class="st0" d="M347.6,112.5c-2.8,3.2-6.4,4.7-10.6,4.7c-4.2,0-7.8-1.4-10.7-4.3c-2.9-2.9-4.4-6.7-4.4-11.5
		c0-4.8,1.5-8.7,4.5-11.8c3-3.1,6.4-4.6,10.2-4.6s7,1.6,9.5,4.7v-4.3h9v28.1c0,2.9-0.5,5.4-1.5,7.7s-2.3,4-4,5.3
		c-3.3,2.6-7.2,4-11.8,4c-2.4,0-4.9-0.4-7.4-1.2c-2.5-0.8-4.7-1.9-6.6-3.3l3.5-6.8c3,2.2,6.1,3.4,9.4,3.4c3.3,0,5.9-0.8,7.8-2.5
		C346.6,118.7,347.6,116.1,347.6,112.5z M346.3,101.2c0-2.6-0.7-4.6-2.2-6.1c-1.4-1.5-3.2-2.2-5.3-2.2s-4,0.7-5.5,2.2
		c-1.5,1.5-2.3,3.5-2.3,6.1c0,2.6,0.8,4.6,2.2,6.2c1.5,1.6,3.3,2.4,5.5,2.4s4-0.8,5.4-2.3C345.6,105.8,346.3,103.7,346.3,101.2z"/>
	<path class="st0" d="M391.1,113.3c-3.6,3.4-7.9,5.2-12.8,5.2c-4.9,0-9-1.5-12.2-4.5s-4.8-7.1-4.8-12.2c0-5.1,1.6-9.1,4.9-12.1
		s7.1-4.5,11.6-4.5c4.4,0,8.2,1.3,11.3,4c3.1,2.7,4.7,6.4,4.7,11v4.8h-23.5c0.3,1.8,1.2,3.2,2.8,4.3c1.6,1.1,3.3,1.7,5.3,1.7
		c3.2,0,5.8-1.1,7.8-3.2L391.1,113.3z M382.5,94.2c-1.2-1-2.8-1.6-4.5-1.6c-1.8,0-3.4,0.5-4.9,1.6c-1.5,1.1-2.3,2.5-2.6,4.4h14.2
		C384.4,96.7,383.7,95.2,382.5,94.2z"/>
	<path class="st0" d="M408.6,100v18h-9V85.7h9v3.6c2.7-2.8,5.8-4.1,9.2-4.1c3.4,0,6.2,1.2,8.5,3.6c2.3,2.4,3.5,5.6,3.5,9.6V118h-9
		V99.7c0-5-1.8-7.4-5.5-7.4c-1.8,0-3.4,0.7-4.7,2C409.3,95.6,408.6,97.5,408.6,100z"/>
	<path class="st0" d="M241.1,152.2v14.5c0,1.2,0.3,2.2,1,2.9c0.6,0.7,1.4,1.1,2.3,1.1c1.7,0,3.1-0.8,4.3-2.3l3.4,6.3
		c-2.8,2.6-5.8,3.8-8.9,3.8c-3.1,0-5.7-1-7.9-3.1c-2.1-2-3.2-4.8-3.2-8.3v-14.9h-3.8v-6.5h3.8V136h9.1v9.7h7.8v6.5H241.1z"/>
	<path class="st0" d="M273.1,153.6c-2.7,0-4.7,1-6,2.9c-1.3,1.9-2,4.4-2,7.5v14h-9v-32.3h9v4.3c1.2-1.3,2.6-2.4,4.4-3.4
		c1.7-0.9,3.5-1.4,5.3-1.4l0.1,8.5H273.1z"/>
	<path class="st0" d="M307.3,178h-8.5v-3.9c-2.3,2.9-5.2,4.4-8.6,4.4c-3.4,0-6.3-1-8.6-3c-2.3-2-3.5-4.6-3.5-7.9s1.2-5.8,3.6-7.4
		c2.4-1.6,5.7-2.5,9.8-2.5h6.7v-0.2c0-3.4-1.8-5.2-5.5-5.2c-1.6,0-3.2,0.3-4.9,0.9c-1.7,0.6-3.2,1.4-4.4,2.3l-4-5.8
		c4.2-3.1,9.1-4.6,14.5-4.6c3.9,0,7.1,1,9.6,2.9c2.5,2,3.7,5.1,3.7,9.3V178z M298.3,165.7v-1.6h-5.6c-3.6,0-5.4,1.1-5.4,3.4
		c0,1.2,0.4,2,1.3,2.7c0.9,0.6,2.1,0.9,3.7,0.9s3-0.5,4.2-1.5C297.7,168.6,298.3,167.3,298.3,165.7z"/>
	<path class="st0" d="M330.4,170.5c3,0,5.7-1.5,8.1-4.5l5.3,6c-4.2,4.3-8.7,6.5-13.5,6.5s-8.9-1.5-12.3-4.6c-3.3-3.1-5-7.1-5-12
		c0-4.9,1.7-9,5.1-12.1s7.4-4.7,12-4.7c2.3,0,4.7,0.5,7,1.4s4.5,2.4,6.3,4.3l-4.7,6.1c-1-1.2-2.3-2.2-3.8-2.9c-1.5-0.7-3-1-4.5-1
		c-2.4,0-4.4,0.8-6.1,2.3s-2.5,3.7-2.5,6.4c0,2.7,0.8,4.9,2.5,6.4C326.2,169.7,328.2,170.5,330.4,170.5z"/>
	<path class="st0" d="M358.3,178h-9v-44.5h9v22.9l10-10.7h11.3l-12.3,13.1l12.8,19.3h-10.7l-8.2-12.4l-2.9,3.1V178z"/>
	<path class="st0" d="M412.3,173.3c-3.6,3.4-7.9,5.2-12.8,5.2c-4.9,0-9-1.5-12.2-4.5s-4.8-7.1-4.8-12.2c0-5.1,1.6-9.1,4.9-12.1
		s7.1-4.5,11.6-4.5c4.4,0,8.2,1.3,11.3,4c3.1,2.7,4.7,6.4,4.7,11v4.8h-23.5c0.3,1.8,1.2,3.2,2.8,4.3c1.6,1.1,3.3,1.7,5.3,1.7
		c3.2,0,5.8-1.1,7.8-3.2L412.3,173.3z M403.7,154.2c-1.2-1-2.8-1.6-4.5-1.6c-1.8,0-3.4,0.5-4.9,1.6c-1.5,1.1-2.3,2.5-2.6,4.4h14.2
		C405.7,156.7,404.9,155.2,403.7,154.2z"/>
	<path class="st0" d="M437.8,153.6c-2.7,0-4.7,1-6,2.9c-1.3,1.9-2,4.4-2,7.5v14h-9v-32.3h9v4.3c1.2-1.3,2.6-2.4,4.4-3.4
		c1.7-0.9,3.5-1.4,5.3-1.4l0.1,8.5H437.8z"/>
</g>
<g>
	<g>
		<g>
			<g>
				<circle class="st1" cx="29.1" cy="20" r="8"/>
			</g>
			<g>
				<circle class="st1" cx="29.1" cy="100" r="8"/>
			</g>
			<g>
				<circle class="st1" cx="29.1" cy="180" r="8"/>
			</g>
		</g>
		<g>
			<g>
				<circle class="st1" cx="109.1" cy="20" r="8"/>
			</g>
			<g>
				<circle class="st1" cx="109.1" cy="100" r="8"/>
			</g>
			<g>
				<circle class="st1" cx="109.1" cy="180" r="8"/>
			</g>
		</g>
	</g>
	<g>
		<g>
			<circle class="st1" cx="189.1" cy="20" r="8"/>
		</g>
		<g>
			<circle class="st1" cx="189.1" cy="100" r="8"/>
		</g>
		<g>
			<circle class="st1" cx="189.1" cy="180" r="8"/>
		</g>
	</g>
	<polygon class="st2" points="80.4,37 189.4,37 189.4,61.8 189.4,117.3 80.4,117 	"/>
	<polygon class="st3" points="167.4,37 29.4,37 167.4,160 	"/>
	<ellipse class="st4" cx="91.5" cy="86.3" rx="43.4" ry="49.3"/>
</g>
</svg>
