<svg xmlns="http://www.w3.org/2000/svg" viewBox="0 0 560 200"><defs><style>.cls-1{isolation:isolate;}.cls-2{fill:#3d4a4c;}.cls-3{fill:#e6e6e6;}.cls-4{fill:#c21889;}.cls-4,.cls-5{opacity:0.9;}.cls-4,.cls-5,.cls-6{mix-blend-mode:multiply;}.cls-5{fill:#74b957;}.cls-6{fill:#ec1c24;opacity:0.75;}</style></defs><title>open wob logo outlines</title><g class="cls-1"><g id="Layer_1" data-name="Layer 1"><path class="cls-2" d="M274.62,78.63a27.42,27.42,0,0,1-37.58,0,24.86,24.86,0,0,1-7.63-18.54A24.86,24.86,0,0,1,237,41.55a27.42,27.42,0,0,1,37.58,0,24.86,24.86,0,0,1,7.63,18.54A24.86,24.86,0,0,1,274.62,78.63Zm-3.82-18.5a16.47,16.47,0,0,0-4.32-11.48,14.24,14.24,0,0,0-21.24,0,16.47,16.47,0,0,0-4.32,11.48,16.33,16.33,0,0,0,4.32,11.45,14.32,14.32,0,0,0,21.24,0A16.34,16.34,0,0,0,270.81,60.13Z"/><path class="cls-2" d="M312.49,46.2q6.77,0,12.06,5.65a20,20,0,0,1,5.29,14.22,20.37,20.37,0,0,1-5.29,14.33,16.33,16.33,0,0,1-12.38,5.76,13.64,13.64,0,0,1-11.41-5.69V99.55H290V46.85h10.8v4.32A16,16,0,0,1,312.49,46.2ZM300.61,66.25a11.23,11.23,0,0,0,2.63,7.7,8.18,8.18,0,0,0,6.37,3,8.73,8.73,0,0,0,6.55-3A10.74,10.74,0,0,0,319,66.29a11.59,11.59,0,0,0-2.74-7.85,8.38,8.38,0,0,0-6.55-3.17,8.1,8.1,0,0,0-6.44,3.13A11.79,11.79,0,0,0,300.61,66.25Z"/><path class="cls-2" d="M370.74,80a21.66,21.66,0,0,1-15.37,6.19,20.4,20.4,0,0,1-14.58-5.44Q335,75.29,335,66.14T340.9,51.6a19.79,19.79,0,0,1,13.86-5.4A20,20,0,0,1,368.33,51q5.58,4.82,5.58,13.25V70H345.68A7.7,7.7,0,0,0,349,75.21a10.59,10.59,0,0,0,6.34,2,12.43,12.43,0,0,0,9.36-3.82ZM360.37,57a8.18,8.18,0,0,0-5.44-1.87,9.73,9.73,0,0,0-5.87,1.94,7.43,7.43,0,0,0-3.1,5.26h17A7.67,7.67,0,0,0,360.37,57Z"/><path class="cls-2" d="M391.76,64v21.6H381V46.85h10.8v4.32a15.12,15.12,0,0,1,11-5A13.64,13.64,0,0,1,413,50.52q4.14,4.32,4.14,11.52V85.58h-10.8V63.69q0-8.93-6.55-8.93a7.86,7.86,0,0,0-5.65,2.34Q391.76,59.45,391.76,64Z"/><path class="cls-2" d="M248,136.2l8.93-28.94h11.74l8.86,28.94,10-28.94h12.17l-17.57,50.33h-8.35l-11-35-10.94,35h-8.35l-17.57-50.33H238Z"/><path class="cls-2" d="M346.48,150.63a27.42,27.42,0,0,1-37.58,0,26.33,26.33,0,0,1,0-37.08,27.42,27.42,0,0,1,37.58,0,26.34,26.34,0,0,1,0,37.08Zm-3.82-18.5a16.47,16.47,0,0,0-4.32-11.48,14.24,14.24,0,0,0-21.24,0,17.38,17.38,0,0,0,0,22.93,14.32,14.32,0,0,0,21.24,0A16.33,16.33,0,0,0,342.66,132.13Z"/><path class="cls-2" d="M384.93,157.58h-22V107.25h19.58a28.27,28.27,0,0,1,8.82,1.22,12.66,12.66,0,0,1,5.58,3.31,13,13,0,0,1,3.38,8.78q0,5.9-3.82,8.78a13.76,13.76,0,0,1-1.8,1.26q-.51.25-1.8.83a13.2,13.2,0,0,1,7.45,4.21,11.73,11.73,0,0,1,2.77,8,13.53,13.53,0,0,1-3.6,9.29Q395.29,157.58,384.93,157.58Zm-10.8-30h5.33a18,18,0,0,0,6.95-1q2.27-1,2.27-4.36t-2.09-4.43q-2.09-1.08-7.06-1.08h-5.4Zm0,20.45h7.7a17,17,0,0,0,7.24-1.19q2.41-1.19,2.41-4.68t-2.56-4.61q-2.56-1.12-8.17-1.12h-6.62Z"/><circle class="cls-3" cx="29.1" cy="20" r="8"/><circle class="cls-3" cx="29.1" cy="100" r="8"/><circle class="cls-3" cx="29.1" cy="180" r="8"/><circle class="cls-3" cx="109.1" cy="20" r="8"/><circle class="cls-3" cx="109.1" cy="100" r="8"/><circle class="cls-3" cx="109.1" cy="180" r="8"/><circle class="cls-3" cx="189.1" cy="20" r="8"/><circle class="cls-3" cx="189.1" cy="100" r="8"/><circle class="cls-3" cx="189.1" cy="180" r="8"/><path class="cls-4" d="M189,188l-80-.26-8-8V100l8-8h80l8,8v80Zm-72-16.23,64,.2V108H117Z"/><path class="cls-5" d="M182.33,144.42l-79.6-120L109.4,12H189l8,8V140ZM124.31,28,181,113.47V28Z"/><path class="cls-6" d="M69.1,188a48,48,0,1,1,48-48A48.05,48.05,0,0,1,69.1,188Zm0-80a32,32,0,1,0,32,32A32,32,0,0,0,69.1,108Z"/></g></g></svg>