<svg id="Layer_1" data-name="Layer 1" xmlns="http://www.w3.org/2000/svg" viewBox="0 0 140 46.8"><defs><style>.cls-1{fill:#0603a6;}.cls-2{fill:#fff;}.cls-3{fill:#000056;}.cls-4{fill:#9ec3da;}.cls-5{fill:#edf249;}.cls-6{fill:#e2383b;}</style></defs><title>Artboard 1</title><path class="cls-1" d="M11.5,34.59H10.14v4.65H9V34.59H8.05V34L9,33.68v-.36a2,2,0,0,1,.46-1.46,1.88,1.88,0,0,1,1.41-.47,3.9,3.9,0,0,1,1.22.2l-.31.89a2.83,2.83,0,0,0-.83-.14.68.68,0,0,0-.58.25,1.22,1.22,0,0,0-.19.75v.36H11.5Zm.87-2.36a.69.69,0,0,1,.17-.49.7.7,0,0,1,.5-.17.69.69,0,0,1,.48.17.65.65,0,0,1,.17.49.61.61,0,0,1-.17.47.65.65,0,0,1-.48.18.67.67,0,0,1-.5-.18A.64.64,0,0,1,12.37,32.23Zm1.25,7H12.44V33.7h1.18Zm6.72,0H19.15V35.83a1.5,1.5,0,0,0-.25-.95,1,1,0,0,0-.82-.32A1.33,1.33,0,0,0,17,35a2.46,2.46,0,0,0-.34,1.48v2.76H15.46V33.7h.92l.17.72h.06a1.7,1.7,0,0,1,.71-.61,2.45,2.45,0,0,1,1-.21,1.78,1.78,0,0,1,2,2Zm5.32-.72a1.88,1.88,0,0,1-1.66.82,1.94,1.94,0,0,1-1.62-.75,3.42,3.42,0,0,1-.58-2.11,3.38,3.38,0,0,1,.59-2.12,2.14,2.14,0,0,1,3.3,0h.06a6.58,6.58,0,0,1-.09-.94v-2h1.19v7.8h-.93l-.2-.72Zm-1.34-.13A1.3,1.3,0,0,0,25.38,38a2.16,2.16,0,0,0,.34-1.32v-.17A2.55,2.55,0,0,0,25.38,35a1.29,1.29,0,0,0-1.07-.44,1.1,1.1,0,0,0-1,.5A2.65,2.65,0,0,0,23,36.5a2.52,2.52,0,0,0,.32,1.41A1.1,1.1,0,0,0,24.32,38.39Zm8.36.85H31.51v-7.8h1.17Zm6.76-2.78a3,3,0,0,1-.69,2.12,2.51,2.51,0,0,1-1.94.76A2.62,2.62,0,0,1,35.43,39a2.24,2.24,0,0,1-.91-1,3.31,3.31,0,0,1-.33-1.52,3,3,0,0,1,.7-2.11,2.52,2.52,0,0,1,2-.75,2.46,2.46,0,0,1,1.9.77A3,3,0,0,1,39.44,36.46Zm-4,0c0,1.28.47,1.92,1.42,1.92s1.4-.64,1.4-1.92-.47-1.9-1.41-1.9a1.2,1.2,0,0,0-1.08.49A2.53,2.53,0,0,0,35.41,36.46Zm7.78,2.88a2.41,2.41,0,0,1-1.91-.73,3,3,0,0,1-.66-2.11,3.07,3.07,0,0,1,.69-2.15,2.52,2.52,0,0,1,2-.75,3.81,3.81,0,0,1,1.58.32l-.35.95a3.67,3.67,0,0,0-1.24-.29c-1,0-1.44.64-1.44,1.91a2.27,2.27,0,0,0,.36,1.4,1.25,1.25,0,0,0,1.05.47A3,3,0,0,0,44.73,38v1a2.28,2.28,0,0,1-.67.26A3.68,3.68,0,0,1,43.19,39.34Zm6.47-.1-.24-.77h0a2.26,2.26,0,0,1-.81.69,2.56,2.56,0,0,1-1,.18,1.72,1.72,0,0,1-1.27-.44,1.63,1.63,0,0,1-.46-1.25,1.47,1.47,0,0,1,.63-1.29,3.72,3.72,0,0,1,1.94-.48l1,0v-.29a1.11,1.11,0,0,0-.25-.8,1,1,0,0,0-.77-.26,2.45,2.45,0,0,0-.81.13,6.28,6.28,0,0,0-.76.29l-.38-.84a3.88,3.88,0,0,1,1-.36,4.69,4.69,0,0,1,1-.12,2.39,2.39,0,0,1,1.6.46,1.81,1.81,0,0,1,.54,1.45v3.73Zm-1.76-.8a1.45,1.45,0,0,0,1-.36,1.29,1.29,0,0,0,.39-1V36.6l-.71,0a2.48,2.48,0,0,0-1.21.27.86.86,0,0,0-.38.76.75.75,0,0,0,.22.58A1,1,0,0,0,47.9,38.44Zm5.57.8H52.3v-7.8h1.17Zm7.48.1a1.93,1.93,0,0,1-1.63-.75h-.07c0,.46.07.75.07.85v2.27H58.14v-8h1c0,.1.08.35.17.74h.06A1.83,1.83,0,0,1,61,33.6a1.94,1.94,0,0,1,1.62.75,3.42,3.42,0,0,1,.58,2.11,3.4,3.4,0,0,1-.59,2.12A2,2,0,0,1,61,39.34Zm-.29-4.78a1.23,1.23,0,0,0-1,.41,2.11,2.11,0,0,0-.32,1.31v.18a2.56,2.56,0,0,0,.32,1.47,1.18,1.18,0,0,0,1,.45,1.08,1.08,0,0,0,1-.5A2.61,2.61,0,0,0,62,36.45,2.49,2.49,0,0,0,61.63,35,1.1,1.1,0,0,0,60.66,34.56Zm9,1.9a3,3,0,0,1-.7,2.12,2.49,2.49,0,0,1-1.94.76A2.56,2.56,0,0,1,65.6,39a2.26,2.26,0,0,1-.92-1,3.31,3.31,0,0,1-.32-1.52,3,3,0,0,1,.69-2.11,2.52,2.52,0,0,1,2-.75,2.44,2.44,0,0,1,1.9.77A3,3,0,0,1,69.61,36.46Zm-4,0c0,1.28.47,1.92,1.42,1.92s1.4-.64,1.4-1.92-.47-1.9-1.41-1.9a1.21,1.21,0,0,0-1.08.49A2.53,2.53,0,0,0,65.57,36.46Zm6.72,2.78H71.11v-7.8h1.18Zm1.77-7a.66.66,0,0,1,.18-.49.68.68,0,0,1,.49-.17.61.61,0,0,1,.66.66.61.61,0,0,1-.18.47.62.62,0,0,1-.48.18.64.64,0,0,1-.49-.18A.61.61,0,0,1,74.06,32.23Zm1.25,7H74.13V33.7h1.18Zm3.91-.85a2.92,2.92,0,0,0,.86-.14v.89a1.88,1.88,0,0,1-.5.14,3.39,3.39,0,0,1-.64.06c-1.12,0-1.68-.59-1.68-1.76v-3H76.5v-.52l.82-.43.4-1.18h.72V33.7H80v.89H78.44v3a.86.86,0,0,0,.22.63A.8.8,0,0,0,79.22,38.39Zm2-6.16a.69.69,0,0,1,.17-.49.7.7,0,0,1,.5-.17.67.67,0,0,1,.48.17.65.65,0,0,1,.17.49.61.61,0,0,1-.17.47.63.63,0,0,1-.48.18.67.67,0,0,1-.5-.18A.64.64,0,0,1,81.27,32.23Zm1.25,7H81.34V33.7h1.18Zm4.07.1a2.44,2.44,0,0,1-1.91-.73A3.1,3.1,0,0,1,84,36.5a3.11,3.11,0,0,1,.68-2.15,2.56,2.56,0,0,1,2-.75,3.84,3.84,0,0,1,1.58.32l-.36.95a3.67,3.67,0,0,0-1.23-.29c-1,0-1.44.64-1.44,1.91a2.27,2.27,0,0,0,.36,1.4,1.25,1.25,0,0,0,1.05.47A3,3,0,0,0,88.14,38v1a2.34,2.34,0,0,1-.68.26A3.58,3.58,0,0,1,86.59,39.34Zm6.47-.1-.23-.77h0a2.26,2.26,0,0,1-.81.69,2.59,2.59,0,0,1-1,.18,1.75,1.75,0,0,1-1.28-.44,1.67,1.67,0,0,1-.46-1.25,1.47,1.47,0,0,1,.64-1.29,3.69,3.69,0,0,1,1.94-.48l1,0v-.29a1.16,1.16,0,0,0-.25-.8,1,1,0,0,0-.77-.26,2.51,2.51,0,0,0-.82.13,6.13,6.13,0,0,0-.75.29l-.38-.84a3.88,3.88,0,0,1,1-.36,4.55,4.55,0,0,1,1-.12,2.39,2.39,0,0,1,1.6.46,1.81,1.81,0,0,1,.54,1.45v3.73Zm-1.75-.8a1.45,1.45,0,0,0,1-.36,1.29,1.29,0,0,0,.39-1V36.6l-.71,0a2.56,2.56,0,0,0-1.22.27.85.85,0,0,0-.37.76.75.75,0,0,0,.22.58A1,1,0,0,0,91.31,38.44Zm5.57.8H95.7v-7.8h1.18Zm9.54,0h-1.18V35.83a1.49,1.49,0,0,0-.26-.95,1,1,0,0,0-.82-.32,1.31,1.31,0,0,0-1.09.44,2.46,2.46,0,0,0-.35,1.48v2.76h-1.18V33.7h.93l.16.72h.06a1.77,1.77,0,0,1,.71-.61,2.46,2.46,0,0,1,1-.21,1.77,1.77,0,0,1,2,2Zm4.22.1a2.68,2.68,0,0,1-2-.75,2.85,2.85,0,0,1-.73-2.08,3.15,3.15,0,0,1,.67-2.14,2.36,2.36,0,0,1,1.86-.77,2.31,2.31,0,0,1,1.74.66,2.58,2.58,0,0,1,.63,1.84v.64H109.1a1.82,1.82,0,0,0,.44,1.24,1.5,1.5,0,0,0,1.15.43,4.42,4.42,0,0,0,.92-.09,5.16,5.16,0,0,0,.91-.31v1a4.23,4.23,0,0,1-.87.29A6.08,6.08,0,0,1,110.64,39.34Zm-.22-4.85a1.19,1.19,0,0,0-.9.36,1.68,1.68,0,0,0-.4,1h2.52a1.6,1.6,0,0,0-.33-1A1.17,1.17,0,0,0,110.42,34.49Zm8.41,4.75-.72-2.58c-.08-.28-.24-.92-.47-1.91h0c-.2.9-.35,1.54-.46,1.92l-.74,2.57h-1.3l-1.56-5.54h1.21l.7,2.73a17.26,17.26,0,0,1,.34,1.73h0c0-.24.09-.52.16-.84s.12-.55.17-.7L117,33.7h1.29l.82,2.92c0,.16.11.41.19.75s.11.6.13.78h0a16.32,16.32,0,0,1,.35-1.72l.72-2.73h1.18l-1.56,5.54Zm7.72-1.58a1.47,1.47,0,0,1-.59,1.25,2.81,2.81,0,0,1-1.69.43,4,4,0,0,1-1.78-.33V38a4.34,4.34,0,0,0,1.82.45q1.08,0,1.08-.66a.53.53,0,0,0-.12-.35,1.51,1.51,0,0,0-.39-.29,8,8,0,0,0-.77-.34,3.6,3.6,0,0,1-1.3-.74,1.4,1.4,0,0,1-.33-1,1.27,1.27,0,0,1,.57-1.11,2.73,2.73,0,0,1,1.56-.39,4.48,4.48,0,0,1,1.85.39l-.38.89a4.06,4.06,0,0,0-1.51-.37c-.62,0-.93.18-.93.53a.53.53,0,0,0,.24.44,5.35,5.35,0,0,0,1.06.5,4.87,4.87,0,0,1,1,.49,1.36,1.36,0,0,1,.46.5A1.52,1.52,0,0,1,126.55,37.66Z"/><rect class="cls-2" x="75.22" y="14.84" width="1.98" height="5.9"/><path class="cls-3" d="M14.09,6.87c0,1.82-.87,2.55-2.24,2.55h-2V3.88h2c1.37,0,2.24.64,2.24,2.33Zm2.66.23V6c0-3-1.95-4.55-4.68-4.55H7.22V18.07H9.88V11.86h2.19A4.38,4.38,0,0,0,16.75,7.1"/><path class="cls-3" d="M24.86,8.34c0,2.19-.78,2.91-2,2.91s-2-.72-2-2.91V6.26c0-2.19.77-2.9,2-2.9s2,.71,2,2.9Zm2.33,0V6.26c0-3.37-1.65-5-4.37-5s-4.36,1.67-4.36,5V8.34c0,3.38,1.65,5.05,4.36,5.05s4.37-1.67,4.37-5.05m2.52,4.85h6.86V11.06H32V1.42H29.71Zm8.41,0h2.33V1.42H38.12Z"/><path class="cls-3" d="M103.81,6.76h2.66V5.66a4.08,4.08,0,0,0-4.35-4.44c-2.37,0-4.3,1.2-4.3,4.19A5.31,5.31,0,0,0,100.41,10l1.89,1.35A3.36,3.36,0,0,1,104,14.08a1.69,1.69,0,0,1-1.89,1.77,1.89,1.89,0,0,1-1.88-2.15V12.53H97.6v1.33a4.55,4.55,0,0,0,9.09-.11,5.34,5.34,0,0,0-2.62-4.48l-1.95-1.4a3,3,0,0,1-1.64-2.46,1.57,1.57,0,0,1,1.64-1.75c1,0,1.69.64,1.69,2.06Z"/><path class="cls-3" d="M93.39,6.87c0,1.82-.87,2.55-2.24,2.55h-2V3.88h2c1.37,0,2.24.64,2.24,2.33Zm2.66.23V6c0-3-2-4.55-4.68-4.55H86.52V18.07h2.66V11.86h2.19A4.38,4.38,0,0,0,96.05,7.1"/><path class="cls-3" d="M55.29,8.27v-2c0-2.19.77-2.9,2-2.9s2,.71,2,2.9h2.33c0-3.37-1.65-5-4.36-5S53,2.89,53,6.26v2c0,3.38,1.65,5.05,4.37,5.05s4.36-1.67,4.36-5.05H59.36c0,2.2-.77,2.91-2,2.91s-2-.71-2-2.91m15.13.07c0,2.19-.78,2.91-2,2.91s-2-.72-2-2.91V6.26c0-2.19.78-2.9,2-2.9s2,.71,2,2.9Zm2.32,0V6.26c0-3.37-1.64-5-4.36-5S64,2.89,64,6.26V8.34c0,3.38,1.65,5.05,4.36,5.05s4.36-1.67,4.36-5.05m8.73,0c0,2.19-.77,2.91-2,2.91s-2-.72-2-2.91V6.26c0-2.19.78-2.9,2-2.9s2,.71,2,2.9Zm2.33,0V6.26c0-3.37-1.65-5-4.36-5s-4.37,1.67-4.37,5V8.34c0,3.38,1.65,5.05,4.37,5.05s4.36-1.67,4.36-5.05"/><path class="cls-3" d="M45,5.41a1.57,1.57,0,0,1,1.64-1.75c1,0,1.69.64,1.69,2.06v1H51V5.66a4.08,4.08,0,0,0-4.35-4.44c-2.37,0-4.3,1.2-4.3,4.19A5.3,5.3,0,0,0,45,10l1.88,1.35a3.36,3.36,0,0,1,1.73,2.77,1.69,1.69,0,0,1-1.88,1.77,1.9,1.9,0,0,1-1.89-2.15V12.53H42.16v1.33a4.25,4.25,0,0,0,4.55,4.43,4.24,4.24,0,0,0,4.54-4.54,5.33,5.33,0,0,0-2.61-4.48l-2-1.4A3,3,0,0,1,45,5.41"/><rect class="cls-3" x="12.39" y="14.84" width="1.98" height="5.9"/><rect class="cls-3" x="67.29" y="14.84" width="1.98" height="5.9"/><rect class="cls-4" x="18.67" y="14.84" width="1.98" height="5.9"/><rect class="cls-2" x="59.69" y="14.84" width="1.98" height="5.9"/><rect class="cls-5" x="24.62" y="14.84" width="1.98" height="5.9"/><rect class="cls-5" x="69.27" y="14.84" width="1.98" height="5.9"/><rect class="cls-6" x="26.6" y="14.84" width="1.98" height="5.9"/><rect class="cls-4" x="71.25" y="14.84" width="1.98" height="5.9"/><rect class="cls-1" x="28.58" y="14.84" width="1.98" height="5.9"/><rect class="cls-6" x="73.24" y="14.84" width="1.98" height="5.9"/><rect class="cls-2" x="30.56" y="14.84" width="1.98" height="5.9"/><rect class="cls-6" x="32.54" y="14.84" width="1.98" height="5.9"/><rect class="cls-3" x="34.52" y="14.84" width="1.98" height="5.9"/><rect class="cls-6" x="53.75" y="14.84" width="1.98" height="5.9"/><rect class="cls-5" x="36.51" y="14.84" width="1.98" height="5.9"/><rect class="cls-5" x="55.73" y="14.84" width="1.98" height="5.9"/><rect class="cls-6" x="38.49" y="14.84" width="1.98" height="5.9"/><rect class="cls-6" x="81.16" y="14.84" width="1.98" height="5.9"/><rect class="cls-6" x="16.69" y="14.84" width="1.98" height="5.9"/><rect class="cls-6" x="57.71" y="14.84" width="1.98" height="5.9"/><rect class="cls-6" x="20.65" y="14.84" width="3.96" height="5.9"/><rect class="cls-1" x="77.2" y="14.84" width="3.96" height="5.9"/><rect class="cls-4" x="62.67" y="14.84" width="3.96" height="5.9"/><rect class="cls-2" x="14.38" y="14.84" width="2.31" height="5.9"/><rect class="cls-2" x="66.63" y="14.84" width="0.66" height="5.9"/><rect class="cls-6" x="61.68" y="14.84" width="0.99" height="5.9"/></svg>