<svg id="Layer_1" data-name="Layer 1" xmlns="http://www.w3.org/2000/svg" viewBox="0 0 260 80"><defs><style>.cls-1{fill:#0603a6;}.cls-2{fill:#fff;}.cls-3{fill:#000056;}.cls-4{fill:#9ec3da;}.cls-5{fill:#edf249;}.cls-6{fill:#e2383b;}</style></defs><title>desktop</title><path class="cls-1" d="M14,56.3H11.42V65H9.2V56.3H7.48v-1l1.72-.68v-.68a3.8,3.8,0,0,1,.86-2.74,3.56,3.56,0,0,1,2.65-.89,7,7,0,0,1,2.3.39l-.59,1.68a4.93,4.93,0,0,0-1.56-.27,1.29,1.29,0,0,0-1.1.47,2.35,2.35,0,0,0-.34,1.4v.68H14Zm1.64-4.43a1.27,1.27,0,0,1,.32-.92,1.3,1.3,0,0,1,.93-.32,1.26,1.26,0,0,1,.91.32,1.23,1.23,0,0,1,.33.92,1.21,1.21,0,0,1-.33.89,1.26,1.26,0,0,1-.91.32,1.3,1.3,0,0,1-.93-.32A1.24,1.24,0,0,1,15.6,51.87ZM18,65H15.73V54.63H18Zm12.62,0H28.35v-6.4a2.74,2.74,0,0,0-.49-1.8,1.85,1.85,0,0,0-1.54-.59,2.45,2.45,0,0,0-2.05.82,4.62,4.62,0,0,0-.65,2.78V65H21.41V54.63h1.73L23.45,56h.11a3.15,3.15,0,0,1,1.34-1.15,4.49,4.49,0,0,1,1.92-.4q3.75,0,3.75,3.81Zm10-1.36a3.53,3.53,0,0,1-3.11,1.55,3.65,3.65,0,0,1-3.05-1.41,6.42,6.42,0,0,1-1.09-4,6.39,6.39,0,0,1,1.11-4,3.66,3.66,0,0,1,3.06-1.42A3.6,3.6,0,0,1,40.62,56h.11a14.27,14.27,0,0,1-.16-1.77V50.39H42.8V65H41.06l-.38-1.36Zm-2.52-.24a2.4,2.4,0,0,0,2-.77,4.11,4.11,0,0,0,.64-2.49v-.31a4.75,4.75,0,0,0-.64-2.8,2.39,2.39,0,0,0-2-.82,2,2,0,0,0-1.8.94,4.86,4.86,0,0,0-.63,2.7,4.68,4.68,0,0,0,.61,2.64A2.06,2.06,0,0,0,38.05,63.44ZM53.77,65H51.55V50.39h2.22Zm12.69-5.22a5.65,5.65,0,0,1-1.31,4,4.69,4.69,0,0,1-3.64,1.43,5,5,0,0,1-2.58-.66,4.33,4.33,0,0,1-1.72-1.89,6.34,6.34,0,0,1-.61-2.86,5.69,5.69,0,0,1,1.3-4,4.72,4.72,0,0,1,3.67-1.42,4.56,4.56,0,0,1,3.57,1.45A5.63,5.63,0,0,1,66.46,59.82Zm-7.58,0q0,3.6,2.67,3.6t2.63-3.6q0-3.57-2.65-3.57a2.25,2.25,0,0,0-2,.92A4.67,4.67,0,0,0,58.88,59.82ZM73.5,65.23a4.53,4.53,0,0,1-3.59-1.38,5.76,5.76,0,0,1-1.23-4,5.78,5.78,0,0,1,1.28-4,4.79,4.79,0,0,1,3.72-1.41,6.9,6.9,0,0,1,3,.61L76,56.83a6.85,6.85,0,0,0-2.32-.55q-2.7,0-2.7,3.59a4.26,4.26,0,0,0,.67,2.63,2.33,2.33,0,0,0,2,.88,5.65,5.65,0,0,0,2.8-.73v1.93a4.48,4.48,0,0,1-1.27.5A7.6,7.6,0,0,1,73.5,65.23ZM85.65,65l-.44-1.45h-.08a4.19,4.19,0,0,1-1.51,1.3,4.79,4.79,0,0,1-2,.34,3.35,3.35,0,0,1-2.4-.83,3.1,3.1,0,0,1-.86-2.34,2.74,2.74,0,0,1,1.2-2.43,6.82,6.82,0,0,1,3.64-.9l1.8,0v-.56a2.1,2.1,0,0,0-.47-1.49,1.89,1.89,0,0,0-1.44-.5,4.91,4.91,0,0,0-1.54.24,12.5,12.5,0,0,0-1.41.55l-.72-1.58a7.9,7.9,0,0,1,1.86-.67,8.2,8.2,0,0,1,1.9-.23,4.53,4.53,0,0,1,3,.86,3.39,3.39,0,0,1,1,2.73v7Zm-3.29-1.5a2.74,2.74,0,0,0,1.93-.68A2.43,2.43,0,0,0,85,61v-.9l-1.34.06a4.48,4.48,0,0,0-2.27.52,1.6,1.6,0,0,0-.71,1.43,1.39,1.39,0,0,0,.41,1.07A1.77,1.77,0,0,0,82.36,63.54ZM92.82,65H90.61V50.39h2.21Zm14.05.19a3.64,3.64,0,0,1-3.07-1.42h-.13c.09.88.13,1.41.13,1.6v4.27h-2.21V54.63h1.79c.05.19.15.66.31,1.39h.11a3.48,3.48,0,0,1,3.11-1.58,3.6,3.6,0,0,1,3,1.41,6.33,6.33,0,0,1,1.09,4,6.43,6.43,0,0,1-1.1,4A3.67,3.67,0,0,1,106.87,65.23Zm-.54-9a2.26,2.26,0,0,0-1.92.77,4,4,0,0,0-.61,2.47v.33a4.89,4.89,0,0,0,.6,2.75,2.24,2.24,0,0,0,2,.85,2,2,0,0,0,1.77-.94,4.81,4.81,0,0,0,.62-2.68,4.7,4.7,0,0,0-.61-2.65A2.08,2.08,0,0,0,106.33,56.25Zm16.8,3.57a5.7,5.7,0,0,1-1.31,4,4.7,4.7,0,0,1-3.64,1.43,5,5,0,0,1-2.58-.66,4.35,4.35,0,0,1-1.73-1.89,6.47,6.47,0,0,1-.6-2.86,5.64,5.64,0,0,1,1.3-4,4.71,4.71,0,0,1,3.66-1.42,4.58,4.58,0,0,1,3.58,1.45A5.63,5.63,0,0,1,123.13,59.82Zm-7.58,0q0,3.6,2.66,3.6t2.64-3.6q0-3.57-2.65-3.57a2.24,2.24,0,0,0-2,.92A4.67,4.67,0,0,0,115.55,59.82ZM128.18,65H126V50.39h2.21Zm3.32-13.17a1.23,1.23,0,0,1,.33-.92,1.3,1.3,0,0,1,.93-.32A1.12,1.12,0,0,1,134,51.87a1.24,1.24,0,0,1-.32.89,1.26,1.26,0,0,1-.91.32,1.3,1.3,0,0,1-.93-.32A1.21,1.21,0,0,1,131.5,51.87ZM133.85,65h-2.21V54.63h2.21Zm7.34-1.6a5.36,5.36,0,0,0,1.62-.25v1.66a4.21,4.21,0,0,1-.95.27,6.78,6.78,0,0,1-1.2.11q-3.15,0-3.15-3.31V56.3h-1.42v-1l1.53-.81.75-2.2h1.37v2.32h3V56.3h-3v5.58a1.55,1.55,0,0,0,.4,1.18A1.45,1.45,0,0,0,141.19,63.44ZM145,51.87a1.23,1.23,0,0,1,.33-.92,1.3,1.3,0,0,1,.93-.32,1.12,1.12,0,0,1,1.23,1.24,1.24,1.24,0,0,1-.32.89,1.26,1.26,0,0,1-.91.32,1.3,1.3,0,0,1-.93-.32A1.21,1.21,0,0,1,145,51.87ZM147.39,65h-2.21V54.63h2.21Zm7.66.19a4.57,4.57,0,0,1-3.6-1.38,5.81,5.81,0,0,1-1.22-4,5.78,5.78,0,0,1,1.28-4,4.79,4.79,0,0,1,3.72-1.41,6.9,6.9,0,0,1,3,.61l-.67,1.78a6.76,6.76,0,0,0-2.31-.55c-1.8,0-2.71,1.2-2.71,3.59a4.26,4.26,0,0,0,.68,2.63,2.31,2.31,0,0,0,2,.88,5.65,5.65,0,0,0,2.8-.73v1.93a4.48,4.48,0,0,1-1.27.5A7.6,7.6,0,0,1,155.05,65.23ZM167.2,65l-.44-1.45h-.08a4.19,4.19,0,0,1-1.51,1.3,4.79,4.79,0,0,1-2,.34,3.33,3.33,0,0,1-2.4-.83,3.1,3.1,0,0,1-.86-2.34,2.74,2.74,0,0,1,1.2-2.43,6.82,6.82,0,0,1,3.64-.9l1.8,0v-.56a2.1,2.1,0,0,0-.47-1.49,1.89,1.89,0,0,0-1.44-.5,4.91,4.91,0,0,0-1.54.24,12.5,12.5,0,0,0-1.41.55L161,55.34a7.9,7.9,0,0,1,1.86-.67,8.14,8.14,0,0,1,1.9-.23,4.53,4.53,0,0,1,3,.86,3.39,3.39,0,0,1,1,2.73v7Zm-3.29-1.5a2.74,2.74,0,0,0,1.93-.68,2.43,2.43,0,0,0,.73-1.89v-.9l-1.34.06a4.48,4.48,0,0,0-2.27.52,1.58,1.58,0,0,0-.71,1.43,1.39,1.39,0,0,0,.41,1.07A1.77,1.77,0,0,0,163.91,63.54ZM174.37,65h-2.21V50.39h2.21Zm17.93,0h-2.22v-6.4a2.8,2.8,0,0,0-.49-1.8,1.86,1.86,0,0,0-1.54-.59,2.45,2.45,0,0,0-2.05.82,4.62,4.62,0,0,0-.65,2.78V65h-2.21V54.63h1.73l.31,1.36h.11a3.15,3.15,0,0,1,1.34-1.15,4.49,4.49,0,0,1,1.92-.4q3.75,0,3.75,3.81Zm7.92.19a5,5,0,0,1-3.8-1.42,5.37,5.37,0,0,1-1.37-3.9,5.88,5.88,0,0,1,1.27-4,4.37,4.37,0,0,1,3.5-1.46,4.29,4.29,0,0,1,3.25,1.25,4.78,4.78,0,0,1,1.2,3.45v1.19h-6.94a3.38,3.38,0,0,0,.82,2.33,2.82,2.82,0,0,0,2.17.82A7.76,7.76,0,0,0,202,63.3a8.56,8.56,0,0,0,1.71-.57v1.79a6.74,6.74,0,0,1-1.64.55A9.73,9.73,0,0,1,200.22,65.23Zm-.4-9.12a2.23,2.23,0,0,0-1.69.67,3.16,3.16,0,0,0-.76,1.95h4.73a2.86,2.86,0,0,0-.63-1.95A2.12,2.12,0,0,0,199.82,56.11ZM215.61,65l-1.34-4.86c-.17-.51-.46-1.71-.89-3.59h-.08c-.37,1.7-.66,2.9-.87,3.61L211.05,65H208.6l-2.92-10.41h2.26l1.33,5.13c.3,1.27.51,2.35.64,3.26H210c.07-.46.16-1,.29-1.58s.24-1,.33-1.33l1.59-5.48h2.43l1.53,5.48c.1.31.21.78.35,1.41a9,9,0,0,1,.25,1.48h.08a27.22,27.22,0,0,1,.66-3.24l1.35-5.13H221L218.1,65Zm14.51-3A2.74,2.74,0,0,1,229,64.42a5.39,5.39,0,0,1-3.19.81,7.5,7.5,0,0,1-3.34-.63V62.69a8.26,8.26,0,0,0,3.42.85c1.36,0,2-.42,2-1.24a1,1,0,0,0-.23-.66,2.52,2.52,0,0,0-.74-.54,10.56,10.56,0,0,0-1.44-.64,6.59,6.59,0,0,1-2.43-1.4,2.55,2.55,0,0,1-.64-1.81,2.36,2.36,0,0,1,1.08-2.07,5,5,0,0,1,2.93-.74,8.43,8.43,0,0,1,3.48.74l-.72,1.67a7.62,7.62,0,0,0-2.83-.7c-1.17,0-1.76.33-1.76,1a1,1,0,0,0,.46.83,10.35,10.35,0,0,0,2,.93,9.42,9.42,0,0,1,1.88.91,2.67,2.67,0,0,1,.86,1A2.74,2.74,0,0,1,230.12,62.08Z"/><rect class="cls-2" x="134.91" y="26.7" width="3.72" height="11.08"/><path class="cls-3" d="M20.06,11.73c0,3.41-1.62,4.79-4.2,4.79H12.15V6.11h3.71c2.58,0,4.2,1.2,4.2,4.37Zm5,.41V10.06c0-5.58-3.67-8.53-8.79-8.53H7.15V32.76h5V21.1h4.12c5.12,0,8.79-3.17,8.79-9"/><path class="cls-3" d="M40.3,14.49c0,4.11-1.46,5.46-3.83,5.46s-3.82-1.35-3.82-5.46V10.58c0-4.11,1.45-5.46,3.82-5.46s3.83,1.35,3.83,5.46Zm4.37,0V10.58c0-6.34-3.1-9.47-8.2-9.47s-8.2,3.13-8.2,9.47v3.91c0,6.34,3.1,9.47,8.2,9.47s8.2-3.13,8.2-9.47m4.74,9.11h12.9v-4H53.78V1.47H49.41Zm15.81,0H69.6V1.47H65.22Z"/><path class="cls-3" d="M188.62,11.52h5V9.44c0-5.62-3.63-8.33-8.17-8.33S177.37,3.36,177.37,9c0,4.12,2.13,6.58,4.88,8.54l3.54,2.54c1.87,1.33,3.25,2.87,3.25,5.2,0,2.08-1.38,3.33-3.54,3.33s-3.54-1.54-3.54-4v-2.2h-5v2.5c0,5.37,3.83,8.32,8.54,8.32S194,30.34,194,24.64c0-4-2.2-6.46-4.91-8.41l-3.67-2.63c-1.74-1.25-3.08-2.54-3.08-4.62a3,3,0,0,1,3.08-3.29c2,0,3.17,1.21,3.17,3.87Z"/><path class="cls-3" d="M169.05,11.73c0,3.41-1.63,4.79-4.21,4.79h-3.71V6.11h3.71c2.58,0,4.21,1.2,4.21,4.37Zm5,.41V10.06c0-5.58-3.66-8.53-8.78-8.53h-9.12V32.76h5V21.1h4.13c5.12,0,8.78-3.17,8.78-9"/><path class="cls-3" d="M97.47,14.36V10.58c0-4.12,1.46-5.46,3.83-5.46s3.82,1.34,3.82,5.46h4.38c0-6.34-3.1-9.47-8.2-9.47s-8.2,3.13-8.2,9.47v3.78c0,6.34,3.09,9.47,8.2,9.47s8.2-3.13,8.2-9.47h-4.38c0,4.11-1.45,5.46-3.82,5.46s-3.83-1.35-3.83-5.46m28.42.13c0,4.12-1.46,5.46-3.82,5.46s-3.83-1.34-3.83-5.46V10.58c0-4.12,1.46-5.46,3.83-5.46s3.82,1.34,3.82,5.46Zm4.37,0V10.58c0-6.34-3.09-9.47-8.19-9.47s-8.2,3.13-8.2,9.47v3.91c0,6.34,3.09,9.47,8.2,9.47s8.19-3.13,8.19-9.47m16.4,0c0,4.12-1.45,5.46-3.82,5.46S139,18.61,139,14.49V10.58c0-4.12,1.46-5.46,3.83-5.46s3.82,1.34,3.82,5.46Zm4.38,0V10.58c0-6.34-3.1-9.47-8.2-9.47s-8.2,3.13-8.2,9.47v3.91c0,6.34,3.09,9.47,8.2,9.47s8.2-3.13,8.2-9.47"/><path class="cls-3" d="M78.22,9A3,3,0,0,1,81.3,5.69c2,0,3.17,1.21,3.17,3.87v2h5V9.44c0-5.62-3.63-8.33-8.17-8.33S73.23,3.36,73.23,9c0,4.12,2.12,6.58,4.87,8.54l3.54,2.54c1.87,1.33,3.25,2.87,3.25,5.2,0,2.08-1.38,3.33-3.54,3.33s-3.54-1.54-3.54-4v-2.2h-5v2.5c0,5.37,3.83,8.32,8.54,8.32s8.53-2.83,8.53-8.53c0-4-2.2-6.46-4.91-8.41L81.3,13.6c-1.75-1.25-3.08-2.54-3.08-4.62"/><rect class="cls-3" x="16.88" y="26.7" width="3.72" height="11.08"/><rect class="cls-3" x="120.02" y="26.7" width="3.72" height="11.08"/><rect class="cls-4" x="28.67" y="26.7" width="3.72" height="11.08"/><rect class="cls-2" x="105.75" y="26.7" width="3.72" height="11.08"/><rect class="cls-5" x="39.84" y="26.7" width="3.72" height="11.08"/><rect class="cls-5" x="123.74" y="26.7" width="3.72" height="11.08"/><rect class="cls-6" x="43.57" y="26.7" width="3.72" height="11.08"/><rect class="cls-4" x="127.46" y="26.7" width="3.72" height="11.08"/><rect class="cls-1" x="47.29" y="26.7" width="3.72" height="11.08"/><rect class="cls-6" x="131.19" y="26.7" width="3.72" height="11.08"/><rect class="cls-2" x="51.01" y="26.7" width="3.72" height="11.08"/><rect class="cls-6" x="54.73" y="26.7" width="3.72" height="11.08"/><rect class="cls-3" x="58.46" y="26.7" width="3.72" height="11.08"/><rect class="cls-6" x="94.58" y="26.7" width="3.72" height="11.08"/><rect class="cls-5" x="62.18" y="26.7" width="3.72" height="11.08"/><rect class="cls-5" x="98.3" y="26.7" width="3.72" height="11.08"/><rect class="cls-6" x="65.9" y="26.7" width="3.72" height="11.08"/><rect class="cls-6" x="146.08" y="26.7" width="3.72" height="11.08"/><rect class="cls-6" x="24.95" y="26.7" width="3.72" height="11.08"/><rect class="cls-6" x="102.02" y="26.7" width="3.72" height="11.08"/><rect class="cls-6" x="32.4" y="26.7" width="7.45" height="11.08"/><rect class="cls-1" x="138.63" y="26.7" width="7.45" height="11.08"/><rect class="cls-4" x="111.33" y="26.7" width="7.45" height="11.08"/><rect class="cls-2" x="20.61" y="26.7" width="4.34" height="11.08"/><rect class="cls-2" x="118.78" y="26.7" width="1.24" height="11.08"/><rect class="cls-6" x="109.47" y="26.7" width="1.86" height="11.08"/></svg>