<svg xmlns="http://www.w3.org/2000/svg" viewBox="0 0 451.7 176"><defs><style>.cls-1{isolation:isolate;}.cls-2{fill:#3d4a4c;}.cls-3{fill:#e6e6e6;}.cls-4{fill:#ec117e;}.cls-4,.cls-5{opacity:0.9;}.cls-4,.cls-5,.cls-6{mix-blend-mode:multiply;}.cls-5{fill:#0e723b;}.cls-6{fill:#3b5d8c;opacity:0.75;}</style></defs><title>poliflwlogo1</title><g class="cls-1"><g id="Layer_2" data-name="Layer 2"><g id="Layer_1-2" data-name="Layer 1"><path class="cls-2" d="M245.9,63.75q5.28,4.5,5.29,13.83t-5.44,13.64q-5.43,4.32-16.59,4.32h-6.7v14H211.23V59.25H229Q240.61,59.25,245.9,63.75Zm-8.25,19.8c1.35-1.51,2-3.71,2-6.62s-.88-5-2.63-6.19-4.48-1.84-8.17-1.84h-6.41V85.82H230C233.76,85.82,236.31,85.07,237.65,83.55Z"/><path class="cls-2" d="M296.4,90.21a19.15,19.15,0,0,1-5.83,14.19,21.51,21.51,0,0,1-29.3,0,20.22,20.22,0,0,1,0-28.41,21.43,21.43,0,0,1,29.3,0A19.28,19.28,0,0,1,296.4,90.21Zm-30.09,0A11.1,11.1,0,0,0,269,98a9.48,9.48,0,0,0,13.82,0,11.1,11.1,0,0,0,2.7-7.74,11.22,11.22,0,0,0-2.7-7.77,9.39,9.39,0,0,0-13.82,0A11.22,11.22,0,0,0,266.31,90.21Z"/><path class="cls-2" d="M314.48,109.58h-10.8V56.16h10.8Z"/><path class="cls-2" d="M324.88,65.91a6.33,6.33,0,0,1,4.5-10.83,6.34,6.34,0,1,1,0,12.67A6.09,6.09,0,0,1,324.88,65.91Zm9.9,43.67H324V70.85h10.8Z"/><path class="cls-2" d="M357.17,68.61v2.6h9.36V79h-9.36v30.6H346.3V79h-4.54V71.21h4.54V68.83q0-6.33,3.85-10a13.24,13.24,0,0,1,9.58-3.71,15,15,0,0,1,10.4,4.32l-3.89,7.27A6.92,6.92,0,0,0,361,63.93a3.54,3.54,0,0,0-2.74,1.19A5,5,0,0,0,357.17,68.61Z"/><path class="cls-2" d="M383.31,109.58h-10.8V56.16h10.8Z"/><path class="cls-2" d="M413,109.58H401.81L388.63,70.85h11.16l7.56,23.4,7.56-23.4h10.44l7.56,23.4,7.56-23.4H451.7l-13.17,38.73H427.3l-7.13-21.09Z"/><circle class="cls-3" cx="8" cy="8" r="8"/><circle class="cls-3" cx="8" cy="88" r="8"/><circle class="cls-3" cx="8" cy="168" r="8"/><circle class="cls-3" cx="88" cy="8" r="8"/><circle class="cls-3" cx="88" cy="88" r="8"/><circle class="cls-3" cx="88" cy="168" r="8"/><circle class="cls-3" cx="168" cy="8" r="8"/><circle class="cls-3" cx="168" cy="88" r="8"/><circle class="cls-3" cx="168" cy="168" r="8"/><path class="cls-4" d="M168.28,175.26,54.5,175l-8-8V74.1l8-8H168.3l8,8v93.16ZM62.53,159l97.77.26V82.1H62.53Z"/><path class="cls-5" d="M74.8,143.35,60,139.09V8l8-8h82.5l6.77,12.26ZM76,16v95.35L136,16Z"/><path class="cls-6" d="M60.89,158.59c-34,0-60.69-18.38-60.69-41.85S26.86,74.9,60.89,74.9s60.69,18.38,60.69,41.84S94.93,158.59,60.89,158.59Zm0-67.69c-24.22,0-44.69,11.83-44.69,25.84s20.47,25.85,44.69,25.85,44.69-11.83,44.69-25.85S85.12,90.9,60.89,90.9Z"/></g></g></g></svg>