<?xml version="1.0" encoding="utf-8"?>
<!-- Generator: Adobe Illustrator 15.0.0, SVG Export Plug-In . SVG Version: 6.00 Build 0)  -->
<!DOCTYPE svg PUBLIC "-//W3C//DTD SVG 1.1//EN" "http://www.w3.org/Graphics/SVG/1.1/DTD/svg11.dtd">
<svg version="1.1" id="Layer_1" xmlns="http://www.w3.org/2000/svg" xmlns:xlink="http://www.w3.org/1999/xlink" x="0px" y="0px"
	 width="400px" height="75px" viewBox="0 0 400 75" enable-background="new 0 0 400 75" xml:space="preserve">
<g>
	<rect x="219.197" y="66" fill="#007DFF" width="38" height="9"/>
</g>
<path fill="#0C2C65" d="M1.75,43.094c1.828,1.032,7.235,3.339,12.562,3.339c5.645,0,7.633-2.465,7.633-5.964
	c0-3.657-2.465-4.69-6.758-6.359l-3.26-1.273C2.783,29.26,0,24.33,0,16.458C0,5.963,8.427,0,20.195,0
	c4.214,0,9.461,0.397,13.994,2.226l-0.637,10.893c-2.624-1.352-7.155-2.783-11.448-2.783c-4.453,0-7.156,1.829-7.156,5.248
	c0,2.862,1.432,4.134,6.36,6.36l6.679,3.021c5.008,2.305,9.382,5.804,9.382,14.073c0,12.165-8.745,18.367-21.706,18.367
	c-6.679,0-12.006-1.433-14.788-2.147L1.75,43.094z"/>
<rect x="45.569" y="0.954" fill="#0C2C65" width="16.939" height="55.497"/>
<path fill="#0C2C65" d="M89.15,45.795h3.259c8.587,0,12.881-6.121,12.881-16.855c0-14.231-6.838-17.014-14.948-17.014H89.15V45.795z
	 M74.203,0.955h21.387c16.299,0,25.443,10.892,25.443,27.43c0,19.24-10.177,28.066-27.748,28.066H74.203V0.955z"/>
<polygon fill="#0C2C65" points="143.294,17.969 142.975,17.969 142.975,56.451 129.936,56.451 129.936,0.954 147.27,0.954 
	161.818,39.197 161.978,39.197 161.978,0.954 175.016,0.954 175.016,56.451 157.526,56.451 "/>
<g>
	<path fill="#007DFF" d="M238.196,58.045c-11.695,0-21.21-9.34-21.21-20.82c0-11.479,9.515-20.817,21.21-20.817
		c11.696,0,21.211,9.338,21.211,20.817C259.407,48.705,249.892,58.045,238.196,58.045z M238.196,25.364
		c-6.757,0-12.254,5.321-12.254,11.861c0,6.542,5.497,11.864,12.254,11.864c6.756,0,12.254-5.322,12.254-11.864
		C250.451,30.685,244.953,25.364,238.196,25.364z"/>
</g>
<path fill="#007DFF" d="M187.77,56.689h24.812v-7.37h-6.96V25.736h8.599v-7.37h-8.599v-3.03c0-5.814,3.276-6.305,7.615-6.305
	c1.393,0,2.621,0.327,3.849,0.654V1.579c-2.374-0.328-4.913-0.737-7.288-0.737c-12.365,0-15.068,7.125-15.068,13.266v4.258h-6.96
	v7.37h6.96V49.32h-6.96V56.689z"/>
<path fill="#007DFF" d="M263.504,56.689h21.128v-7.37h-4.914V35.317c0-4.913,2.375-10.317,8.271-10.317
	c4.422,0,6.714,3.766,6.714,7.697V49.32h-4.913v7.37h21.127v-7.37h-5.323V32.287c0-9.663-3.521-15.067-13.675-15.067
	c-5.487,0-10.4,2.702-13.021,7.616h-0.164v-6.469h-15.231v7.37h5.323V49.32h-5.323V56.689z"/>
<path fill="#007DFF" d="M366.589,56.689h8.189v-4.094h0.164c2.21,3.111,5.65,5.24,11.382,5.24c8.271,0,13.676-5.486,13.676-12.283
	c0-16.869-22.684-9.089-22.684-16.869c0-3.603,3.685-4.094,5.896-4.094c4.013,0,7.042,1.965,7.042,6.469h8.599V18.366h-8.189v4.012
	H390.5c-2.538-3.931-5.896-5.159-10.318-5.159c-6.96,0-13.757,3.767-13.757,11.792c0,17.033,22.684,9.008,22.684,17.033
	c0,3.604-3.357,4.422-5.733,4.422c-4.421,0-8.188-2.457-8.188-7.288h-8.599V56.689z"/>
<path fill="#007DFF" d="M334.407,50.057c-4.667,0-8.107-4.258-8.107-12.529c0-6.305,2.129-12.528,9.09-12.528
	c6.715,0,9.5,5.65,9.5,11.956C344.89,45.062,342.597,50.057,334.407,50.057 M355.125,1.988h-16.213v7.37h5.323v14.658h-0.164
	c-1.802-3.685-5.405-6.796-11.873-6.796c-9.991,0-17.197,6.796-17.197,20.881c0,10.318,5.405,19.735,16.542,19.735
	c6.796,0,10.154-2.129,13.593-7.534h0.164v6.387h15.15v-7.37h-5.324V1.988z"/>
</svg>
